G04 #@! TF.GenerationSoftware,KiCad,Pcbnew,7.0.9-7.0.9~ubuntu22.04.1*
G04 #@! TF.CreationDate,2023-11-28T09:56:04+02:00*
G04 #@! TF.ProjectId,elepajaradio,656c6570-616a-4617-9261-64696f2e6b69,rev?*
G04 #@! TF.SameCoordinates,Original*
G04 #@! TF.FileFunction,Copper,L1,Top*
G04 #@! TF.FilePolarity,Positive*
%FSLAX46Y46*%
G04 Gerber Fmt 4.6, Leading zero omitted, Abs format (unit mm)*
G04 Created by KiCad (PCBNEW 7.0.9-7.0.9~ubuntu22.04.1) date 2023-11-28 09:56:04*
%MOMM*%
%LPD*%
G01*
G04 APERTURE LIST*
G04 Aperture macros list*
%AMRoundRect*
0 Rectangle with rounded corners*
0 $1 Rounding radius*
0 $2 $3 $4 $5 $6 $7 $8 $9 X,Y pos of 4 corners*
0 Add a 4 corners polygon primitive as box body*
4,1,4,$2,$3,$4,$5,$6,$7,$8,$9,$2,$3,0*
0 Add four circle primitives for the rounded corners*
1,1,$1+$1,$2,$3*
1,1,$1+$1,$4,$5*
1,1,$1+$1,$6,$7*
1,1,$1+$1,$8,$9*
0 Add four rect primitives between the rounded corners*
20,1,$1+$1,$2,$3,$4,$5,0*
20,1,$1+$1,$4,$5,$6,$7,0*
20,1,$1+$1,$6,$7,$8,$9,0*
20,1,$1+$1,$8,$9,$2,$3,0*%
G04 Aperture macros list end*
G04 #@! TA.AperFunction,SMDPad,CuDef*
%ADD10RoundRect,0.225000X-0.225000X-0.250000X0.225000X-0.250000X0.225000X0.250000X-0.225000X0.250000X0*%
G04 #@! TD*
G04 #@! TA.AperFunction,SMDPad,CuDef*
%ADD11RoundRect,0.225000X0.250000X-0.225000X0.250000X0.225000X-0.250000X0.225000X-0.250000X-0.225000X0*%
G04 #@! TD*
G04 #@! TA.AperFunction,SMDPad,CuDef*
%ADD12RoundRect,0.200000X-0.200000X-0.275000X0.200000X-0.275000X0.200000X0.275000X-0.200000X0.275000X0*%
G04 #@! TD*
G04 #@! TA.AperFunction,ComponentPad*
%ADD13RoundRect,0.200100X-0.949900X0.949900X-0.949900X-0.949900X0.949900X-0.949900X0.949900X0.949900X0*%
G04 #@! TD*
G04 #@! TA.AperFunction,ComponentPad*
%ADD14C,2.500000*%
G04 #@! TD*
G04 #@! TA.AperFunction,SMDPad,CuDef*
%ADD15RoundRect,0.200000X-0.275000X0.200000X-0.275000X-0.200000X0.275000X-0.200000X0.275000X0.200000X0*%
G04 #@! TD*
G04 #@! TA.AperFunction,SMDPad,CuDef*
%ADD16RoundRect,0.225000X-0.250000X0.225000X-0.250000X-0.225000X0.250000X-0.225000X0.250000X0.225000X0*%
G04 #@! TD*
G04 #@! TA.AperFunction,ComponentPad*
%ADD17R,1.700000X1.700000*%
G04 #@! TD*
G04 #@! TA.AperFunction,ComponentPad*
%ADD18O,1.700000X1.700000*%
G04 #@! TD*
G04 #@! TA.AperFunction,ComponentPad*
%ADD19C,1.500000*%
G04 #@! TD*
G04 #@! TA.AperFunction,SMDPad,CuDef*
%ADD20RoundRect,0.150000X-0.512500X-0.150000X0.512500X-0.150000X0.512500X0.150000X-0.512500X0.150000X0*%
G04 #@! TD*
G04 #@! TA.AperFunction,SMDPad,CuDef*
%ADD21R,0.650000X0.400000*%
G04 #@! TD*
G04 #@! TA.AperFunction,SMDPad,CuDef*
%ADD22RoundRect,0.200000X0.275000X-0.200000X0.275000X0.200000X-0.275000X0.200000X-0.275000X-0.200000X0*%
G04 #@! TD*
G04 #@! TA.AperFunction,SMDPad,CuDef*
%ADD23RoundRect,0.225000X0.225000X0.250000X-0.225000X0.250000X-0.225000X-0.250000X0.225000X-0.250000X0*%
G04 #@! TD*
G04 #@! TA.AperFunction,SMDPad,CuDef*
%ADD24R,1.600000X0.550000*%
G04 #@! TD*
G04 #@! TA.AperFunction,SMDPad,CuDef*
%ADD25R,0.550000X1.600000*%
G04 #@! TD*
G04 #@! TA.AperFunction,SMDPad,CuDef*
%ADD26RoundRect,0.200000X0.200000X0.275000X-0.200000X0.275000X-0.200000X-0.275000X0.200000X-0.275000X0*%
G04 #@! TD*
G04 #@! TA.AperFunction,SMDPad,CuDef*
%ADD27RoundRect,0.218750X0.256250X-0.218750X0.256250X0.218750X-0.256250X0.218750X-0.256250X-0.218750X0*%
G04 #@! TD*
G04 #@! TA.AperFunction,ViaPad*
%ADD28C,0.800000*%
G04 #@! TD*
G04 #@! TA.AperFunction,Conductor*
%ADD29C,1.500000*%
G04 #@! TD*
G04 #@! TA.AperFunction,Conductor*
%ADD30C,0.250000*%
G04 #@! TD*
G04 #@! TA.AperFunction,Conductor*
%ADD31C,0.800000*%
G04 #@! TD*
G04 #@! TA.AperFunction,Conductor*
%ADD32C,0.600000*%
G04 #@! TD*
G04 APERTURE END LIST*
D10*
X148225000Y-87850000D03*
X149775000Y-87850000D03*
D11*
X129780000Y-99195000D03*
X129780000Y-97645000D03*
D12*
X143310000Y-109010000D03*
X144960000Y-109010000D03*
D13*
X153750000Y-79000000D03*
D14*
X156290000Y-76460000D03*
X151210000Y-76460000D03*
X156290000Y-81540000D03*
X151210000Y-81540000D03*
D15*
X134925649Y-77264165D03*
X134925649Y-78914165D03*
D16*
X136137119Y-112788400D03*
X136137119Y-114338400D03*
D17*
X140970000Y-114230000D03*
D18*
X143510000Y-114230000D03*
D17*
X125000000Y-80000000D03*
X148590000Y-114230000D03*
D18*
X151130000Y-114230000D03*
D11*
X128750918Y-113233408D03*
X128750918Y-111683408D03*
D19*
X133050000Y-104450000D03*
X128150000Y-104450000D03*
D17*
X162500000Y-101190000D03*
D18*
X162500000Y-103730000D03*
X162500000Y-106270000D03*
X162500000Y-108810000D03*
D20*
X131482500Y-110740000D03*
X131482500Y-111690000D03*
X131482500Y-112640000D03*
X133757500Y-112640000D03*
X133757500Y-110740000D03*
D11*
X136158007Y-110431205D03*
X136158007Y-108881205D03*
D21*
X144780000Y-87300000D03*
X144780000Y-87950000D03*
X144780000Y-88600000D03*
X146680000Y-88600000D03*
X146680000Y-87950000D03*
X146680000Y-87300000D03*
D17*
X125000000Y-75000000D03*
D18*
X127540000Y-75000000D03*
D22*
X145500000Y-80575000D03*
X145500000Y-78925000D03*
D17*
X125000000Y-92915000D03*
D18*
X125000000Y-95455000D03*
X125000000Y-97995000D03*
D17*
X125000000Y-114230000D03*
D18*
X125000000Y-111690000D03*
D20*
X141395000Y-78870000D03*
X141395000Y-79820000D03*
X141395000Y-80770000D03*
X143670000Y-80770000D03*
X143670000Y-79820000D03*
X143670000Y-78870000D03*
D15*
X145500000Y-81925000D03*
X145500000Y-83575000D03*
D17*
X125000000Y-85525000D03*
D18*
X125000000Y-88065000D03*
D17*
X162500000Y-96000000D03*
D18*
X162500000Y-93460000D03*
X162500000Y-90920000D03*
X162500000Y-88380000D03*
D10*
X133125000Y-100650000D03*
X134675000Y-100650000D03*
D23*
X148775000Y-79000000D03*
X147225000Y-79000000D03*
D24*
X139230000Y-95150000D03*
X139230000Y-95950000D03*
X139230000Y-96750000D03*
X139230000Y-97550000D03*
X139230000Y-98350000D03*
X139230000Y-99150000D03*
X139230000Y-99950000D03*
X139230000Y-100750000D03*
D25*
X140680000Y-102200000D03*
X141480000Y-102200000D03*
X142280000Y-102200000D03*
X143080000Y-102200000D03*
X143880000Y-102200000D03*
X144680000Y-102200000D03*
X145480000Y-102200000D03*
X146280000Y-102200000D03*
D24*
X147730000Y-100750000D03*
X147730000Y-99950000D03*
X147730000Y-99150000D03*
X147730000Y-98350000D03*
X147730000Y-97550000D03*
X147730000Y-96750000D03*
X147730000Y-95950000D03*
X147730000Y-95150000D03*
D25*
X146280000Y-93700000D03*
X145480000Y-93700000D03*
X144680000Y-93700000D03*
X143880000Y-93700000D03*
X143080000Y-93700000D03*
X142280000Y-93700000D03*
X141480000Y-93700000D03*
X140680000Y-93700000D03*
D16*
X137000000Y-77250000D03*
X137000000Y-78800000D03*
D26*
X149415000Y-109150000D03*
X147765000Y-109150000D03*
D27*
X139600000Y-79787500D03*
X139600000Y-78212500D03*
D28*
X143250000Y-88500000D03*
X137587299Y-98412701D03*
X136200000Y-97450000D03*
X150000000Y-100000000D03*
X142290000Y-87440000D03*
X155000000Y-87500000D03*
X134800000Y-80600000D03*
X140137119Y-108740000D03*
X144750000Y-90500000D03*
X157500000Y-91000000D03*
D29*
X149194156Y-79000000D02*
X153750000Y-79000000D01*
D30*
X139230000Y-100750000D02*
X137600000Y-100750000D01*
X133600000Y-99300000D02*
X133125000Y-99775000D01*
X133125000Y-100650000D02*
X133125000Y-104375000D01*
X136150000Y-99300000D02*
X133600000Y-99300000D01*
X133125000Y-104375000D02*
X133050000Y-104450000D01*
X133125000Y-99775000D02*
X133125000Y-100650000D01*
X137600000Y-100750000D02*
X136150000Y-99300000D01*
X141395000Y-79820000D02*
X139632500Y-79820000D01*
X147730000Y-97550000D02*
X149450000Y-97550000D01*
X139230000Y-98350000D02*
X137650000Y-98350000D01*
X143800000Y-87950000D02*
X143250000Y-88500000D01*
X144780000Y-87950000D02*
X143800000Y-87950000D01*
X139632500Y-79820000D02*
X139600000Y-79787500D01*
X137650000Y-98350000D02*
X137587299Y-98412701D01*
X128150000Y-100825000D02*
X129780000Y-99195000D01*
X128150000Y-104450000D02*
X128150000Y-100825000D01*
X137436396Y-99950000D02*
X136336396Y-98850000D01*
X132800000Y-98850000D02*
X132455000Y-99195000D01*
X136336396Y-98850000D02*
X132800000Y-98850000D01*
X129780000Y-99195000D02*
X132455000Y-99195000D01*
X137436396Y-99950000D02*
X139230000Y-99950000D01*
X131098248Y-110740000D02*
X128750918Y-113087330D01*
X128750918Y-113087330D02*
X128750918Y-113233408D01*
X128750918Y-113233408D02*
X130598408Y-113233408D01*
X127754326Y-114230000D02*
X128750918Y-113233408D01*
X128750918Y-113233408D02*
X130889092Y-113233408D01*
X150000000Y-100000000D02*
X147780000Y-100000000D01*
X139230000Y-97550000D02*
X136300000Y-97550000D01*
X131482500Y-110740000D02*
X131098248Y-110740000D01*
X147780000Y-100000000D02*
X147730000Y-99950000D01*
X125000000Y-114230000D02*
X127754326Y-114230000D01*
X136300000Y-97550000D02*
X136200000Y-97450000D01*
X130889092Y-113233408D02*
X131482500Y-112640000D01*
X135988719Y-112640000D02*
X136137119Y-112788400D01*
X133757500Y-112640000D02*
X135988719Y-112640000D01*
X132661484Y-75000000D02*
X134925649Y-77264165D01*
X127540000Y-75000000D02*
X132661484Y-75000000D01*
X136985835Y-77264165D02*
X137000000Y-77250000D01*
X134925649Y-77264165D02*
X136985835Y-77264165D01*
X146750000Y-87880000D02*
X146680000Y-87950000D01*
X141395000Y-83995000D02*
X142950000Y-85550000D01*
X141395000Y-80770000D02*
X141395000Y-83995000D01*
X148225000Y-86475000D02*
X148225000Y-87850000D01*
X146680000Y-87950000D02*
X148125000Y-87950000D01*
X141395000Y-83995000D02*
X137000000Y-79600000D01*
X137000000Y-79600000D02*
X137000000Y-78800000D01*
X142950000Y-85550000D02*
X147300000Y-85550000D01*
X148125000Y-87950000D02*
X148225000Y-87850000D01*
X147300000Y-85550000D02*
X148225000Y-86475000D01*
X133757500Y-110740000D02*
X135849212Y-110740000D01*
X143670000Y-79820000D02*
X144745000Y-79820000D01*
D31*
X145500000Y-81925000D02*
X145500000Y-80575000D01*
D30*
X144745000Y-79820000D02*
X145500000Y-80575000D01*
X144780000Y-87300000D02*
X146680000Y-87300000D01*
X152425000Y-87500000D02*
X155000000Y-87500000D01*
X138445914Y-110431205D02*
X140137119Y-108740000D01*
X135849212Y-110740000D02*
X136158007Y-110431205D01*
X136158007Y-110431205D02*
X138445914Y-110431205D01*
X134800000Y-79039814D02*
X134925649Y-78914165D01*
X145500000Y-80575000D02*
X152425000Y-87500000D01*
X134800000Y-80600000D02*
X134800000Y-79039814D01*
X142290000Y-87440000D02*
X142430000Y-87300000D01*
X142430000Y-87300000D02*
X144780000Y-87300000D01*
X162500000Y-101190000D02*
X148170000Y-101190000D01*
X148170000Y-101190000D02*
X147730000Y-100750000D01*
X162060000Y-100750000D02*
X162500000Y-101190000D01*
X147650000Y-105000000D02*
X146280000Y-103630000D01*
X150000000Y-105000000D02*
X147650000Y-105000000D01*
X146280000Y-102200000D02*
X146280000Y-103630000D01*
X151270000Y-103730000D02*
X150000000Y-105000000D01*
X162500000Y-103730000D02*
X151270000Y-103730000D01*
X145480000Y-102200000D02*
X145480000Y-104580000D01*
X162500000Y-106270000D02*
X147170000Y-106270000D01*
X147170000Y-106270000D02*
X145480000Y-104580000D01*
X144680000Y-104416396D02*
X144680000Y-102200000D01*
X151310000Y-108810000D02*
X150000000Y-107500000D01*
X147763604Y-107500000D02*
X144680000Y-104416396D01*
X162500000Y-108810000D02*
X151310000Y-108810000D01*
X150000000Y-107500000D02*
X147763604Y-107500000D01*
X142280000Y-90220000D02*
X142280000Y-93700000D01*
X137585000Y-85525000D02*
X142280000Y-90220000D01*
X125000000Y-85525000D02*
X137585000Y-85525000D01*
X141480000Y-90290000D02*
X141480000Y-93700000D01*
X139255000Y-88065000D02*
X141480000Y-90290000D01*
X125000000Y-88065000D02*
X139255000Y-88065000D01*
X143080000Y-90010000D02*
X143080000Y-93700000D01*
X125000000Y-80000000D02*
X133070000Y-80000000D01*
X133070000Y-80000000D02*
X143080000Y-90010000D01*
X141395000Y-78870000D02*
X140257500Y-78870000D01*
X140257500Y-78870000D02*
X139600000Y-78212500D01*
D32*
X143670000Y-80770000D02*
X143670000Y-82920000D01*
X143670000Y-82920000D02*
X144325000Y-83575000D01*
X144325000Y-83575000D02*
X145500000Y-83575000D01*
D30*
X143880000Y-104350000D02*
X143880000Y-102200000D01*
X147765000Y-108235000D02*
X147765000Y-109150000D01*
X148590000Y-114230000D02*
X148590000Y-111565000D01*
X148590000Y-111565000D02*
X147765000Y-110740000D01*
X143880000Y-104350000D02*
X147765000Y-108235000D01*
X147765000Y-110740000D02*
X147765000Y-109150000D01*
X143115000Y-102235000D02*
X143080000Y-102200000D01*
X140970000Y-112285000D02*
X140970000Y-114230000D01*
X143080000Y-102200000D02*
X143080000Y-105580000D01*
X141805000Y-111450000D02*
X140970000Y-112285000D01*
X144960000Y-110235000D02*
X143745000Y-111450000D01*
X143745000Y-111450000D02*
X141805000Y-111450000D01*
X143080000Y-105580000D02*
X144960000Y-107460000D01*
X144960000Y-107460000D02*
X144960000Y-109010000D01*
X144960000Y-109010000D02*
X144960000Y-110235000D01*
X145575000Y-79000000D02*
X145500000Y-78925000D01*
D31*
X147225000Y-79000000D02*
X145575000Y-79000000D01*
D32*
X143670000Y-78870000D02*
X145445000Y-78870000D01*
D30*
X145445000Y-78870000D02*
X145500000Y-78925000D01*
X125000000Y-95455000D02*
X125305000Y-95150000D01*
X125305000Y-95150000D02*
X139230000Y-95150000D01*
X125000000Y-97995000D02*
X126965000Y-97995000D01*
X129010000Y-95950000D02*
X139230000Y-95950000D01*
X126965000Y-97995000D02*
X129010000Y-95950000D01*
X146680000Y-88600000D02*
X147580000Y-89500000D01*
X147580000Y-89500000D02*
X161380000Y-89500000D01*
X146680000Y-88600000D02*
X146680000Y-90335000D01*
X146680000Y-90335000D02*
X144680000Y-92335000D01*
X161380000Y-89500000D02*
X162500000Y-88380000D01*
X144680000Y-92810000D02*
X144680000Y-93700000D01*
X144680000Y-92335000D02*
X144680000Y-93700000D01*
X143880000Y-89630000D02*
X144750000Y-90500000D01*
X143880000Y-91750000D02*
X143880000Y-91370000D01*
X157500000Y-91000000D02*
X157580000Y-90920000D01*
X143880000Y-92000000D02*
X143880000Y-93700000D01*
X143880000Y-89500000D02*
X143880000Y-92000000D01*
X157580000Y-90920000D02*
X162500000Y-90920000D01*
X143880000Y-89630000D02*
X143880000Y-91750000D01*
X143880000Y-91750000D02*
X143880000Y-92000000D01*
X143880000Y-89500000D02*
X143880000Y-89630000D01*
X144780000Y-88600000D02*
X143880000Y-89500000D01*
G04 #@! TA.AperFunction,Conductor*
G36*
X138088808Y-98195185D02*
G01*
X138096080Y-98200233D01*
X138163540Y-98250733D01*
X138205411Y-98306667D01*
X138210395Y-98376358D01*
X138176910Y-98437681D01*
X138163540Y-98449266D01*
X138072456Y-98517451D01*
X138072454Y-98517454D01*
X138047856Y-98550312D01*
X137991924Y-98592182D01*
X137948591Y-98600000D01*
X137930000Y-98600000D01*
X137930000Y-98672844D01*
X137936619Y-98734398D01*
X137936620Y-98760909D01*
X137935909Y-98767514D01*
X137935909Y-98767517D01*
X137929500Y-98827127D01*
X137929500Y-99033498D01*
X137929501Y-99200500D01*
X137909817Y-99267539D01*
X137857013Y-99313294D01*
X137805501Y-99324500D01*
X137746848Y-99324500D01*
X137679809Y-99304815D01*
X137659167Y-99288181D01*
X136837199Y-98466212D01*
X136827376Y-98453950D01*
X136827155Y-98454134D01*
X136822182Y-98448123D01*
X136771760Y-98400773D01*
X136758165Y-98387178D01*
X136724683Y-98325853D01*
X136729670Y-98256162D01*
X136771544Y-98200230D01*
X136837009Y-98175816D01*
X136845850Y-98175500D01*
X138021769Y-98175500D01*
X138088808Y-98195185D01*
G37*
G04 #@! TD.AperFunction*
G04 #@! TA.AperFunction,Conductor*
G36*
X143898039Y-87945185D02*
G01*
X143943794Y-87997989D01*
X143955000Y-88049500D01*
X143955000Y-88197844D01*
X143961619Y-88259398D01*
X143961620Y-88285909D01*
X143960909Y-88292514D01*
X143960909Y-88292517D01*
X143954500Y-88352127D01*
X143954500Y-88352133D01*
X143954500Y-88352135D01*
X143954500Y-88489546D01*
X143934815Y-88556585D01*
X143918181Y-88577227D01*
X143496208Y-88999199D01*
X143483951Y-89009020D01*
X143484134Y-89009241D01*
X143478123Y-89014213D01*
X143430772Y-89064636D01*
X143409889Y-89085519D01*
X143409877Y-89085532D01*
X143405621Y-89091017D01*
X143401837Y-89095447D01*
X143369937Y-89129418D01*
X143369936Y-89129420D01*
X143360284Y-89146976D01*
X143349609Y-89163227D01*
X143334566Y-89182623D01*
X143277926Y-89223533D01*
X143208160Y-89227328D01*
X143148901Y-89194310D01*
X142826252Y-88871661D01*
X142472276Y-88517686D01*
X142438792Y-88456364D01*
X142443776Y-88386673D01*
X142485647Y-88330739D01*
X142534174Y-88308716D01*
X142569803Y-88301144D01*
X142742730Y-88224151D01*
X142895871Y-88112888D01*
X143022533Y-87972216D01*
X143022533Y-87972215D01*
X143026881Y-87967387D01*
X143028922Y-87969224D01*
X143074658Y-87933952D01*
X143119655Y-87925500D01*
X143831000Y-87925500D01*
X143898039Y-87945185D01*
G37*
G04 #@! TD.AperFunction*
G04 #@! TA.AperFunction,Conductor*
G36*
X158170016Y-76724092D02*
G01*
X158225520Y-76766532D01*
X158249268Y-76832242D01*
X158249500Y-76839826D01*
X158249500Y-81160173D01*
X158229815Y-81227212D01*
X158177011Y-81272967D01*
X158107853Y-81282911D01*
X158044297Y-81253886D01*
X158006523Y-81195108D01*
X158004609Y-81187765D01*
X157966941Y-81022729D01*
X157871116Y-80778573D01*
X157871117Y-80778573D01*
X157739971Y-80551426D01*
X157692125Y-80491427D01*
X157041232Y-81142319D01*
X156997684Y-81060178D01*
X156877991Y-80919265D01*
X156730805Y-80807377D01*
X156688596Y-80787849D01*
X157339167Y-80137278D01*
X157167447Y-80020202D01*
X157167445Y-80020201D01*
X156931142Y-79906404D01*
X156931144Y-79906404D01*
X156680505Y-79829092D01*
X156680499Y-79829090D01*
X156421151Y-79790000D01*
X156158848Y-79790000D01*
X155899500Y-79829090D01*
X155899494Y-79829092D01*
X155648858Y-79906404D01*
X155648854Y-79906405D01*
X155578302Y-79940382D01*
X155509360Y-79951734D01*
X155445226Y-79924012D01*
X155406260Y-79866017D01*
X155400500Y-79828662D01*
X155400500Y-78171338D01*
X155420185Y-78104299D01*
X155472989Y-78058544D01*
X155542147Y-78048600D01*
X155578302Y-78059618D01*
X155648854Y-78093594D01*
X155648858Y-78093595D01*
X155899494Y-78170907D01*
X155899500Y-78170909D01*
X156158848Y-78209999D01*
X156158857Y-78210000D01*
X156421143Y-78210000D01*
X156421151Y-78209999D01*
X156680499Y-78170909D01*
X156680505Y-78170907D01*
X156931143Y-78093595D01*
X157167445Y-77979798D01*
X157167456Y-77979791D01*
X157339167Y-77862720D01*
X156688609Y-77212162D01*
X156807431Y-77140669D01*
X156941658Y-77013523D01*
X157044861Y-76861308D01*
X157692124Y-77508571D01*
X157739974Y-77448570D01*
X157871116Y-77221426D01*
X157966941Y-76977270D01*
X158004609Y-76812234D01*
X158038717Y-76751255D01*
X158100379Y-76718397D01*
X158170016Y-76724092D01*
G37*
G04 #@! TD.AperFunction*
G04 #@! TA.AperFunction,Conductor*
G36*
X165942539Y-71020185D02*
G01*
X165988294Y-71072989D01*
X165999500Y-71124500D01*
X165999500Y-117875500D01*
X165979815Y-117942539D01*
X165927011Y-117988294D01*
X165875500Y-117999500D01*
X122124500Y-117999500D01*
X122057461Y-117979815D01*
X122011706Y-117927011D01*
X122000500Y-117875500D01*
X122000500Y-115127870D01*
X123649500Y-115127870D01*
X123649501Y-115127876D01*
X123655908Y-115187483D01*
X123706202Y-115322328D01*
X123706206Y-115322335D01*
X123792452Y-115437544D01*
X123792455Y-115437547D01*
X123907664Y-115523793D01*
X123907671Y-115523797D01*
X124042517Y-115574091D01*
X124042516Y-115574091D01*
X124049444Y-115574835D01*
X124102127Y-115580500D01*
X125897872Y-115580499D01*
X125957483Y-115574091D01*
X126092331Y-115523796D01*
X126207546Y-115437546D01*
X126293796Y-115322331D01*
X126344091Y-115187483D01*
X126350500Y-115127873D01*
X126350500Y-114979500D01*
X126370185Y-114912461D01*
X126422989Y-114866706D01*
X126474500Y-114855500D01*
X127671583Y-114855500D01*
X127687203Y-114857224D01*
X127687230Y-114856939D01*
X127694986Y-114857671D01*
X127694993Y-114857673D01*
X127764140Y-114855500D01*
X127793676Y-114855500D01*
X127800554Y-114854630D01*
X127806367Y-114854172D01*
X127852953Y-114852709D01*
X127872195Y-114847117D01*
X127891238Y-114843174D01*
X127911118Y-114840664D01*
X127954448Y-114823507D01*
X127959972Y-114821617D01*
X127963722Y-114820527D01*
X128004716Y-114808618D01*
X128021955Y-114798422D01*
X128039429Y-114789862D01*
X128058053Y-114782488D01*
X128058053Y-114782487D01*
X128058058Y-114782486D01*
X128095775Y-114755082D01*
X128100631Y-114751892D01*
X128140746Y-114728170D01*
X128154915Y-114713999D01*
X128169705Y-114701368D01*
X128185913Y-114689594D01*
X128215625Y-114653676D01*
X128219538Y-114649376D01*
X128280514Y-114588400D01*
X135162120Y-114588400D01*
X135162120Y-114611722D01*
X135172263Y-114711007D01*
X135225571Y-114871881D01*
X135225576Y-114871892D01*
X135314543Y-115016128D01*
X135314546Y-115016132D01*
X135434386Y-115135972D01*
X135434390Y-115135975D01*
X135578626Y-115224942D01*
X135578637Y-115224947D01*
X135739512Y-115278255D01*
X135838802Y-115288399D01*
X135887118Y-115288398D01*
X135887119Y-115288398D01*
X135887119Y-114588400D01*
X136387119Y-114588400D01*
X136387119Y-115288399D01*
X136435427Y-115288399D01*
X136435441Y-115288398D01*
X136534726Y-115278255D01*
X136695600Y-115224947D01*
X136695611Y-115224942D01*
X136839847Y-115135975D01*
X136839851Y-115135972D01*
X136959691Y-115016132D01*
X136959694Y-115016128D01*
X137048661Y-114871892D01*
X137048666Y-114871881D01*
X137101974Y-114711006D01*
X137112118Y-114611722D01*
X137112119Y-114611709D01*
X137112119Y-114588400D01*
X136387119Y-114588400D01*
X135887119Y-114588400D01*
X135162120Y-114588400D01*
X128280514Y-114588400D01*
X128648689Y-114220226D01*
X128710012Y-114186741D01*
X128736370Y-114183907D01*
X129049256Y-114183907D01*
X129049262Y-114183907D01*
X129049270Y-114183906D01*
X129049273Y-114183906D01*
X129103678Y-114178348D01*
X129148626Y-114173757D01*
X129309615Y-114120411D01*
X129453962Y-114031376D01*
X129573886Y-113911452D01*
X129573889Y-113911446D01*
X129578194Y-113906003D01*
X129635214Y-113865623D01*
X129675465Y-113858908D01*
X130806349Y-113858908D01*
X130821969Y-113860632D01*
X130821996Y-113860347D01*
X130829752Y-113861079D01*
X130829759Y-113861081D01*
X130898906Y-113858908D01*
X130928442Y-113858908D01*
X130935320Y-113858038D01*
X130941133Y-113857580D01*
X130987719Y-113856117D01*
X131006961Y-113850525D01*
X131026004Y-113846582D01*
X131045884Y-113844072D01*
X131089214Y-113826915D01*
X131094738Y-113825025D01*
X131098488Y-113823935D01*
X131139482Y-113812026D01*
X131156721Y-113801830D01*
X131174195Y-113793270D01*
X131192819Y-113785896D01*
X131192819Y-113785895D01*
X131192824Y-113785894D01*
X131230541Y-113758490D01*
X131235397Y-113755300D01*
X131275512Y-113731578D01*
X131289681Y-113717407D01*
X131304471Y-113704776D01*
X131320679Y-113693002D01*
X131350391Y-113657084D01*
X131354304Y-113652784D01*
X131530272Y-113476817D01*
X131591595Y-113443334D01*
X131617952Y-113440500D01*
X132060696Y-113440500D01*
X132079131Y-113439049D01*
X132097569Y-113437598D01*
X132097571Y-113437597D01*
X132097573Y-113437597D01*
X132139191Y-113425505D01*
X132255398Y-113391744D01*
X132396865Y-113308081D01*
X132513081Y-113191865D01*
X132513267Y-113191549D01*
X132513477Y-113191353D01*
X132517861Y-113185702D01*
X132518772Y-113186409D01*
X132564336Y-113143866D01*
X132633077Y-113131362D01*
X132697667Y-113158006D01*
X132721855Y-113185921D01*
X132722139Y-113185702D01*
X132726179Y-113190911D01*
X132726732Y-113191548D01*
X132726919Y-113191865D01*
X132726921Y-113191867D01*
X132726923Y-113191870D01*
X132843129Y-113308076D01*
X132843133Y-113308079D01*
X132843135Y-113308081D01*
X132984602Y-113391744D01*
X133026224Y-113403836D01*
X133142426Y-113437597D01*
X133142429Y-113437597D01*
X133142431Y-113437598D01*
X133154722Y-113438565D01*
X133179304Y-113440500D01*
X133179306Y-113440500D01*
X134335696Y-113440500D01*
X134354131Y-113439049D01*
X134372569Y-113437598D01*
X134372571Y-113437597D01*
X134372573Y-113437597D01*
X134414191Y-113425505D01*
X134530398Y-113391744D01*
X134671865Y-113308081D01*
X134671870Y-113308076D01*
X134678128Y-113301819D01*
X134739451Y-113268334D01*
X134765809Y-113265500D01*
X135121000Y-113265500D01*
X135188039Y-113285185D01*
X135226538Y-113324403D01*
X135314148Y-113466440D01*
X135314151Y-113466444D01*
X135323779Y-113476072D01*
X135357264Y-113537395D01*
X135352280Y-113607087D01*
X135323782Y-113651431D01*
X135314547Y-113660665D01*
X135314543Y-113660671D01*
X135225576Y-113804907D01*
X135225571Y-113804918D01*
X135172263Y-113965793D01*
X135162119Y-114065077D01*
X135162119Y-114088400D01*
X137112118Y-114088400D01*
X137112118Y-114065092D01*
X137112117Y-114065077D01*
X137101974Y-113965792D01*
X137048666Y-113804918D01*
X137048661Y-113804907D01*
X136959694Y-113660671D01*
X136959691Y-113660667D01*
X136950458Y-113651434D01*
X136916973Y-113590111D01*
X136921957Y-113520419D01*
X136950462Y-113476068D01*
X136960087Y-113466444D01*
X137049122Y-113322097D01*
X137102468Y-113161108D01*
X137112619Y-113061745D01*
X137112618Y-112515056D01*
X137102468Y-112415692D01*
X137049122Y-112254703D01*
X137049118Y-112254697D01*
X137049117Y-112254694D01*
X136960089Y-112110359D01*
X136960086Y-112110355D01*
X136840163Y-111990432D01*
X136840159Y-111990429D01*
X136695824Y-111901401D01*
X136695818Y-111901398D01*
X136695816Y-111901397D01*
X136626171Y-111878319D01*
X136534828Y-111848051D01*
X136435465Y-111837900D01*
X135838781Y-111837900D01*
X135838763Y-111837901D01*
X135739411Y-111848050D01*
X135739408Y-111848051D01*
X135578424Y-111901396D01*
X135578413Y-111901401D01*
X135427928Y-111994223D01*
X135426634Y-111992125D01*
X135372661Y-112013906D01*
X135360536Y-112014500D01*
X134765809Y-112014500D01*
X134698770Y-111994815D01*
X134678128Y-111978181D01*
X134671870Y-111971923D01*
X134671862Y-111971917D01*
X134552618Y-111901397D01*
X134530398Y-111888256D01*
X134530397Y-111888255D01*
X134530396Y-111888255D01*
X134530393Y-111888254D01*
X134372573Y-111842402D01*
X134372567Y-111842401D01*
X134335696Y-111839500D01*
X134335694Y-111839500D01*
X133179306Y-111839500D01*
X133179304Y-111839500D01*
X133142432Y-111842401D01*
X133142426Y-111842402D01*
X132984606Y-111888254D01*
X132984603Y-111888255D01*
X132843137Y-111971917D01*
X132836969Y-111976702D01*
X132835664Y-111975019D01*
X132783954Y-112003246D01*
X132714263Y-111998251D01*
X132666558Y-111966247D01*
X132642296Y-111940000D01*
X132376815Y-111940000D01*
X132313694Y-111922732D01*
X132277618Y-111901397D01*
X132255398Y-111888256D01*
X132255397Y-111888255D01*
X132255396Y-111888255D01*
X132255393Y-111888254D01*
X132097573Y-111842402D01*
X132097567Y-111842401D01*
X132060696Y-111839500D01*
X132060694Y-111839500D01*
X131356500Y-111839500D01*
X131289461Y-111819815D01*
X131243706Y-111767011D01*
X131232500Y-111715500D01*
X131232500Y-111664500D01*
X131252185Y-111597461D01*
X131304989Y-111551706D01*
X131356500Y-111540500D01*
X132060696Y-111540500D01*
X132079131Y-111539049D01*
X132097569Y-111537598D01*
X132097571Y-111537597D01*
X132097573Y-111537597D01*
X132182424Y-111512945D01*
X132255398Y-111491744D01*
X132313694Y-111457268D01*
X132376815Y-111440000D01*
X132642294Y-111440000D01*
X132666557Y-111413752D01*
X132726518Y-111377885D01*
X132796352Y-111380129D01*
X132836012Y-111404530D01*
X132836969Y-111403298D01*
X132843132Y-111408078D01*
X132843135Y-111408081D01*
X132984602Y-111491744D01*
X133026224Y-111503836D01*
X133142426Y-111537597D01*
X133142429Y-111537597D01*
X133142431Y-111537598D01*
X133154722Y-111538565D01*
X133179304Y-111540500D01*
X133179306Y-111540500D01*
X134335696Y-111540500D01*
X134354131Y-111539049D01*
X134372569Y-111537598D01*
X134372571Y-111537597D01*
X134372573Y-111537597D01*
X134457424Y-111512945D01*
X134530398Y-111491744D01*
X134671865Y-111408081D01*
X134671870Y-111408076D01*
X134678128Y-111401819D01*
X134739451Y-111368334D01*
X134765809Y-111365500D01*
X135722019Y-111365500D01*
X135753578Y-111370592D01*
X135753676Y-111370137D01*
X135760292Y-111371553D01*
X135760297Y-111371553D01*
X135760299Y-111371554D01*
X135859662Y-111381705D01*
X136456351Y-111381704D01*
X136456359Y-111381703D01*
X136456362Y-111381703D01*
X136510767Y-111376145D01*
X136555715Y-111371554D01*
X136716704Y-111318208D01*
X136861051Y-111229173D01*
X136980975Y-111109249D01*
X136980978Y-111109243D01*
X136985283Y-111103800D01*
X137042303Y-111063420D01*
X137082554Y-111056705D01*
X138363171Y-111056705D01*
X138378791Y-111058429D01*
X138378818Y-111058144D01*
X138386574Y-111058876D01*
X138386581Y-111058878D01*
X138455728Y-111056705D01*
X138485264Y-111056705D01*
X138492142Y-111055835D01*
X138497955Y-111055377D01*
X138544541Y-111053914D01*
X138563783Y-111048322D01*
X138582826Y-111044379D01*
X138602706Y-111041869D01*
X138646036Y-111024712D01*
X138651560Y-111022822D01*
X138655310Y-111021732D01*
X138696304Y-111009823D01*
X138713543Y-110999627D01*
X138731017Y-110991067D01*
X138749641Y-110983693D01*
X138749641Y-110983692D01*
X138749646Y-110983691D01*
X138787363Y-110956287D01*
X138792219Y-110953097D01*
X138832334Y-110929375D01*
X138846503Y-110915204D01*
X138861293Y-110902573D01*
X138877501Y-110890799D01*
X138907213Y-110854881D01*
X138911126Y-110850581D01*
X140084891Y-109676819D01*
X140146214Y-109643334D01*
X140172572Y-109640500D01*
X140231763Y-109640500D01*
X140231765Y-109640500D01*
X140416922Y-109601144D01*
X140589849Y-109524151D01*
X140742990Y-109412888D01*
X140869652Y-109272216D01*
X140876705Y-109260000D01*
X142410001Y-109260000D01*
X142410001Y-109341582D01*
X142416408Y-109412102D01*
X142416409Y-109412107D01*
X142466981Y-109574396D01*
X142554927Y-109719877D01*
X142675122Y-109840072D01*
X142820604Y-109928019D01*
X142820603Y-109928019D01*
X142982894Y-109978590D01*
X142982893Y-109978590D01*
X143053408Y-109984998D01*
X143053426Y-109984999D01*
X143059999Y-109984998D01*
X143060000Y-109984998D01*
X143060000Y-109260000D01*
X142410001Y-109260000D01*
X140876705Y-109260000D01*
X140964298Y-109108284D01*
X141022793Y-108928256D01*
X141040477Y-108760000D01*
X142410000Y-108760000D01*
X143060000Y-108760000D01*
X143060000Y-108035000D01*
X143059999Y-108034999D01*
X143053436Y-108035000D01*
X143053417Y-108035001D01*
X142982897Y-108041408D01*
X142982892Y-108041409D01*
X142820603Y-108091981D01*
X142675122Y-108179927D01*
X142554927Y-108300122D01*
X142466980Y-108445604D01*
X142416409Y-108607893D01*
X142410000Y-108678427D01*
X142410000Y-108760000D01*
X141040477Y-108760000D01*
X141042579Y-108740000D01*
X141022793Y-108551744D01*
X140964298Y-108371716D01*
X140869652Y-108207784D01*
X140742990Y-108067112D01*
X140707613Y-108041409D01*
X140589853Y-107955851D01*
X140589848Y-107955848D01*
X140416926Y-107878857D01*
X140416921Y-107878855D01*
X140271120Y-107847865D01*
X140231765Y-107839500D01*
X140042473Y-107839500D01*
X140010016Y-107846398D01*
X139857316Y-107878855D01*
X139857311Y-107878857D01*
X139684389Y-107955848D01*
X139684384Y-107955851D01*
X139531248Y-108067111D01*
X139404585Y-108207785D01*
X139309940Y-108371715D01*
X139309937Y-108371722D01*
X139265464Y-108508597D01*
X139251445Y-108551744D01*
X139233798Y-108719649D01*
X139207213Y-108784263D01*
X139198158Y-108794368D01*
X138223142Y-109769386D01*
X138161819Y-109802871D01*
X138135461Y-109805705D01*
X137082554Y-109805705D01*
X137015515Y-109786020D01*
X136985283Y-109758610D01*
X136980970Y-109753155D01*
X136971347Y-109743532D01*
X136937862Y-109682209D01*
X136942846Y-109612517D01*
X136971350Y-109568167D01*
X136980579Y-109558937D01*
X136980580Y-109558936D01*
X137069549Y-109414697D01*
X137069554Y-109414686D01*
X137122862Y-109253811D01*
X137133006Y-109154527D01*
X137133007Y-109154514D01*
X137133007Y-109131205D01*
X135183008Y-109131205D01*
X135183008Y-109154527D01*
X135193151Y-109253812D01*
X135246459Y-109414686D01*
X135246464Y-109414697D01*
X135335431Y-109558933D01*
X135335434Y-109558937D01*
X135344667Y-109568170D01*
X135378152Y-109629493D01*
X135373168Y-109699185D01*
X135344670Y-109743529D01*
X135335040Y-109753158D01*
X135335036Y-109753164D01*
X135246008Y-109897499D01*
X135246003Y-109897510D01*
X135202265Y-110029504D01*
X135162492Y-110086949D01*
X135097976Y-110113772D01*
X135084559Y-110114500D01*
X134765809Y-110114500D01*
X134698770Y-110094815D01*
X134678128Y-110078181D01*
X134671870Y-110071923D01*
X134671862Y-110071917D01*
X134575890Y-110015160D01*
X134530398Y-109988256D01*
X134530397Y-109988255D01*
X134530396Y-109988255D01*
X134530393Y-109988254D01*
X134372573Y-109942402D01*
X134372567Y-109942401D01*
X134335696Y-109939500D01*
X134335694Y-109939500D01*
X133179306Y-109939500D01*
X133179304Y-109939500D01*
X133142432Y-109942401D01*
X133142426Y-109942402D01*
X132984606Y-109988254D01*
X132984603Y-109988255D01*
X132843137Y-110071917D01*
X132843129Y-110071923D01*
X132726923Y-110188129D01*
X132726914Y-110188140D01*
X132726729Y-110188455D01*
X132726519Y-110188650D01*
X132722139Y-110194298D01*
X132721227Y-110193591D01*
X132675657Y-110236136D01*
X132606915Y-110248637D01*
X132542327Y-110221988D01*
X132518143Y-110194078D01*
X132517861Y-110194298D01*
X132513823Y-110189092D01*
X132513271Y-110188455D01*
X132513085Y-110188140D01*
X132513076Y-110188129D01*
X132396870Y-110071923D01*
X132396862Y-110071917D01*
X132300890Y-110015160D01*
X132255398Y-109988256D01*
X132255397Y-109988255D01*
X132255396Y-109988255D01*
X132255393Y-109988254D01*
X132097573Y-109942402D01*
X132097567Y-109942401D01*
X132060696Y-109939500D01*
X132060694Y-109939500D01*
X130904306Y-109939500D01*
X130904304Y-109939500D01*
X130867432Y-109942401D01*
X130867426Y-109942402D01*
X130709606Y-109988254D01*
X130709603Y-109988255D01*
X130568137Y-110071917D01*
X130568129Y-110071923D01*
X130451923Y-110188129D01*
X130451917Y-110188137D01*
X130368255Y-110329603D01*
X130368254Y-110329606D01*
X130322402Y-110487426D01*
X130322401Y-110487432D01*
X130319500Y-110524304D01*
X130319500Y-110582794D01*
X130299815Y-110649833D01*
X130283181Y-110670475D01*
X129827248Y-111126407D01*
X129765925Y-111159892D01*
X129696233Y-111154908D01*
X129640300Y-111113036D01*
X129634028Y-111103823D01*
X129573489Y-111005674D01*
X129453650Y-110885835D01*
X129453646Y-110885832D01*
X129309410Y-110796865D01*
X129309399Y-110796860D01*
X129148524Y-110743552D01*
X129049240Y-110733408D01*
X129000918Y-110733408D01*
X129000918Y-111809408D01*
X128981233Y-111876447D01*
X128928429Y-111922202D01*
X128876918Y-111933408D01*
X127775919Y-111933408D01*
X127775919Y-111956730D01*
X127786062Y-112056015D01*
X127839370Y-112216889D01*
X127839375Y-112216900D01*
X127928342Y-112361136D01*
X127928345Y-112361140D01*
X127937578Y-112370373D01*
X127971063Y-112431696D01*
X127966079Y-112501388D01*
X127937581Y-112545732D01*
X127927951Y-112555361D01*
X127927947Y-112555367D01*
X127838919Y-112699702D01*
X127838914Y-112699713D01*
X127785569Y-112860698D01*
X127775418Y-112960055D01*
X127775418Y-113272954D01*
X127755733Y-113339993D01*
X127739099Y-113360635D01*
X127531554Y-113568181D01*
X127470231Y-113601666D01*
X127443873Y-113604500D01*
X126474499Y-113604500D01*
X126407460Y-113584815D01*
X126361705Y-113532011D01*
X126350499Y-113480500D01*
X126350499Y-113332129D01*
X126350498Y-113332123D01*
X126350497Y-113332116D01*
X126344091Y-113272517D01*
X126342809Y-113269081D01*
X126293797Y-113137671D01*
X126293793Y-113137664D01*
X126207547Y-113022455D01*
X126207544Y-113022452D01*
X126092335Y-112936206D01*
X126092328Y-112936202D01*
X125960401Y-112886997D01*
X125904467Y-112845126D01*
X125880050Y-112779662D01*
X125894902Y-112711389D01*
X125916053Y-112683133D01*
X126038108Y-112561078D01*
X126173600Y-112367578D01*
X126273429Y-112153492D01*
X126273432Y-112153486D01*
X126330636Y-111940000D01*
X125433686Y-111940000D01*
X125459493Y-111899844D01*
X125500000Y-111761889D01*
X125500000Y-111618111D01*
X125459493Y-111480156D01*
X125433686Y-111440000D01*
X126330636Y-111440000D01*
X126330635Y-111439999D01*
X126328869Y-111433408D01*
X127775918Y-111433408D01*
X128500918Y-111433408D01*
X128500918Y-110733408D01*
X128500917Y-110733407D01*
X128452611Y-110733408D01*
X128452593Y-110733409D01*
X128353310Y-110743552D01*
X128192436Y-110796860D01*
X128192425Y-110796865D01*
X128048189Y-110885832D01*
X128048185Y-110885835D01*
X127928345Y-111005675D01*
X127928342Y-111005679D01*
X127839375Y-111149915D01*
X127839370Y-111149926D01*
X127786062Y-111310801D01*
X127775918Y-111410085D01*
X127775918Y-111433408D01*
X126328869Y-111433408D01*
X126273432Y-111226513D01*
X126273429Y-111226507D01*
X126173600Y-111012422D01*
X126173599Y-111012420D01*
X126038113Y-110818926D01*
X126038108Y-110818920D01*
X125871082Y-110651894D01*
X125677578Y-110516399D01*
X125463492Y-110416570D01*
X125463486Y-110416567D01*
X125250000Y-110359364D01*
X125250000Y-111254498D01*
X125142315Y-111205320D01*
X125035763Y-111190000D01*
X124964237Y-111190000D01*
X124857685Y-111205320D01*
X124750000Y-111254498D01*
X124750000Y-110359364D01*
X124749999Y-110359364D01*
X124536513Y-110416567D01*
X124536507Y-110416570D01*
X124322422Y-110516399D01*
X124322420Y-110516400D01*
X124128926Y-110651886D01*
X124128920Y-110651891D01*
X123961891Y-110818920D01*
X123961886Y-110818926D01*
X123826400Y-111012420D01*
X123826399Y-111012422D01*
X123726570Y-111226507D01*
X123726567Y-111226513D01*
X123669364Y-111439999D01*
X123669364Y-111440000D01*
X124566314Y-111440000D01*
X124540507Y-111480156D01*
X124500000Y-111618111D01*
X124500000Y-111761889D01*
X124540507Y-111899844D01*
X124566314Y-111940000D01*
X123669364Y-111940000D01*
X123726567Y-112153486D01*
X123726570Y-112153492D01*
X123826399Y-112367578D01*
X123961894Y-112561082D01*
X124083946Y-112683134D01*
X124117431Y-112744457D01*
X124112447Y-112814149D01*
X124070575Y-112870082D01*
X124039598Y-112886997D01*
X123907671Y-112936202D01*
X123907664Y-112936206D01*
X123792455Y-113022452D01*
X123792452Y-113022455D01*
X123706206Y-113137664D01*
X123706202Y-113137671D01*
X123655908Y-113272517D01*
X123650340Y-113324316D01*
X123649501Y-113332123D01*
X123649500Y-113332135D01*
X123649500Y-115127870D01*
X122000500Y-115127870D01*
X122000500Y-108631205D01*
X135183007Y-108631205D01*
X135908007Y-108631205D01*
X135908007Y-107931205D01*
X136408007Y-107931205D01*
X136408007Y-108631205D01*
X137133006Y-108631205D01*
X137133006Y-108607897D01*
X137133005Y-108607882D01*
X137122862Y-108508597D01*
X137069554Y-108347723D01*
X137069549Y-108347712D01*
X136980582Y-108203476D01*
X136980579Y-108203472D01*
X136860739Y-108083632D01*
X136860735Y-108083629D01*
X136716499Y-107994662D01*
X136716488Y-107994657D01*
X136555613Y-107941349D01*
X136456329Y-107931205D01*
X136408007Y-107931205D01*
X135908007Y-107931205D01*
X135908006Y-107931204D01*
X135859700Y-107931205D01*
X135859682Y-107931206D01*
X135760399Y-107941349D01*
X135599525Y-107994657D01*
X135599514Y-107994662D01*
X135455278Y-108083629D01*
X135455274Y-108083632D01*
X135335434Y-108203472D01*
X135335431Y-108203476D01*
X135246464Y-108347712D01*
X135246459Y-108347723D01*
X135193151Y-108508598D01*
X135183007Y-108607882D01*
X135183007Y-108631205D01*
X122000500Y-108631205D01*
X122000500Y-97995000D01*
X123644341Y-97995000D01*
X123664936Y-98230403D01*
X123664938Y-98230413D01*
X123726094Y-98458655D01*
X123726096Y-98458659D01*
X123726097Y-98458663D01*
X123785763Y-98586617D01*
X123825965Y-98672830D01*
X123825967Y-98672834D01*
X123934004Y-98827125D01*
X123961505Y-98866401D01*
X124128599Y-99033495D01*
X124222864Y-99099500D01*
X124322165Y-99169032D01*
X124322167Y-99169033D01*
X124322170Y-99169035D01*
X124536337Y-99268903D01*
X124764592Y-99330063D01*
X124952918Y-99346539D01*
X124999999Y-99350659D01*
X125000000Y-99350659D01*
X125000001Y-99350659D01*
X125039234Y-99347226D01*
X125235408Y-99330063D01*
X125463663Y-99268903D01*
X125677830Y-99169035D01*
X125871401Y-99033495D01*
X126038495Y-98866401D01*
X126173652Y-98673377D01*
X126228229Y-98629752D01*
X126275227Y-98620500D01*
X126882257Y-98620500D01*
X126897877Y-98622224D01*
X126897904Y-98621939D01*
X126905660Y-98622671D01*
X126905667Y-98622673D01*
X126974814Y-98620500D01*
X127004350Y-98620500D01*
X127011228Y-98619630D01*
X127017041Y-98619172D01*
X127063627Y-98617709D01*
X127082869Y-98612117D01*
X127101912Y-98608174D01*
X127121792Y-98605664D01*
X127165122Y-98588507D01*
X127170646Y-98586617D01*
X127174396Y-98585527D01*
X127215390Y-98573618D01*
X127232629Y-98563422D01*
X127250103Y-98554862D01*
X127268727Y-98547488D01*
X127268727Y-98547487D01*
X127268732Y-98547486D01*
X127306449Y-98520082D01*
X127311305Y-98516892D01*
X127351420Y-98493170D01*
X127365589Y-98478999D01*
X127380379Y-98466368D01*
X127396587Y-98454594D01*
X127426299Y-98418676D01*
X127430212Y-98414376D01*
X128596325Y-97248264D01*
X128657647Y-97214780D01*
X128727339Y-97219764D01*
X128783272Y-97261636D01*
X128807689Y-97327100D01*
X128807363Y-97348546D01*
X128805001Y-97371670D01*
X128805000Y-97371690D01*
X128805000Y-97395000D01*
X130754999Y-97395000D01*
X130754999Y-97371692D01*
X130754998Y-97371677D01*
X130744855Y-97272392D01*
X130691547Y-97111518D01*
X130691542Y-97111507D01*
X130602575Y-96967271D01*
X130602572Y-96967267D01*
X130482732Y-96847427D01*
X130482728Y-96847424D01*
X130414010Y-96805038D01*
X130367285Y-96753090D01*
X130356064Y-96684128D01*
X130383907Y-96620046D01*
X130441976Y-96581190D01*
X130479107Y-96575500D01*
X135497153Y-96575500D01*
X135564192Y-96595185D01*
X135609947Y-96647989D01*
X135619891Y-96717147D01*
X135590866Y-96780703D01*
X135589312Y-96782461D01*
X135549592Y-96826575D01*
X135467466Y-96917785D01*
X135372821Y-97081715D01*
X135372818Y-97081722D01*
X135314361Y-97261636D01*
X135314326Y-97261744D01*
X135294540Y-97450000D01*
X135314326Y-97638256D01*
X135314327Y-97638259D01*
X135372818Y-97818277D01*
X135372821Y-97818284D01*
X135467467Y-97982216D01*
X135478977Y-97994999D01*
X135499262Y-98017528D01*
X135529492Y-98080520D01*
X135520867Y-98149855D01*
X135476125Y-98203520D01*
X135409473Y-98224478D01*
X135407112Y-98224500D01*
X132882743Y-98224500D01*
X132867122Y-98222775D01*
X132867095Y-98223061D01*
X132859333Y-98222326D01*
X132790172Y-98224500D01*
X132760649Y-98224500D01*
X132753778Y-98225367D01*
X132747959Y-98225825D01*
X132701374Y-98227289D01*
X132701368Y-98227290D01*
X132682126Y-98232880D01*
X132663087Y-98236823D01*
X132643217Y-98239334D01*
X132643203Y-98239337D01*
X132599883Y-98256488D01*
X132594358Y-98258380D01*
X132549613Y-98271380D01*
X132549610Y-98271381D01*
X132532366Y-98281579D01*
X132514905Y-98290133D01*
X132496274Y-98297510D01*
X132496262Y-98297517D01*
X132458570Y-98324902D01*
X132453687Y-98328109D01*
X132413580Y-98351829D01*
X132399415Y-98365994D01*
X132384623Y-98378628D01*
X132368412Y-98390406D01*
X132338710Y-98426307D01*
X132334778Y-98430628D01*
X132232228Y-98533180D01*
X132170905Y-98566666D01*
X132144546Y-98569500D01*
X130704547Y-98569500D01*
X130637508Y-98549815D01*
X130607276Y-98522405D01*
X130602963Y-98516950D01*
X130593340Y-98507327D01*
X130559855Y-98446004D01*
X130564839Y-98376312D01*
X130593343Y-98331962D01*
X130602572Y-98322732D01*
X130602573Y-98322731D01*
X130691542Y-98178492D01*
X130691547Y-98178481D01*
X130744855Y-98017606D01*
X130754999Y-97918322D01*
X130755000Y-97918309D01*
X130755000Y-97895000D01*
X128805001Y-97895000D01*
X128805001Y-97918322D01*
X128815144Y-98017607D01*
X128868452Y-98178481D01*
X128868457Y-98178492D01*
X128957424Y-98322728D01*
X128957427Y-98322732D01*
X128966660Y-98331965D01*
X129000145Y-98393288D01*
X128995161Y-98462980D01*
X128966663Y-98507324D01*
X128957033Y-98516953D01*
X128957029Y-98516959D01*
X128868001Y-98661294D01*
X128867996Y-98661305D01*
X128814651Y-98822290D01*
X128804500Y-98921647D01*
X128804500Y-99234546D01*
X128784815Y-99301585D01*
X128768181Y-99322227D01*
X127766208Y-100324199D01*
X127753951Y-100334020D01*
X127754134Y-100334241D01*
X127748123Y-100339213D01*
X127700772Y-100389636D01*
X127679889Y-100410519D01*
X127679877Y-100410532D01*
X127675621Y-100416017D01*
X127671837Y-100420447D01*
X127639937Y-100454418D01*
X127639936Y-100454420D01*
X127630284Y-100471976D01*
X127619610Y-100488226D01*
X127607329Y-100504061D01*
X127607324Y-100504068D01*
X127588815Y-100546838D01*
X127586245Y-100552084D01*
X127563803Y-100592906D01*
X127558822Y-100612307D01*
X127552521Y-100630710D01*
X127544562Y-100649102D01*
X127544561Y-100649105D01*
X127537271Y-100695127D01*
X127536087Y-100700846D01*
X127524501Y-100745972D01*
X127524500Y-100745982D01*
X127524500Y-100766016D01*
X127522973Y-100785415D01*
X127519840Y-100805194D01*
X127519840Y-100805195D01*
X127524225Y-100851583D01*
X127524500Y-100857421D01*
X127524500Y-103296850D01*
X127504815Y-103363889D01*
X127471623Y-103398425D01*
X127343121Y-103488402D01*
X127188402Y-103643121D01*
X127062900Y-103822357D01*
X127062898Y-103822361D01*
X126970426Y-104020668D01*
X126970422Y-104020677D01*
X126913793Y-104232020D01*
X126913793Y-104232024D01*
X126894723Y-104449997D01*
X126894723Y-104450002D01*
X126913793Y-104667975D01*
X126913793Y-104667979D01*
X126970422Y-104879322D01*
X126970424Y-104879326D01*
X126970425Y-104879330D01*
X126987126Y-104915145D01*
X127062897Y-105077638D01*
X127075730Y-105095965D01*
X127188402Y-105256877D01*
X127343123Y-105411598D01*
X127522361Y-105537102D01*
X127720670Y-105629575D01*
X127720676Y-105629576D01*
X127720677Y-105629577D01*
X127741842Y-105635248D01*
X127932023Y-105686207D01*
X128114926Y-105702208D01*
X128149998Y-105705277D01*
X128150000Y-105705277D01*
X128150002Y-105705277D01*
X128178254Y-105702805D01*
X128367977Y-105686207D01*
X128579330Y-105629575D01*
X128777639Y-105537102D01*
X128956877Y-105411598D01*
X129111598Y-105256877D01*
X129237102Y-105077639D01*
X129329575Y-104879330D01*
X129386207Y-104667977D01*
X129405277Y-104450000D01*
X129386207Y-104232023D01*
X129329575Y-104020670D01*
X129237102Y-103822362D01*
X129237100Y-103822359D01*
X129237099Y-103822357D01*
X129111599Y-103643124D01*
X129041462Y-103572987D01*
X128956877Y-103488402D01*
X128828375Y-103398423D01*
X128784751Y-103343847D01*
X128775500Y-103296850D01*
X128775500Y-101135452D01*
X128795185Y-101068413D01*
X128811819Y-101047771D01*
X129677772Y-100181818D01*
X129739095Y-100148333D01*
X129765453Y-100145499D01*
X130078338Y-100145499D01*
X130078344Y-100145499D01*
X130078352Y-100145498D01*
X130078355Y-100145498D01*
X130132760Y-100139940D01*
X130177708Y-100135349D01*
X130338697Y-100082003D01*
X130483044Y-99992968D01*
X130602968Y-99873044D01*
X130602971Y-99873038D01*
X130607276Y-99867595D01*
X130664296Y-99827215D01*
X130704547Y-99820500D01*
X132182856Y-99820500D01*
X132249895Y-99840185D01*
X132295650Y-99892989D01*
X132305594Y-99962147D01*
X132288394Y-100009597D01*
X132238001Y-100091294D01*
X132237996Y-100091305D01*
X132184651Y-100252290D01*
X132174500Y-100351647D01*
X132174500Y-100948337D01*
X132174501Y-100948355D01*
X132184650Y-101047707D01*
X132184651Y-101047710D01*
X132237996Y-101208694D01*
X132238001Y-101208705D01*
X132327029Y-101353040D01*
X132327032Y-101353044D01*
X132446956Y-101472968D01*
X132446963Y-101472972D01*
X132452404Y-101477274D01*
X132492785Y-101534293D01*
X132499500Y-101574546D01*
X132499500Y-103247930D01*
X132479815Y-103314969D01*
X132427914Y-103360308D01*
X132422365Y-103362896D01*
X132422360Y-103362898D01*
X132243121Y-103488402D01*
X132088402Y-103643121D01*
X131962900Y-103822357D01*
X131962898Y-103822361D01*
X131870426Y-104020668D01*
X131870422Y-104020677D01*
X131813793Y-104232020D01*
X131813793Y-104232024D01*
X131794723Y-104449997D01*
X131794723Y-104450002D01*
X131813793Y-104667975D01*
X131813793Y-104667979D01*
X131870422Y-104879322D01*
X131870424Y-104879326D01*
X131870425Y-104879330D01*
X131887126Y-104915145D01*
X131962897Y-105077638D01*
X131975730Y-105095965D01*
X132088402Y-105256877D01*
X132243123Y-105411598D01*
X132422361Y-105537102D01*
X132620670Y-105629575D01*
X132620676Y-105629576D01*
X132620677Y-105629577D01*
X132641842Y-105635248D01*
X132832023Y-105686207D01*
X133014926Y-105702208D01*
X133049998Y-105705277D01*
X133050000Y-105705277D01*
X133050002Y-105705277D01*
X133078254Y-105702805D01*
X133267977Y-105686207D01*
X133479330Y-105629575D01*
X133677639Y-105537102D01*
X133856877Y-105411598D01*
X134011598Y-105256877D01*
X134137102Y-105077639D01*
X134229575Y-104879330D01*
X134286207Y-104667977D01*
X134305277Y-104450000D01*
X134286207Y-104232023D01*
X134229575Y-104020670D01*
X134137102Y-103822362D01*
X134137100Y-103822359D01*
X134137099Y-103822357D01*
X134011599Y-103643124D01*
X133941462Y-103572987D01*
X133856877Y-103488402D01*
X133856872Y-103488399D01*
X133856869Y-103488396D01*
X133803376Y-103450939D01*
X133759751Y-103396362D01*
X133750500Y-103349365D01*
X133750500Y-101574547D01*
X133770185Y-101507508D01*
X133797595Y-101477276D01*
X133803041Y-101472969D01*
X133803044Y-101472968D01*
X133812668Y-101463343D01*
X133873987Y-101429856D01*
X133943679Y-101434835D01*
X133988034Y-101463339D01*
X133997267Y-101472572D01*
X133997271Y-101472575D01*
X134141507Y-101561542D01*
X134141518Y-101561547D01*
X134302393Y-101614855D01*
X134401683Y-101624999D01*
X134425000Y-101624998D01*
X134425000Y-100900000D01*
X134925000Y-100900000D01*
X134925000Y-101624999D01*
X134948308Y-101624999D01*
X134948322Y-101624998D01*
X135047607Y-101614855D01*
X135208481Y-101561547D01*
X135208492Y-101561542D01*
X135352728Y-101472575D01*
X135352732Y-101472572D01*
X135472572Y-101352732D01*
X135472575Y-101352728D01*
X135561542Y-101208492D01*
X135561547Y-101208481D01*
X135614855Y-101047606D01*
X135624999Y-100948322D01*
X135625000Y-100948309D01*
X135625000Y-100900000D01*
X134925000Y-100900000D01*
X134425000Y-100900000D01*
X134425000Y-100524000D01*
X134444685Y-100456961D01*
X134497489Y-100411206D01*
X134549000Y-100400000D01*
X135624999Y-100400000D01*
X135624999Y-100351692D01*
X135624998Y-100351677D01*
X135614855Y-100252392D01*
X135560548Y-100088504D01*
X135558146Y-100018676D01*
X135593878Y-99958634D01*
X135656398Y-99927441D01*
X135678254Y-99925500D01*
X135839548Y-99925500D01*
X135906587Y-99945185D01*
X135927229Y-99961819D01*
X137099194Y-101133784D01*
X137109019Y-101146048D01*
X137109240Y-101145866D01*
X137114210Y-101151873D01*
X137114213Y-101151876D01*
X137114214Y-101151877D01*
X137164651Y-101199241D01*
X137185530Y-101220120D01*
X137191004Y-101224366D01*
X137195442Y-101228156D01*
X137229418Y-101260062D01*
X137229422Y-101260064D01*
X137246973Y-101269713D01*
X137263231Y-101280392D01*
X137279064Y-101292674D01*
X137301015Y-101302172D01*
X137321837Y-101311183D01*
X137327081Y-101313752D01*
X137367908Y-101336197D01*
X137387312Y-101341179D01*
X137405710Y-101347478D01*
X137424105Y-101355438D01*
X137470129Y-101362726D01*
X137475832Y-101363907D01*
X137520981Y-101375500D01*
X137541016Y-101375500D01*
X137560413Y-101377026D01*
X137580196Y-101380160D01*
X137626584Y-101375775D01*
X137632422Y-101375500D01*
X138021769Y-101375500D01*
X138088808Y-101395185D01*
X138096080Y-101400233D01*
X138135652Y-101429856D01*
X138180387Y-101463345D01*
X138187668Y-101468795D01*
X138187671Y-101468797D01*
X138322517Y-101519091D01*
X138322516Y-101519091D01*
X138329444Y-101519835D01*
X138382127Y-101525500D01*
X139780500Y-101525499D01*
X139847539Y-101545184D01*
X139893294Y-101597987D01*
X139904500Y-101649499D01*
X139904500Y-103047870D01*
X139904501Y-103047876D01*
X139910908Y-103107483D01*
X139961202Y-103242328D01*
X139961206Y-103242335D01*
X140047452Y-103357544D01*
X140047455Y-103357547D01*
X140162664Y-103443793D01*
X140162671Y-103443797D01*
X140166417Y-103445194D01*
X140297517Y-103494091D01*
X140357127Y-103500500D01*
X141002872Y-103500499D01*
X141062483Y-103494091D01*
X141062486Y-103494089D01*
X141066744Y-103493632D01*
X141093254Y-103493632D01*
X141097514Y-103494089D01*
X141097517Y-103494091D01*
X141157127Y-103500500D01*
X141802872Y-103500499D01*
X141862483Y-103494091D01*
X141862486Y-103494089D01*
X141866744Y-103493632D01*
X141893254Y-103493632D01*
X141897514Y-103494089D01*
X141897517Y-103494091D01*
X141957127Y-103500500D01*
X142330500Y-103500499D01*
X142397539Y-103520183D01*
X142443294Y-103572987D01*
X142454500Y-103624499D01*
X142454500Y-105497255D01*
X142452775Y-105512872D01*
X142453061Y-105512899D01*
X142452326Y-105520665D01*
X142454500Y-105589814D01*
X142454500Y-105619343D01*
X142454501Y-105619360D01*
X142455368Y-105626231D01*
X142455826Y-105632050D01*
X142457290Y-105678624D01*
X142457291Y-105678627D01*
X142462880Y-105697867D01*
X142466824Y-105716911D01*
X142469336Y-105736791D01*
X142486490Y-105780119D01*
X142488382Y-105785647D01*
X142501381Y-105830388D01*
X142511580Y-105847634D01*
X142520138Y-105865103D01*
X142527514Y-105883732D01*
X142554898Y-105921423D01*
X142558106Y-105926307D01*
X142581827Y-105966416D01*
X142581833Y-105966424D01*
X142595990Y-105980580D01*
X142608627Y-105995375D01*
X142620406Y-106011587D01*
X142648219Y-106034596D01*
X142656309Y-106041288D01*
X142660620Y-106045210D01*
X143510910Y-106895500D01*
X144298181Y-107682771D01*
X144331666Y-107744094D01*
X144334500Y-107770452D01*
X144334500Y-108118480D01*
X144314815Y-108185519D01*
X144298181Y-108206161D01*
X144222327Y-108282015D01*
X144161004Y-108315500D01*
X144091312Y-108310516D01*
X144046965Y-108282015D01*
X143944877Y-108179927D01*
X143799395Y-108091980D01*
X143799396Y-108091980D01*
X143637105Y-108041409D01*
X143637106Y-108041409D01*
X143566572Y-108035000D01*
X143560000Y-108035000D01*
X143560000Y-109984999D01*
X143566581Y-109984999D01*
X143637102Y-109978591D01*
X143637107Y-109978590D01*
X143799396Y-109928018D01*
X143944877Y-109840072D01*
X143944878Y-109840071D01*
X144046963Y-109737985D01*
X144108286Y-109704499D01*
X144177977Y-109709483D01*
X144222326Y-109737983D01*
X144298182Y-109813839D01*
X144331666Y-109875160D01*
X144334500Y-109901519D01*
X144334500Y-109924547D01*
X144314815Y-109991586D01*
X144298181Y-110012228D01*
X143522228Y-110788181D01*
X143460905Y-110821666D01*
X143434547Y-110824500D01*
X141887737Y-110824500D01*
X141872120Y-110822776D01*
X141872093Y-110823062D01*
X141864331Y-110822327D01*
X141795203Y-110824500D01*
X141765650Y-110824500D01*
X141764929Y-110824590D01*
X141758757Y-110825369D01*
X141752945Y-110825826D01*
X141706378Y-110827290D01*
X141706367Y-110827292D01*
X141687134Y-110832879D01*
X141668094Y-110836822D01*
X141648217Y-110839334D01*
X141648210Y-110839335D01*
X141648208Y-110839336D01*
X141648206Y-110839336D01*
X141648205Y-110839337D01*
X141604868Y-110856494D01*
X141599342Y-110858386D01*
X141554611Y-110871382D01*
X141554608Y-110871383D01*
X141537363Y-110881581D01*
X141519901Y-110890135D01*
X141501272Y-110897511D01*
X141501267Y-110897513D01*
X141463564Y-110924906D01*
X141458682Y-110928112D01*
X141418580Y-110951828D01*
X141404408Y-110966000D01*
X141389623Y-110978628D01*
X141373412Y-110990407D01*
X141343709Y-111026310D01*
X141339777Y-111030631D01*
X140586208Y-111784199D01*
X140573951Y-111794020D01*
X140574134Y-111794241D01*
X140568123Y-111799213D01*
X140520772Y-111849636D01*
X140499889Y-111870519D01*
X140499877Y-111870532D01*
X140495621Y-111876017D01*
X140491837Y-111880447D01*
X140459937Y-111914418D01*
X140459936Y-111914420D01*
X140450284Y-111931976D01*
X140439610Y-111948226D01*
X140427329Y-111964061D01*
X140427324Y-111964068D01*
X140408815Y-112006838D01*
X140406245Y-112012084D01*
X140383803Y-112052906D01*
X140378822Y-112072307D01*
X140372521Y-112090710D01*
X140364562Y-112109102D01*
X140364561Y-112109105D01*
X140357271Y-112155127D01*
X140356087Y-112160846D01*
X140344501Y-112205972D01*
X140344500Y-112205982D01*
X140344500Y-112226016D01*
X140342973Y-112245415D01*
X140339840Y-112265194D01*
X140339840Y-112265195D01*
X140344225Y-112311583D01*
X140344500Y-112317421D01*
X140344500Y-112755500D01*
X140324815Y-112822539D01*
X140272011Y-112868294D01*
X140220501Y-112879500D01*
X140072130Y-112879500D01*
X140072123Y-112879501D01*
X140012516Y-112885908D01*
X139877671Y-112936202D01*
X139877664Y-112936206D01*
X139762455Y-113022452D01*
X139762452Y-113022455D01*
X139676206Y-113137664D01*
X139676202Y-113137671D01*
X139625908Y-113272517D01*
X139620340Y-113324316D01*
X139619501Y-113332123D01*
X139619500Y-113332135D01*
X139619500Y-115127870D01*
X139619501Y-115127876D01*
X139625908Y-115187483D01*
X139676202Y-115322328D01*
X139676206Y-115322335D01*
X139762452Y-115437544D01*
X139762455Y-115437547D01*
X139877664Y-115523793D01*
X139877671Y-115523797D01*
X140012517Y-115574091D01*
X140012516Y-115574091D01*
X140019444Y-115574835D01*
X140072127Y-115580500D01*
X141867872Y-115580499D01*
X141927483Y-115574091D01*
X142062331Y-115523796D01*
X142177546Y-115437546D01*
X142263796Y-115322331D01*
X142312810Y-115190916D01*
X142354681Y-115134984D01*
X142420145Y-115110566D01*
X142488418Y-115125417D01*
X142516673Y-115146569D01*
X142638599Y-115268495D01*
X142735384Y-115336265D01*
X142832165Y-115404032D01*
X142832167Y-115404033D01*
X142832170Y-115404035D01*
X143046337Y-115503903D01*
X143274592Y-115565063D01*
X143451034Y-115580500D01*
X143509999Y-115585659D01*
X143510000Y-115585659D01*
X143510001Y-115585659D01*
X143568966Y-115580500D01*
X143745408Y-115565063D01*
X143973663Y-115503903D01*
X144187830Y-115404035D01*
X144381401Y-115268495D01*
X144548495Y-115101401D01*
X144684035Y-114907830D01*
X144783903Y-114693663D01*
X144845063Y-114465408D01*
X144865659Y-114230000D01*
X144845063Y-113994592D01*
X144783903Y-113766337D01*
X144684035Y-113552171D01*
X144661803Y-113520419D01*
X144548494Y-113358597D01*
X144381402Y-113191506D01*
X144381395Y-113191501D01*
X144380552Y-113190911D01*
X144304518Y-113137671D01*
X144187834Y-113055967D01*
X144187830Y-113055965D01*
X144175892Y-113050398D01*
X143973663Y-112956097D01*
X143973659Y-112956096D01*
X143973655Y-112956094D01*
X143745413Y-112894938D01*
X143745403Y-112894936D01*
X143510001Y-112874341D01*
X143509999Y-112874341D01*
X143274596Y-112894936D01*
X143274586Y-112894938D01*
X143046344Y-112956094D01*
X143046335Y-112956098D01*
X142832171Y-113055964D01*
X142832169Y-113055965D01*
X142638600Y-113191503D01*
X142516673Y-113313430D01*
X142455350Y-113346914D01*
X142385658Y-113341930D01*
X142329725Y-113300058D01*
X142312810Y-113269081D01*
X142263797Y-113137671D01*
X142263793Y-113137664D01*
X142177547Y-113022455D01*
X142177544Y-113022452D01*
X142062335Y-112936206D01*
X142062328Y-112936202D01*
X141927482Y-112885908D01*
X141927483Y-112885908D01*
X141867883Y-112879501D01*
X141867881Y-112879500D01*
X141867873Y-112879500D01*
X141867865Y-112879500D01*
X141719500Y-112879500D01*
X141652461Y-112859815D01*
X141606706Y-112807011D01*
X141595500Y-112755500D01*
X141595500Y-112595452D01*
X141615185Y-112528413D01*
X141631819Y-112507771D01*
X142027772Y-112111819D01*
X142089095Y-112078334D01*
X142115453Y-112075500D01*
X143662257Y-112075500D01*
X143677877Y-112077224D01*
X143677904Y-112076939D01*
X143685660Y-112077671D01*
X143685667Y-112077673D01*
X143754814Y-112075500D01*
X143784350Y-112075500D01*
X143791228Y-112074630D01*
X143797041Y-112074172D01*
X143843627Y-112072709D01*
X143862869Y-112067117D01*
X143881912Y-112063174D01*
X143901792Y-112060664D01*
X143945122Y-112043507D01*
X143950646Y-112041617D01*
X143954396Y-112040527D01*
X143995390Y-112028618D01*
X144012629Y-112018422D01*
X144030103Y-112009862D01*
X144048727Y-112002488D01*
X144048727Y-112002487D01*
X144048732Y-112002486D01*
X144086449Y-111975082D01*
X144091305Y-111971892D01*
X144131420Y-111948170D01*
X144145589Y-111933999D01*
X144160379Y-111921368D01*
X144176587Y-111909594D01*
X144206299Y-111873676D01*
X144210212Y-111869376D01*
X145343787Y-110735802D01*
X145356042Y-110725986D01*
X145355859Y-110725764D01*
X145361866Y-110720792D01*
X145361877Y-110720786D01*
X145399553Y-110680665D01*
X145409227Y-110670364D01*
X145419671Y-110659918D01*
X145430120Y-110649471D01*
X145434379Y-110643978D01*
X145438152Y-110639561D01*
X145470062Y-110605582D01*
X145479713Y-110588024D01*
X145490396Y-110571761D01*
X145502673Y-110555936D01*
X145521185Y-110513153D01*
X145523738Y-110507941D01*
X145546197Y-110467092D01*
X145551180Y-110447680D01*
X145557481Y-110429280D01*
X145565437Y-110410896D01*
X145572729Y-110364852D01*
X145573906Y-110359171D01*
X145585500Y-110314019D01*
X145585500Y-110293983D01*
X145587027Y-110274582D01*
X145590160Y-110254804D01*
X145585775Y-110208415D01*
X145585500Y-110202577D01*
X145585500Y-109901519D01*
X145605185Y-109834480D01*
X145621814Y-109813842D01*
X145715472Y-109720185D01*
X145803478Y-109574606D01*
X145854086Y-109412196D01*
X145860500Y-109341616D01*
X145860500Y-108678384D01*
X145854086Y-108607804D01*
X145803478Y-108445394D01*
X145715472Y-108299815D01*
X145715470Y-108299813D01*
X145715469Y-108299811D01*
X145621819Y-108206161D01*
X145588334Y-108144838D01*
X145585500Y-108118480D01*
X145585500Y-107542737D01*
X145587224Y-107527123D01*
X145586938Y-107527096D01*
X145587672Y-107519333D01*
X145585500Y-107450202D01*
X145585500Y-107420651D01*
X145585500Y-107420650D01*
X145584629Y-107413759D01*
X145584172Y-107407945D01*
X145582709Y-107361374D01*
X145582709Y-107361372D01*
X145577120Y-107342137D01*
X145573174Y-107323084D01*
X145570664Y-107303208D01*
X145553501Y-107259859D01*
X145551617Y-107254358D01*
X145543788Y-107227408D01*
X145543988Y-107157542D01*
X145581931Y-107098872D01*
X145645569Y-107070029D01*
X145714699Y-107080170D01*
X145750546Y-107105136D01*
X146969353Y-108323943D01*
X147002838Y-108385266D01*
X146997854Y-108454958D01*
X146987789Y-108475773D01*
X146921523Y-108585391D01*
X146870913Y-108747807D01*
X146867601Y-108784263D01*
X146864500Y-108818384D01*
X146864500Y-109481616D01*
X146865340Y-109490856D01*
X146870913Y-109552192D01*
X146870913Y-109552194D01*
X146870914Y-109552196D01*
X146921522Y-109714606D01*
X147009528Y-109860185D01*
X147103182Y-109953839D01*
X147136666Y-110015160D01*
X147139500Y-110041519D01*
X147139500Y-110657255D01*
X147137775Y-110672872D01*
X147138061Y-110672899D01*
X147137326Y-110680665D01*
X147139500Y-110749814D01*
X147139500Y-110779343D01*
X147139501Y-110779360D01*
X147140368Y-110786231D01*
X147140826Y-110792050D01*
X147142290Y-110838624D01*
X147142291Y-110838627D01*
X147147880Y-110857867D01*
X147151824Y-110876911D01*
X147154336Y-110896792D01*
X147154622Y-110897514D01*
X147171490Y-110940119D01*
X147173382Y-110945647D01*
X147184435Y-110983691D01*
X147186382Y-110990390D01*
X147186782Y-110991067D01*
X147196580Y-111007634D01*
X147205136Y-111025100D01*
X147207327Y-111030631D01*
X147212514Y-111043732D01*
X147239898Y-111081423D01*
X147243106Y-111086307D01*
X147266827Y-111126416D01*
X147266833Y-111126424D01*
X147280990Y-111140580D01*
X147293628Y-111155376D01*
X147305405Y-111171586D01*
X147305406Y-111171587D01*
X147341309Y-111201288D01*
X147345620Y-111205210D01*
X147653355Y-111512945D01*
X147928181Y-111787771D01*
X147961666Y-111849094D01*
X147964500Y-111875452D01*
X147964500Y-112755500D01*
X147944815Y-112822539D01*
X147892011Y-112868294D01*
X147840501Y-112879500D01*
X147692130Y-112879500D01*
X147692123Y-112879501D01*
X147632516Y-112885908D01*
X147497671Y-112936202D01*
X147497664Y-112936206D01*
X147382455Y-113022452D01*
X147382452Y-113022455D01*
X147296206Y-113137664D01*
X147296202Y-113137671D01*
X147245908Y-113272517D01*
X147240340Y-113324316D01*
X147239501Y-113332123D01*
X147239500Y-113332135D01*
X147239500Y-115127870D01*
X147239501Y-115127876D01*
X147245908Y-115187483D01*
X147296202Y-115322328D01*
X147296206Y-115322335D01*
X147382452Y-115437544D01*
X147382455Y-115437547D01*
X147497664Y-115523793D01*
X147497671Y-115523797D01*
X147632517Y-115574091D01*
X147632516Y-115574091D01*
X147639444Y-115574835D01*
X147692127Y-115580500D01*
X149487872Y-115580499D01*
X149547483Y-115574091D01*
X149682331Y-115523796D01*
X149797546Y-115437546D01*
X149883796Y-115322331D01*
X149932810Y-115190916D01*
X149974681Y-115134984D01*
X150040145Y-115110566D01*
X150108418Y-115125417D01*
X150136673Y-115146569D01*
X150258599Y-115268495D01*
X150355384Y-115336265D01*
X150452165Y-115404032D01*
X150452167Y-115404033D01*
X150452170Y-115404035D01*
X150666337Y-115503903D01*
X150894592Y-115565063D01*
X151071034Y-115580500D01*
X151129999Y-115585659D01*
X151130000Y-115585659D01*
X151130001Y-115585659D01*
X151188966Y-115580500D01*
X151365408Y-115565063D01*
X151593663Y-115503903D01*
X151807830Y-115404035D01*
X152001401Y-115268495D01*
X152168495Y-115101401D01*
X152304035Y-114907830D01*
X152403903Y-114693663D01*
X152465063Y-114465408D01*
X152485659Y-114230000D01*
X152465063Y-113994592D01*
X152403903Y-113766337D01*
X152304035Y-113552171D01*
X152281803Y-113520419D01*
X152168494Y-113358597D01*
X152001402Y-113191506D01*
X152001395Y-113191501D01*
X152000552Y-113190911D01*
X151924518Y-113137671D01*
X151807834Y-113055967D01*
X151807830Y-113055965D01*
X151795892Y-113050398D01*
X151593663Y-112956097D01*
X151593659Y-112956096D01*
X151593655Y-112956094D01*
X151365413Y-112894938D01*
X151365403Y-112894936D01*
X151130001Y-112874341D01*
X151129999Y-112874341D01*
X150894596Y-112894936D01*
X150894586Y-112894938D01*
X150666344Y-112956094D01*
X150666335Y-112956098D01*
X150452171Y-113055964D01*
X150452169Y-113055965D01*
X150258600Y-113191503D01*
X150136673Y-113313430D01*
X150075350Y-113346914D01*
X150005658Y-113341930D01*
X149949725Y-113300058D01*
X149932810Y-113269081D01*
X149883797Y-113137671D01*
X149883793Y-113137664D01*
X149797547Y-113022455D01*
X149797544Y-113022452D01*
X149682335Y-112936206D01*
X149682328Y-112936202D01*
X149547482Y-112885908D01*
X149547483Y-112885908D01*
X149487883Y-112879501D01*
X149487881Y-112879500D01*
X149487873Y-112879500D01*
X149487865Y-112879500D01*
X149339500Y-112879500D01*
X149272461Y-112859815D01*
X149226706Y-112807011D01*
X149215500Y-112755500D01*
X149215500Y-111647737D01*
X149217224Y-111632123D01*
X149216938Y-111632096D01*
X149217672Y-111624333D01*
X149215500Y-111555203D01*
X149215500Y-111525651D01*
X149215500Y-111525650D01*
X149214629Y-111518759D01*
X149214172Y-111512945D01*
X149212709Y-111466372D01*
X149207122Y-111447144D01*
X149203174Y-111428084D01*
X149201364Y-111413752D01*
X149200664Y-111408208D01*
X149183507Y-111364875D01*
X149181619Y-111359359D01*
X149168619Y-111314612D01*
X149158418Y-111297363D01*
X149149860Y-111279894D01*
X149142486Y-111261268D01*
X149142483Y-111261264D01*
X149142483Y-111261263D01*
X149115098Y-111223571D01*
X149111890Y-111218687D01*
X149088172Y-111178582D01*
X149088163Y-111178571D01*
X149074005Y-111164413D01*
X149061370Y-111149620D01*
X149049593Y-111133412D01*
X149013693Y-111103713D01*
X149009381Y-111099790D01*
X148426819Y-110517228D01*
X148393334Y-110455905D01*
X148390500Y-110429547D01*
X148390500Y-110041519D01*
X148410185Y-109974480D01*
X148426813Y-109953843D01*
X148502675Y-109877981D01*
X148563994Y-109844499D01*
X148633686Y-109849483D01*
X148678034Y-109877984D01*
X148780122Y-109980072D01*
X148925604Y-110068019D01*
X148925603Y-110068019D01*
X149087894Y-110118590D01*
X149087893Y-110118590D01*
X149158408Y-110124998D01*
X149158426Y-110124999D01*
X149164999Y-110124998D01*
X149165000Y-110124998D01*
X149165000Y-109400000D01*
X149665000Y-109400000D01*
X149665000Y-110124999D01*
X149671581Y-110124999D01*
X149742102Y-110118591D01*
X149742107Y-110118590D01*
X149904396Y-110068018D01*
X150049877Y-109980072D01*
X150170072Y-109859877D01*
X150258019Y-109714395D01*
X150308590Y-109552106D01*
X150315000Y-109481572D01*
X150315000Y-109400000D01*
X149665000Y-109400000D01*
X149165000Y-109400000D01*
X149165000Y-109024000D01*
X149184685Y-108956961D01*
X149237489Y-108911206D01*
X149289000Y-108900000D01*
X150314998Y-108900000D01*
X150327522Y-108887476D01*
X150388845Y-108853990D01*
X150458536Y-108858974D01*
X150502885Y-108887475D01*
X150809194Y-109193784D01*
X150819019Y-109206048D01*
X150819240Y-109205866D01*
X150824210Y-109211873D01*
X150824213Y-109211876D01*
X150824214Y-109211877D01*
X150874651Y-109259241D01*
X150895530Y-109280120D01*
X150901004Y-109284366D01*
X150905442Y-109288156D01*
X150939418Y-109320062D01*
X150939422Y-109320064D01*
X150956973Y-109329713D01*
X150973231Y-109340392D01*
X150989064Y-109352674D01*
X151011015Y-109362172D01*
X151031837Y-109371183D01*
X151037081Y-109373752D01*
X151077908Y-109396197D01*
X151097312Y-109401179D01*
X151115710Y-109407478D01*
X151134105Y-109415438D01*
X151180129Y-109422726D01*
X151185832Y-109423907D01*
X151230981Y-109435500D01*
X151251016Y-109435500D01*
X151270413Y-109437026D01*
X151290196Y-109440160D01*
X151336584Y-109435775D01*
X151342422Y-109435500D01*
X161224773Y-109435500D01*
X161291812Y-109455185D01*
X161326348Y-109488377D01*
X161461500Y-109681395D01*
X161461505Y-109681401D01*
X161628599Y-109848495D01*
X161666681Y-109875160D01*
X161822165Y-109984032D01*
X161822167Y-109984033D01*
X161822170Y-109984035D01*
X162036337Y-110083903D01*
X162264592Y-110145063D01*
X162452918Y-110161539D01*
X162499999Y-110165659D01*
X162500000Y-110165659D01*
X162500001Y-110165659D01*
X162539234Y-110162226D01*
X162735408Y-110145063D01*
X162963663Y-110083903D01*
X163177830Y-109984035D01*
X163371401Y-109848495D01*
X163538495Y-109681401D01*
X163674035Y-109487830D01*
X163773903Y-109273663D01*
X163835063Y-109045408D01*
X163855659Y-108810000D01*
X163835063Y-108574592D01*
X163774274Y-108347723D01*
X163773905Y-108346344D01*
X163773904Y-108346343D01*
X163773903Y-108346337D01*
X163674035Y-108132171D01*
X163673652Y-108131623D01*
X163538494Y-107938597D01*
X163371402Y-107771506D01*
X163371396Y-107771501D01*
X163185842Y-107641575D01*
X163142217Y-107586998D01*
X163135023Y-107517500D01*
X163166546Y-107455145D01*
X163185842Y-107438425D01*
X163323342Y-107342146D01*
X163371401Y-107308495D01*
X163538495Y-107141401D01*
X163674035Y-106947830D01*
X163773903Y-106733663D01*
X163835063Y-106505408D01*
X163855659Y-106270000D01*
X163835063Y-106034592D01*
X163773903Y-105806337D01*
X163674035Y-105592171D01*
X163673652Y-105591623D01*
X163538494Y-105398597D01*
X163371402Y-105231506D01*
X163371396Y-105231501D01*
X163185842Y-105101575D01*
X163142217Y-105046998D01*
X163135023Y-104977500D01*
X163166546Y-104915145D01*
X163185842Y-104898425D01*
X163213124Y-104879322D01*
X163371401Y-104768495D01*
X163538495Y-104601401D01*
X163674035Y-104407830D01*
X163773903Y-104193663D01*
X163835063Y-103965408D01*
X163855659Y-103730000D01*
X163835063Y-103494592D01*
X163773903Y-103266337D01*
X163674035Y-103052171D01*
X163673651Y-103051623D01*
X163538496Y-102858600D01*
X163538495Y-102858599D01*
X163416567Y-102736671D01*
X163383084Y-102675351D01*
X163388068Y-102605659D01*
X163429939Y-102549725D01*
X163460915Y-102532810D01*
X163592331Y-102483796D01*
X163707546Y-102397546D01*
X163793796Y-102282331D01*
X163844091Y-102147483D01*
X163850500Y-102087873D01*
X163850499Y-100292128D01*
X163844091Y-100232517D01*
X163812692Y-100148333D01*
X163793797Y-100097671D01*
X163793793Y-100097664D01*
X163707547Y-99982455D01*
X163707544Y-99982452D01*
X163592335Y-99896206D01*
X163592328Y-99896202D01*
X163457482Y-99845908D01*
X163457483Y-99845908D01*
X163397883Y-99839501D01*
X163397881Y-99839500D01*
X163397873Y-99839500D01*
X163397864Y-99839500D01*
X161602129Y-99839500D01*
X161602123Y-99839501D01*
X161542516Y-99845908D01*
X161407671Y-99896202D01*
X161407664Y-99896206D01*
X161292455Y-99982452D01*
X161292452Y-99982455D01*
X161206206Y-100097664D01*
X161206202Y-100097671D01*
X161155908Y-100232517D01*
X161151571Y-100272864D01*
X161149501Y-100292123D01*
X161149500Y-100292135D01*
X161149500Y-100440500D01*
X161129815Y-100507539D01*
X161077011Y-100553294D01*
X161025500Y-100564500D01*
X150928668Y-100564500D01*
X150861629Y-100544815D01*
X150815874Y-100492011D01*
X150805930Y-100422853D01*
X150821279Y-100378503D01*
X150827179Y-100368284D01*
X150885674Y-100188256D01*
X150905460Y-100000000D01*
X150885674Y-99811744D01*
X150827179Y-99631716D01*
X150732533Y-99467784D01*
X150605871Y-99327112D01*
X150605870Y-99327111D01*
X150452734Y-99215851D01*
X150452729Y-99215848D01*
X150279807Y-99138857D01*
X150279802Y-99138855D01*
X150134001Y-99107865D01*
X150094646Y-99099500D01*
X149905354Y-99099500D01*
X149872897Y-99106398D01*
X149720197Y-99138855D01*
X149720192Y-99138857D01*
X149547270Y-99215848D01*
X149547265Y-99215851D01*
X149394130Y-99327110D01*
X149394126Y-99327114D01*
X149388400Y-99333474D01*
X149328913Y-99370121D01*
X149296252Y-99374500D01*
X149154500Y-99374500D01*
X149087461Y-99354815D01*
X149041706Y-99302011D01*
X149030500Y-99250500D01*
X149030499Y-98827129D01*
X149030499Y-98827128D01*
X149024091Y-98767517D01*
X149024089Y-98767513D01*
X149023632Y-98763255D01*
X149023632Y-98736745D01*
X149024089Y-98732486D01*
X149024091Y-98732483D01*
X149030500Y-98672873D01*
X149030499Y-98027128D01*
X149024091Y-97967517D01*
X149024090Y-97967516D01*
X149023380Y-97960904D01*
X149023381Y-97934393D01*
X149029999Y-97872842D01*
X149030000Y-97872827D01*
X149030000Y-97800000D01*
X149011409Y-97800000D01*
X148944370Y-97780315D01*
X148912144Y-97750313D01*
X148887546Y-97717454D01*
X148796457Y-97649265D01*
X148754588Y-97593333D01*
X148749604Y-97523641D01*
X148783089Y-97462318D01*
X148796452Y-97450738D01*
X148887546Y-97382546D01*
X148912143Y-97349687D01*
X148968076Y-97307818D01*
X149011409Y-97300000D01*
X149030000Y-97300000D01*
X149030000Y-97227172D01*
X149029999Y-97227160D01*
X149023380Y-97165604D01*
X149023380Y-97139090D01*
X149024090Y-97132485D01*
X149024091Y-97132483D01*
X149030500Y-97072873D01*
X149030499Y-96427128D01*
X149024091Y-96367517D01*
X149024089Y-96367513D01*
X149023632Y-96363255D01*
X149023632Y-96336745D01*
X149024089Y-96332486D01*
X149024091Y-96332483D01*
X149030500Y-96272873D01*
X149030499Y-95627128D01*
X149024091Y-95567517D01*
X149024089Y-95567513D01*
X149023632Y-95563255D01*
X149023632Y-95536745D01*
X149024089Y-95532486D01*
X149024091Y-95532483D01*
X149030500Y-95472873D01*
X149030499Y-94827128D01*
X149024091Y-94767517D01*
X148974305Y-94634035D01*
X148973797Y-94632671D01*
X148973793Y-94632664D01*
X148887547Y-94517455D01*
X148887544Y-94517452D01*
X148772335Y-94431206D01*
X148772328Y-94431202D01*
X148637482Y-94380908D01*
X148637483Y-94380908D01*
X148577883Y-94374501D01*
X148577881Y-94374500D01*
X148577873Y-94374500D01*
X148577865Y-94374500D01*
X147179499Y-94374500D01*
X147112460Y-94354815D01*
X147066705Y-94302011D01*
X147055499Y-94250500D01*
X147055499Y-92852129D01*
X147055498Y-92852123D01*
X147055497Y-92852116D01*
X147049091Y-92792517D01*
X147045232Y-92782171D01*
X146998797Y-92657671D01*
X146998793Y-92657664D01*
X146912547Y-92542455D01*
X146912544Y-92542452D01*
X146797335Y-92456206D01*
X146797328Y-92456202D01*
X146662486Y-92405910D01*
X146662485Y-92405909D01*
X146662483Y-92405909D01*
X146602873Y-92399500D01*
X146602863Y-92399500D01*
X145957129Y-92399500D01*
X145957120Y-92399501D01*
X145893248Y-92406367D01*
X145866742Y-92406367D01*
X145862483Y-92405909D01*
X145802873Y-92399500D01*
X145802867Y-92399500D01*
X145799451Y-92399500D01*
X145732412Y-92379815D01*
X145686657Y-92327011D01*
X145676713Y-92257853D01*
X145705738Y-92194297D01*
X145711770Y-92187819D01*
X146278387Y-91621202D01*
X147063787Y-90835801D01*
X147076042Y-90825986D01*
X147075859Y-90825764D01*
X147081866Y-90820792D01*
X147081877Y-90820786D01*
X147112775Y-90787882D01*
X147129227Y-90770364D01*
X147139671Y-90759918D01*
X147150120Y-90749471D01*
X147154379Y-90743978D01*
X147158152Y-90739561D01*
X147190062Y-90705582D01*
X147199713Y-90688024D01*
X147210396Y-90671761D01*
X147222673Y-90655936D01*
X147241185Y-90613153D01*
X147243738Y-90607941D01*
X147266197Y-90567092D01*
X147271180Y-90547680D01*
X147277481Y-90529280D01*
X147285437Y-90510896D01*
X147292729Y-90464852D01*
X147293906Y-90459171D01*
X147305500Y-90414019D01*
X147305500Y-90393983D01*
X147307027Y-90374582D01*
X147310160Y-90354804D01*
X147305775Y-90308415D01*
X147305500Y-90302577D01*
X147305500Y-90235168D01*
X147325185Y-90168129D01*
X147377989Y-90122374D01*
X147447147Y-90112430D01*
X147460328Y-90115062D01*
X147500981Y-90125500D01*
X147521016Y-90125500D01*
X147540414Y-90127026D01*
X147560194Y-90130159D01*
X147560195Y-90130160D01*
X147560195Y-90130159D01*
X147560196Y-90130160D01*
X147606584Y-90125775D01*
X147612422Y-90125500D01*
X156797153Y-90125500D01*
X156864192Y-90145185D01*
X156909947Y-90197989D01*
X156919891Y-90267147D01*
X156890866Y-90330703D01*
X156889312Y-90332461D01*
X156869195Y-90354804D01*
X156767466Y-90467785D01*
X156672821Y-90631715D01*
X156672818Y-90631722D01*
X156634558Y-90749476D01*
X156614326Y-90811744D01*
X156594540Y-91000000D01*
X156614326Y-91188256D01*
X156614327Y-91188259D01*
X156672818Y-91368277D01*
X156672821Y-91368284D01*
X156767467Y-91532216D01*
X156894129Y-91672888D01*
X157047265Y-91784148D01*
X157047270Y-91784151D01*
X157220192Y-91861142D01*
X157220197Y-91861144D01*
X157405354Y-91900500D01*
X157405355Y-91900500D01*
X157594644Y-91900500D01*
X157594646Y-91900500D01*
X157779803Y-91861144D01*
X157952730Y-91784151D01*
X158105871Y-91672888D01*
X158183630Y-91586527D01*
X158243117Y-91549879D01*
X158275780Y-91545500D01*
X161224773Y-91545500D01*
X161291812Y-91565185D01*
X161326348Y-91598377D01*
X161461501Y-91791396D01*
X161461506Y-91791402D01*
X161628597Y-91958493D01*
X161628603Y-91958498D01*
X161814158Y-92088425D01*
X161857783Y-92143002D01*
X161864977Y-92212500D01*
X161833454Y-92274855D01*
X161814158Y-92291575D01*
X161628597Y-92421505D01*
X161461505Y-92588597D01*
X161325965Y-92782169D01*
X161325964Y-92782171D01*
X161226098Y-92996335D01*
X161226094Y-92996344D01*
X161164938Y-93224586D01*
X161164936Y-93224596D01*
X161144341Y-93459999D01*
X161144341Y-93460000D01*
X161164936Y-93695403D01*
X161164938Y-93695413D01*
X161226094Y-93923655D01*
X161226096Y-93923659D01*
X161226097Y-93923663D01*
X161265111Y-94007328D01*
X161325965Y-94137830D01*
X161325967Y-94137834D01*
X161421820Y-94274725D01*
X161461501Y-94331396D01*
X161461506Y-94331402D01*
X161583818Y-94453714D01*
X161617303Y-94515037D01*
X161612319Y-94584729D01*
X161570447Y-94640662D01*
X161539471Y-94657577D01*
X161407912Y-94706646D01*
X161407906Y-94706649D01*
X161292812Y-94792809D01*
X161292809Y-94792812D01*
X161206649Y-94907906D01*
X161206645Y-94907913D01*
X161156403Y-95042620D01*
X161156401Y-95042627D01*
X161150000Y-95102155D01*
X161150000Y-95750000D01*
X162066314Y-95750000D01*
X162040507Y-95790156D01*
X162000000Y-95928111D01*
X162000000Y-96071889D01*
X162040507Y-96209844D01*
X162066314Y-96250000D01*
X161150000Y-96250000D01*
X161150000Y-96897844D01*
X161156401Y-96957372D01*
X161156403Y-96957379D01*
X161206645Y-97092086D01*
X161206649Y-97092093D01*
X161292809Y-97207187D01*
X161292812Y-97207190D01*
X161407906Y-97293350D01*
X161407913Y-97293354D01*
X161542620Y-97343596D01*
X161542627Y-97343598D01*
X161602155Y-97349999D01*
X161602172Y-97350000D01*
X162250000Y-97350000D01*
X162250000Y-96435501D01*
X162357685Y-96484680D01*
X162464237Y-96500000D01*
X162535763Y-96500000D01*
X162642315Y-96484680D01*
X162750000Y-96435501D01*
X162750000Y-97350000D01*
X163397828Y-97350000D01*
X163397844Y-97349999D01*
X163457372Y-97343598D01*
X163457379Y-97343596D01*
X163592086Y-97293354D01*
X163592093Y-97293350D01*
X163707187Y-97207190D01*
X163707190Y-97207187D01*
X163793350Y-97092093D01*
X163793354Y-97092086D01*
X163843596Y-96957379D01*
X163843598Y-96957372D01*
X163849999Y-96897844D01*
X163850000Y-96897827D01*
X163850000Y-96250000D01*
X162933686Y-96250000D01*
X162959493Y-96209844D01*
X163000000Y-96071889D01*
X163000000Y-95928111D01*
X162959493Y-95790156D01*
X162933686Y-95750000D01*
X163850000Y-95750000D01*
X163850000Y-95102172D01*
X163849999Y-95102155D01*
X163843598Y-95042627D01*
X163843596Y-95042620D01*
X163793354Y-94907913D01*
X163793350Y-94907906D01*
X163707190Y-94792812D01*
X163707187Y-94792809D01*
X163592093Y-94706649D01*
X163592088Y-94706646D01*
X163460528Y-94657577D01*
X163404595Y-94615705D01*
X163380178Y-94550241D01*
X163395030Y-94481968D01*
X163416175Y-94453720D01*
X163538495Y-94331401D01*
X163674035Y-94137830D01*
X163773903Y-93923663D01*
X163835063Y-93695408D01*
X163855659Y-93460000D01*
X163835063Y-93224592D01*
X163773903Y-92996337D01*
X163674035Y-92782171D01*
X163586859Y-92657669D01*
X163538494Y-92588597D01*
X163371402Y-92421506D01*
X163371396Y-92421501D01*
X163185842Y-92291575D01*
X163142217Y-92236998D01*
X163135023Y-92167500D01*
X163166546Y-92105145D01*
X163185842Y-92088425D01*
X163287666Y-92017127D01*
X163371401Y-91958495D01*
X163538495Y-91791401D01*
X163674035Y-91597830D01*
X163773903Y-91383663D01*
X163835063Y-91155408D01*
X163855659Y-90920000D01*
X163835063Y-90684592D01*
X163779528Y-90477331D01*
X163773905Y-90456344D01*
X163773904Y-90456343D01*
X163773903Y-90456337D01*
X163674035Y-90242171D01*
X163669132Y-90235168D01*
X163538494Y-90048597D01*
X163371402Y-89881506D01*
X163371396Y-89881501D01*
X163185842Y-89751575D01*
X163142217Y-89696998D01*
X163135023Y-89627500D01*
X163166546Y-89565145D01*
X163185842Y-89548425D01*
X163224792Y-89521152D01*
X163371401Y-89418495D01*
X163538495Y-89251401D01*
X163674035Y-89057830D01*
X163773903Y-88843663D01*
X163835063Y-88615408D01*
X163855659Y-88380000D01*
X163835063Y-88144592D01*
X163782923Y-87950000D01*
X163773905Y-87916344D01*
X163773904Y-87916343D01*
X163773903Y-87916337D01*
X163674035Y-87702171D01*
X163603436Y-87601344D01*
X163538494Y-87508597D01*
X163371402Y-87341506D01*
X163371395Y-87341501D01*
X163177834Y-87205967D01*
X163177830Y-87205965D01*
X163151311Y-87193599D01*
X162963663Y-87106097D01*
X162963659Y-87106096D01*
X162963655Y-87106094D01*
X162735413Y-87044938D01*
X162735403Y-87044936D01*
X162500001Y-87024341D01*
X162499999Y-87024341D01*
X162264596Y-87044936D01*
X162264586Y-87044938D01*
X162036344Y-87106094D01*
X162036335Y-87106098D01*
X161822171Y-87205964D01*
X161822169Y-87205965D01*
X161628597Y-87341505D01*
X161461505Y-87508597D01*
X161325965Y-87702169D01*
X161325964Y-87702171D01*
X161226098Y-87916335D01*
X161226094Y-87916344D01*
X161164938Y-88144586D01*
X161164936Y-88144596D01*
X161144341Y-88379999D01*
X161144341Y-88380000D01*
X161164937Y-88615408D01*
X161191855Y-88715873D01*
X161190192Y-88785723D01*
X161159779Y-88835629D01*
X161157245Y-88838164D01*
X161095928Y-88871661D01*
X161069546Y-88874500D01*
X150550167Y-88874500D01*
X150483128Y-88854815D01*
X150437373Y-88802011D01*
X150427429Y-88732853D01*
X150456454Y-88669297D01*
X150462486Y-88662819D01*
X150572572Y-88552732D01*
X150572575Y-88552728D01*
X150661542Y-88408492D01*
X150661547Y-88408481D01*
X150714855Y-88247606D01*
X150724999Y-88148322D01*
X150725000Y-88148309D01*
X150725000Y-88100000D01*
X149649000Y-88100000D01*
X149581961Y-88080315D01*
X149536206Y-88027511D01*
X149525000Y-87976000D01*
X149525000Y-86875000D01*
X150025000Y-86875000D01*
X150025000Y-87600000D01*
X150724999Y-87600000D01*
X150724999Y-87551692D01*
X150724998Y-87551677D01*
X150714855Y-87452392D01*
X150661547Y-87291518D01*
X150661542Y-87291507D01*
X150572575Y-87147271D01*
X150572572Y-87147267D01*
X150452732Y-87027427D01*
X150452728Y-87027424D01*
X150308492Y-86938457D01*
X150308481Y-86938452D01*
X150147606Y-86885144D01*
X150048322Y-86875000D01*
X150025000Y-86875000D01*
X149525000Y-86875000D01*
X149525000Y-86874999D01*
X149501693Y-86875000D01*
X149501674Y-86875001D01*
X149402392Y-86885144D01*
X149241518Y-86938452D01*
X149241507Y-86938457D01*
X149097271Y-87027424D01*
X149097264Y-87027430D01*
X149088028Y-87036665D01*
X149026703Y-87070146D01*
X148957011Y-87065157D01*
X148912672Y-87036659D01*
X148903046Y-87027033D01*
X148897590Y-87022719D01*
X148857213Y-86965697D01*
X148850500Y-86925452D01*
X148850500Y-86557742D01*
X148852224Y-86542122D01*
X148851939Y-86542095D01*
X148852673Y-86534333D01*
X148850500Y-86465172D01*
X148850500Y-86435656D01*
X148850500Y-86435650D01*
X148849631Y-86428779D01*
X148849173Y-86422952D01*
X148849171Y-86422873D01*
X148847710Y-86376373D01*
X148842119Y-86357130D01*
X148838173Y-86338078D01*
X148835664Y-86318208D01*
X148818504Y-86274867D01*
X148816624Y-86269379D01*
X148803618Y-86224610D01*
X148793422Y-86207370D01*
X148784861Y-86189894D01*
X148777487Y-86171270D01*
X148776699Y-86170185D01*
X148750079Y-86133545D01*
X148746888Y-86128686D01*
X148723172Y-86088583D01*
X148723165Y-86088574D01*
X148709006Y-86074415D01*
X148696368Y-86059619D01*
X148684594Y-86043413D01*
X148666157Y-86028161D01*
X148648688Y-86013709D01*
X148644376Y-86009786D01*
X147800803Y-85166212D01*
X147790980Y-85153950D01*
X147790759Y-85154134D01*
X147785786Y-85148123D01*
X147735364Y-85100773D01*
X147724919Y-85090328D01*
X147714475Y-85079883D01*
X147708986Y-85075625D01*
X147704561Y-85071847D01*
X147670582Y-85039938D01*
X147670580Y-85039936D01*
X147670577Y-85039935D01*
X147653029Y-85030288D01*
X147636763Y-85019604D01*
X147620933Y-85007325D01*
X147578168Y-84988818D01*
X147572922Y-84986248D01*
X147532093Y-84963803D01*
X147532092Y-84963802D01*
X147512693Y-84958822D01*
X147494281Y-84952518D01*
X147475898Y-84944562D01*
X147475892Y-84944560D01*
X147429874Y-84937272D01*
X147424152Y-84936087D01*
X147379021Y-84924500D01*
X147379019Y-84924500D01*
X147358984Y-84924500D01*
X147339586Y-84922973D01*
X147332162Y-84921797D01*
X147319805Y-84919840D01*
X147319804Y-84919840D01*
X147273416Y-84924225D01*
X147267578Y-84924500D01*
X143260452Y-84924500D01*
X143193413Y-84904815D01*
X143172771Y-84888181D01*
X142056819Y-83772228D01*
X142023334Y-83710905D01*
X142020500Y-83684547D01*
X142020500Y-81657668D01*
X142040185Y-81590629D01*
X142092989Y-81544874D01*
X142109895Y-81538595D01*
X142167898Y-81521744D01*
X142309365Y-81438081D01*
X142425581Y-81321865D01*
X142425767Y-81321549D01*
X142425977Y-81321353D01*
X142430361Y-81315702D01*
X142431272Y-81316409D01*
X142476836Y-81273866D01*
X142545577Y-81261362D01*
X142610167Y-81288006D01*
X142634355Y-81315921D01*
X142634639Y-81315702D01*
X142638679Y-81320911D01*
X142639232Y-81321548D01*
X142639419Y-81321865D01*
X142639421Y-81321867D01*
X142639423Y-81321870D01*
X142755629Y-81438076D01*
X142755632Y-81438078D01*
X142755635Y-81438081D01*
X142808622Y-81469417D01*
X142856304Y-81520484D01*
X142869500Y-81576148D01*
X142869500Y-83010191D01*
X142869501Y-83010200D01*
X142878791Y-83050908D01*
X142879955Y-83057763D01*
X142884632Y-83099259D01*
X142898420Y-83138662D01*
X142900345Y-83145345D01*
X142909639Y-83186061D01*
X142927759Y-83223688D01*
X142930421Y-83230114D01*
X142944212Y-83269525D01*
X142966422Y-83304872D01*
X142969787Y-83310959D01*
X142987910Y-83348589D01*
X143013940Y-83381229D01*
X143017966Y-83386904D01*
X143040182Y-83422259D01*
X143040184Y-83422262D01*
X143822739Y-84204817D01*
X143831283Y-84210185D01*
X143858095Y-84227032D01*
X143863755Y-84231048D01*
X143896413Y-84257092D01*
X143934054Y-84275218D01*
X143940116Y-84278569D01*
X143966637Y-84295233D01*
X143975474Y-84300787D01*
X143975475Y-84300787D01*
X143975478Y-84300789D01*
X144014881Y-84314576D01*
X144021310Y-84317239D01*
X144037161Y-84324872D01*
X144058939Y-84335360D01*
X144099655Y-84344653D01*
X144106328Y-84346576D01*
X144133862Y-84356210D01*
X144145745Y-84360368D01*
X144187241Y-84365043D01*
X144194093Y-84366207D01*
X144234806Y-84375500D01*
X144280046Y-84375500D01*
X144829732Y-84375500D01*
X144893881Y-84393383D01*
X144921988Y-84410374D01*
X144935394Y-84418478D01*
X145097804Y-84469086D01*
X145168384Y-84475500D01*
X145168387Y-84475500D01*
X145831613Y-84475500D01*
X145831616Y-84475500D01*
X145902196Y-84469086D01*
X146064606Y-84418478D01*
X146210185Y-84330472D01*
X146330472Y-84210185D01*
X146418478Y-84064606D01*
X146469086Y-83902196D01*
X146475500Y-83831616D01*
X146475500Y-83318384D01*
X146469086Y-83247804D01*
X146418478Y-83085394D01*
X146330472Y-82939815D01*
X146330470Y-82939813D01*
X146330469Y-82939811D01*
X146228339Y-82837681D01*
X146194854Y-82776358D01*
X146199838Y-82706666D01*
X146228339Y-82662319D01*
X146330467Y-82560190D01*
X146330472Y-82560185D01*
X146350364Y-82527278D01*
X146401889Y-82480094D01*
X146470748Y-82468255D01*
X146535077Y-82495523D01*
X146544159Y-82503749D01*
X149974197Y-85933788D01*
X151924197Y-87883788D01*
X151934022Y-87896051D01*
X151934243Y-87895869D01*
X151939214Y-87901878D01*
X151964370Y-87925500D01*
X151989635Y-87949226D01*
X152010529Y-87970120D01*
X152016011Y-87974373D01*
X152020443Y-87978157D01*
X152054418Y-88010062D01*
X152071976Y-88019714D01*
X152088233Y-88030393D01*
X152104064Y-88042673D01*
X152123737Y-88051186D01*
X152146833Y-88061182D01*
X152152077Y-88063750D01*
X152192908Y-88086197D01*
X152205523Y-88089435D01*
X152212305Y-88091177D01*
X152230719Y-88097481D01*
X152249104Y-88105438D01*
X152295157Y-88112732D01*
X152300826Y-88113906D01*
X152345981Y-88125500D01*
X152366016Y-88125500D01*
X152385413Y-88127026D01*
X152405196Y-88130160D01*
X152451584Y-88125775D01*
X152457422Y-88125500D01*
X154296252Y-88125500D01*
X154363291Y-88145185D01*
X154388400Y-88166526D01*
X154394126Y-88172885D01*
X154394130Y-88172889D01*
X154547265Y-88284148D01*
X154547270Y-88284151D01*
X154720192Y-88361142D01*
X154720197Y-88361144D01*
X154905354Y-88400500D01*
X154905355Y-88400500D01*
X155094644Y-88400500D01*
X155094646Y-88400500D01*
X155279803Y-88361144D01*
X155452730Y-88284151D01*
X155605871Y-88172888D01*
X155732533Y-88032216D01*
X155827179Y-87868284D01*
X155885674Y-87688256D01*
X155905460Y-87500000D01*
X155885674Y-87311744D01*
X155827179Y-87131716D01*
X155732533Y-86967784D01*
X155605871Y-86827112D01*
X155605870Y-86827111D01*
X155452734Y-86715851D01*
X155452729Y-86715848D01*
X155279807Y-86638857D01*
X155279802Y-86638855D01*
X155124798Y-86605909D01*
X155094646Y-86599500D01*
X154905354Y-86599500D01*
X154875202Y-86605909D01*
X154720197Y-86638855D01*
X154720192Y-86638857D01*
X154547270Y-86715848D01*
X154547265Y-86715851D01*
X154394130Y-86827110D01*
X154394126Y-86827114D01*
X154388400Y-86833474D01*
X154328913Y-86870121D01*
X154296252Y-86874500D01*
X152735452Y-86874500D01*
X152668413Y-86854815D01*
X152647771Y-86838181D01*
X146511819Y-80702228D01*
X146478334Y-80640905D01*
X146475500Y-80614547D01*
X146475500Y-80318386D01*
X146469086Y-80247807D01*
X146469086Y-80247804D01*
X146418478Y-80085394D01*
X146418475Y-80085389D01*
X146415400Y-80078555D01*
X146417527Y-80077597D01*
X146402610Y-80021092D01*
X146424129Y-79954619D01*
X146478171Y-79910333D01*
X146526563Y-79900500D01*
X146639145Y-79900500D01*
X146684197Y-79910487D01*
X146684448Y-79909731D01*
X146691301Y-79912001D01*
X146691303Y-79912003D01*
X146852292Y-79965349D01*
X146951655Y-79975500D01*
X147498344Y-79975499D01*
X147498352Y-79975498D01*
X147498355Y-79975498D01*
X147552760Y-79969940D01*
X147597708Y-79965349D01*
X147758697Y-79912003D01*
X147903044Y-79822968D01*
X147912319Y-79813693D01*
X147973642Y-79780208D01*
X148043334Y-79785192D01*
X148087681Y-79813693D01*
X148096955Y-79822967D01*
X148096959Y-79822970D01*
X148241294Y-79911998D01*
X148241297Y-79911999D01*
X148241303Y-79912003D01*
X148372367Y-79955432D01*
X148414942Y-79979754D01*
X148456160Y-80015765D01*
X148649392Y-80131215D01*
X148860132Y-80210307D01*
X149081606Y-80250500D01*
X149081609Y-80250500D01*
X149742520Y-80250500D01*
X149809559Y-80270185D01*
X149855314Y-80322989D01*
X149865258Y-80392147D01*
X149839467Y-80451813D01*
X149760028Y-80551426D01*
X149628883Y-80778573D01*
X149533058Y-81022729D01*
X149474693Y-81278449D01*
X149474692Y-81278454D01*
X149455093Y-81539995D01*
X149455093Y-81540004D01*
X149474692Y-81801545D01*
X149474693Y-81801550D01*
X149533058Y-82057270D01*
X149628883Y-82301426D01*
X149628882Y-82301426D01*
X149760030Y-82528577D01*
X149807873Y-82588571D01*
X150458766Y-81937678D01*
X150502316Y-82019822D01*
X150622009Y-82160735D01*
X150769195Y-82272623D01*
X150811402Y-82292150D01*
X150160831Y-82942720D01*
X150332546Y-83059793D01*
X150332550Y-83059795D01*
X150568854Y-83173594D01*
X150568858Y-83173595D01*
X150819494Y-83250907D01*
X150819500Y-83250909D01*
X151078848Y-83289999D01*
X151078857Y-83290000D01*
X151341143Y-83290000D01*
X151341151Y-83289999D01*
X151600499Y-83250909D01*
X151600505Y-83250907D01*
X151851143Y-83173595D01*
X152087445Y-83059798D01*
X152087456Y-83059791D01*
X152259167Y-82942720D01*
X151608609Y-82292161D01*
X151727431Y-82220669D01*
X151861658Y-82093523D01*
X151964861Y-81941308D01*
X152612124Y-82588571D01*
X152659974Y-82528570D01*
X152791116Y-82301426D01*
X152886941Y-82057270D01*
X152945306Y-81801550D01*
X152945307Y-81801545D01*
X152964907Y-81540004D01*
X152964907Y-81539995D01*
X152945307Y-81278454D01*
X152945306Y-81278449D01*
X152886941Y-81022729D01*
X152807298Y-80819802D01*
X152801129Y-80750205D01*
X152833567Y-80688322D01*
X152894312Y-80653799D01*
X152922726Y-80650500D01*
X154577274Y-80650500D01*
X154644313Y-80670185D01*
X154690068Y-80722989D01*
X154700012Y-80792147D01*
X154692702Y-80819802D01*
X154613058Y-81022729D01*
X154554693Y-81278449D01*
X154554692Y-81278454D01*
X154535093Y-81539995D01*
X154535093Y-81540004D01*
X154554692Y-81801545D01*
X154554693Y-81801550D01*
X154613058Y-82057270D01*
X154708883Y-82301426D01*
X154708882Y-82301426D01*
X154840030Y-82528577D01*
X154887873Y-82588571D01*
X155538766Y-81937678D01*
X155582316Y-82019822D01*
X155702009Y-82160735D01*
X155849195Y-82272623D01*
X155891402Y-82292150D01*
X155240831Y-82942720D01*
X155412546Y-83059793D01*
X155412550Y-83059795D01*
X155648854Y-83173594D01*
X155648858Y-83173595D01*
X155899494Y-83250907D01*
X155899500Y-83250909D01*
X156158848Y-83289999D01*
X156158857Y-83290000D01*
X156421143Y-83290000D01*
X156421151Y-83289999D01*
X156680499Y-83250909D01*
X156680505Y-83250907D01*
X156931143Y-83173595D01*
X157167445Y-83059798D01*
X157167456Y-83059791D01*
X157339167Y-82942720D01*
X156688609Y-82292161D01*
X156807431Y-82220669D01*
X156941658Y-82093523D01*
X157044861Y-81941308D01*
X157692124Y-82588571D01*
X157739974Y-82528570D01*
X157871116Y-82301426D01*
X157966941Y-82057270D01*
X158004609Y-81892234D01*
X158038717Y-81831255D01*
X158100379Y-81798397D01*
X158170016Y-81804092D01*
X158225520Y-81846532D01*
X158249268Y-81912242D01*
X158249500Y-81919826D01*
X158249500Y-83300099D01*
X158249617Y-83300383D01*
X158249808Y-83300462D01*
X158249999Y-83300541D01*
X158250000Y-83300541D01*
X158250001Y-83300541D01*
X158250127Y-83300488D01*
X158250383Y-83300383D01*
X158250500Y-83300099D01*
X158250500Y-74699901D01*
X158250383Y-74699617D01*
X158250381Y-74699616D01*
X158250001Y-74699459D01*
X158249999Y-74699459D01*
X158249618Y-74699616D01*
X158249617Y-74699617D01*
X158249500Y-74699901D01*
X158249500Y-76080173D01*
X158229815Y-76147212D01*
X158177011Y-76192967D01*
X158107853Y-76202911D01*
X158044297Y-76173886D01*
X158006523Y-76115108D01*
X158004609Y-76107765D01*
X157966941Y-75942729D01*
X157871116Y-75698573D01*
X157871117Y-75698573D01*
X157739971Y-75471426D01*
X157692125Y-75411427D01*
X157041232Y-76062319D01*
X156997684Y-75980178D01*
X156877991Y-75839265D01*
X156730805Y-75727377D01*
X156688596Y-75707849D01*
X157339167Y-75057278D01*
X157167447Y-74940202D01*
X157167445Y-74940201D01*
X156931142Y-74826404D01*
X156931144Y-74826404D01*
X156680505Y-74749092D01*
X156680499Y-74749090D01*
X156421151Y-74710000D01*
X156158848Y-74710000D01*
X155899500Y-74749090D01*
X155899494Y-74749092D01*
X155648858Y-74826404D01*
X155648854Y-74826405D01*
X155412550Y-74940204D01*
X155412546Y-74940206D01*
X155240832Y-75057278D01*
X155891391Y-75707837D01*
X155772569Y-75779331D01*
X155638342Y-75906477D01*
X155535138Y-76058691D01*
X154887874Y-75411428D01*
X154840027Y-75471426D01*
X154708883Y-75698573D01*
X154613058Y-75942729D01*
X154554693Y-76198449D01*
X154554692Y-76198454D01*
X154535093Y-76459995D01*
X154535093Y-76460004D01*
X154554692Y-76721545D01*
X154554693Y-76721550D01*
X154613058Y-76977270D01*
X154692702Y-77180198D01*
X154698871Y-77249795D01*
X154666433Y-77311678D01*
X154605688Y-77346201D01*
X154577274Y-77349500D01*
X152922726Y-77349500D01*
X152855687Y-77329815D01*
X152809932Y-77277011D01*
X152799988Y-77207853D01*
X152807298Y-77180198D01*
X152886941Y-76977270D01*
X152945306Y-76721550D01*
X152945307Y-76721545D01*
X152964907Y-76460004D01*
X152964907Y-76459995D01*
X152945307Y-76198454D01*
X152945306Y-76198449D01*
X152886941Y-75942729D01*
X152791116Y-75698573D01*
X152791117Y-75698573D01*
X152659971Y-75471426D01*
X152612125Y-75411427D01*
X151961232Y-76062319D01*
X151917684Y-75980178D01*
X151797991Y-75839265D01*
X151650805Y-75727377D01*
X151608596Y-75707849D01*
X152259167Y-75057278D01*
X152087447Y-74940202D01*
X152087445Y-74940201D01*
X151851142Y-74826404D01*
X151851144Y-74826404D01*
X151600505Y-74749092D01*
X151600499Y-74749090D01*
X151341151Y-74710000D01*
X151078848Y-74710000D01*
X150819500Y-74749090D01*
X150819494Y-74749092D01*
X150568858Y-74826404D01*
X150568854Y-74826405D01*
X150332550Y-74940204D01*
X150332546Y-74940206D01*
X150160832Y-75057278D01*
X150811391Y-75707837D01*
X150692569Y-75779331D01*
X150558342Y-75906477D01*
X150455138Y-76058692D01*
X149807874Y-75411428D01*
X149760027Y-75471426D01*
X149628883Y-75698573D01*
X149533058Y-75942729D01*
X149474693Y-76198449D01*
X149474692Y-76198454D01*
X149455093Y-76459995D01*
X149455093Y-76460004D01*
X149474692Y-76721545D01*
X149474693Y-76721550D01*
X149533058Y-76977270D01*
X149628883Y-77221426D01*
X149628882Y-77221426D01*
X149760028Y-77448573D01*
X149839467Y-77548187D01*
X149865876Y-77612874D01*
X149853119Y-77681569D01*
X149805249Y-77732463D01*
X149742520Y-77749500D01*
X149138001Y-77749500D01*
X149099555Y-77752960D01*
X148969969Y-77764622D01*
X148969963Y-77764623D01*
X148752995Y-77824503D01*
X148752982Y-77824508D01*
X148550186Y-77922168D01*
X148550176Y-77922174D01*
X148405151Y-78027541D01*
X148371271Y-78044929D01*
X148241299Y-78087998D01*
X148096959Y-78177029D01*
X148096955Y-78177032D01*
X148087681Y-78186307D01*
X148026358Y-78219792D01*
X147956666Y-78214808D01*
X147912319Y-78186307D01*
X147903044Y-78177032D01*
X147903040Y-78177029D01*
X147758705Y-78088001D01*
X147758699Y-78087998D01*
X147758697Y-78087997D01*
X147751219Y-78085519D01*
X147597709Y-78034651D01*
X147498346Y-78024500D01*
X146951662Y-78024500D01*
X146951644Y-78024501D01*
X146852292Y-78034650D01*
X146852289Y-78034651D01*
X146747124Y-78069500D01*
X146691303Y-78087997D01*
X146691301Y-78087997D01*
X146684448Y-78090269D01*
X146684197Y-78089512D01*
X146639145Y-78099500D01*
X146128913Y-78099500D01*
X146071892Y-78083605D01*
X146071445Y-78084600D01*
X146064910Y-78081659D01*
X146064767Y-78081619D01*
X146064609Y-78081523D01*
X145994312Y-78059618D01*
X145902196Y-78030914D01*
X145902194Y-78030913D01*
X145902192Y-78030913D01*
X145852778Y-78026423D01*
X145831616Y-78024500D01*
X145168384Y-78024500D01*
X145097804Y-78030914D01*
X145049933Y-78045831D01*
X144991991Y-78063886D01*
X144955102Y-78069500D01*
X143091804Y-78069500D01*
X143054932Y-78072401D01*
X143054926Y-78072402D01*
X142897106Y-78118254D01*
X142897103Y-78118255D01*
X142755637Y-78201917D01*
X142755629Y-78201923D01*
X142639423Y-78318129D01*
X142639414Y-78318140D01*
X142639229Y-78318455D01*
X142639019Y-78318650D01*
X142634639Y-78324298D01*
X142633727Y-78323591D01*
X142588157Y-78366136D01*
X142519415Y-78378637D01*
X142454827Y-78351988D01*
X142430643Y-78324078D01*
X142430361Y-78324298D01*
X142426323Y-78319092D01*
X142425771Y-78318455D01*
X142425585Y-78318140D01*
X142425576Y-78318129D01*
X142309370Y-78201923D01*
X142309362Y-78201917D01*
X142174154Y-78121956D01*
X142167898Y-78118256D01*
X142167897Y-78118255D01*
X142167896Y-78118255D01*
X142167893Y-78118254D01*
X142010073Y-78072402D01*
X142010067Y-78072401D01*
X141973196Y-78069500D01*
X141973194Y-78069500D01*
X140816806Y-78069500D01*
X140816804Y-78069500D01*
X140779934Y-78072401D01*
X140779931Y-78072402D01*
X140734094Y-78085718D01*
X140664225Y-78085519D01*
X140605555Y-78047576D01*
X140576712Y-77983938D01*
X140575500Y-77966642D01*
X140575500Y-77945831D01*
X140575499Y-77945818D01*
X140571773Y-77909350D01*
X140565436Y-77847315D01*
X140512549Y-77687713D01*
X140512545Y-77687707D01*
X140512544Y-77687704D01*
X140424283Y-77544612D01*
X140424280Y-77544608D01*
X140305391Y-77425719D01*
X140305387Y-77425716D01*
X140162295Y-77337455D01*
X140162289Y-77337452D01*
X140162287Y-77337451D01*
X140002685Y-77284564D01*
X140002683Y-77284563D01*
X139904181Y-77274500D01*
X139904174Y-77274500D01*
X139295826Y-77274500D01*
X139295818Y-77274500D01*
X139197316Y-77284563D01*
X139197315Y-77284564D01*
X139120554Y-77310000D01*
X139037715Y-77337450D01*
X139037704Y-77337455D01*
X138894612Y-77425716D01*
X138894608Y-77425719D01*
X138775719Y-77544608D01*
X138775716Y-77544612D01*
X138687455Y-77687704D01*
X138687451Y-77687713D01*
X138634564Y-77847315D01*
X138634564Y-77847316D01*
X138634563Y-77847316D01*
X138624500Y-77945818D01*
X138624500Y-78479181D01*
X138634563Y-78577683D01*
X138687450Y-78737284D01*
X138687455Y-78737295D01*
X138775716Y-78880387D01*
X138775719Y-78880392D01*
X138808000Y-78912673D01*
X138841485Y-78973997D01*
X138836499Y-79043688D01*
X138808000Y-79088033D01*
X138776114Y-79119919D01*
X138687908Y-79262922D01*
X138687906Y-79262927D01*
X138635057Y-79422416D01*
X138625000Y-79520849D01*
X138625000Y-79537500D01*
X140445730Y-79537500D01*
X140508851Y-79554768D01*
X140622102Y-79621744D01*
X140645952Y-79628673D01*
X140779926Y-79667597D01*
X140779929Y-79667597D01*
X140779931Y-79667598D01*
X140792222Y-79668565D01*
X140816804Y-79670500D01*
X141521000Y-79670500D01*
X141588039Y-79690185D01*
X141633794Y-79742989D01*
X141645000Y-79794500D01*
X141645000Y-79845500D01*
X141625315Y-79912539D01*
X141572511Y-79958294D01*
X141521000Y-79969500D01*
X140816804Y-79969500D01*
X140779932Y-79972401D01*
X140779926Y-79972402D01*
X140622106Y-80018254D01*
X140622103Y-80018255D01*
X140563806Y-80052732D01*
X140500685Y-80070000D01*
X140276362Y-80070000D01*
X140209323Y-80050315D01*
X140193420Y-80037500D01*
X139850000Y-80037500D01*
X139850000Y-80724999D01*
X139904136Y-80724999D01*
X139904152Y-80724998D01*
X140002583Y-80714943D01*
X140068996Y-80692936D01*
X140138824Y-80690534D01*
X140198866Y-80726266D01*
X140230059Y-80788786D01*
X140232000Y-80810642D01*
X140232000Y-80985696D01*
X140234901Y-81022567D01*
X140234902Y-81022573D01*
X140280754Y-81180393D01*
X140280755Y-81180396D01*
X140280756Y-81180398D01*
X140296810Y-81207544D01*
X140364232Y-81321550D01*
X140364418Y-81321864D01*
X140364423Y-81321870D01*
X140480629Y-81438076D01*
X140480633Y-81438079D01*
X140480635Y-81438081D01*
X140500461Y-81449806D01*
X140594499Y-81505420D01*
X140622102Y-81521744D01*
X140680095Y-81538592D01*
X140738980Y-81576197D01*
X140768187Y-81639669D01*
X140769500Y-81657668D01*
X140769500Y-82185547D01*
X140749815Y-82252586D01*
X140697011Y-82298341D01*
X140627853Y-82308285D01*
X140564297Y-82279260D01*
X140557819Y-82273228D01*
X139221271Y-80936680D01*
X139187786Y-80875357D01*
X139192770Y-80805665D01*
X139234642Y-80749732D01*
X139300106Y-80725315D01*
X139308951Y-80724999D01*
X139349999Y-80724998D01*
X139350000Y-80724998D01*
X139350000Y-80037500D01*
X138625001Y-80037500D01*
X138625001Y-80041048D01*
X138605316Y-80108087D01*
X138552512Y-80153842D01*
X138483354Y-80163786D01*
X138419798Y-80134761D01*
X138413320Y-80128729D01*
X137869280Y-79584689D01*
X137835795Y-79523366D01*
X137840779Y-79453674D01*
X137851419Y-79431917D01*
X137912003Y-79333697D01*
X137965349Y-79172708D01*
X137975500Y-79073345D01*
X137975499Y-78526656D01*
X137970649Y-78479181D01*
X137965349Y-78427292D01*
X137965348Y-78427289D01*
X137931220Y-78324298D01*
X137912003Y-78266303D01*
X137911999Y-78266297D01*
X137911998Y-78266294D01*
X137822970Y-78121959D01*
X137822967Y-78121955D01*
X137813693Y-78112681D01*
X137780208Y-78051358D01*
X137785192Y-77981666D01*
X137813693Y-77937319D01*
X137822968Y-77928044D01*
X137912003Y-77783697D01*
X137965349Y-77622708D01*
X137975500Y-77523345D01*
X137975499Y-76976656D01*
X137971736Y-76939822D01*
X137965349Y-76877292D01*
X137965348Y-76877289D01*
X137928647Y-76766532D01*
X137912003Y-76716303D01*
X137911999Y-76716297D01*
X137911998Y-76716294D01*
X137822970Y-76571959D01*
X137822967Y-76571955D01*
X137703044Y-76452032D01*
X137703040Y-76452029D01*
X137558705Y-76363001D01*
X137558699Y-76362998D01*
X137558697Y-76362997D01*
X137536552Y-76355659D01*
X137397709Y-76309651D01*
X137298346Y-76299500D01*
X136701662Y-76299500D01*
X136701644Y-76299501D01*
X136602292Y-76309650D01*
X136602289Y-76309651D01*
X136441305Y-76362996D01*
X136441294Y-76363001D01*
X136296959Y-76452029D01*
X136296955Y-76452032D01*
X136177033Y-76571954D01*
X136177032Y-76571956D01*
X136172217Y-76579761D01*
X136120271Y-76626486D01*
X136066679Y-76638665D01*
X135817169Y-76638665D01*
X135750130Y-76618980D01*
X135729488Y-76602346D01*
X135635837Y-76508695D01*
X135490255Y-76420687D01*
X135467868Y-76413711D01*
X135327845Y-76370079D01*
X135327843Y-76370078D01*
X135327841Y-76370078D01*
X135278427Y-76365588D01*
X135257265Y-76363665D01*
X135257262Y-76363665D01*
X134961101Y-76363665D01*
X134894062Y-76343980D01*
X134873420Y-76327346D01*
X134030754Y-75484680D01*
X133162287Y-74616212D01*
X133152464Y-74603950D01*
X133152243Y-74604134D01*
X133147270Y-74598123D01*
X133096848Y-74550773D01*
X133082412Y-74536337D01*
X133075959Y-74529883D01*
X133070470Y-74525625D01*
X133066045Y-74521847D01*
X133032066Y-74489938D01*
X133032064Y-74489936D01*
X133032061Y-74489935D01*
X133014513Y-74480288D01*
X132998247Y-74469604D01*
X132982417Y-74457325D01*
X132939652Y-74438818D01*
X132934406Y-74436248D01*
X132893577Y-74413803D01*
X132893576Y-74413802D01*
X132874177Y-74408822D01*
X132855765Y-74402518D01*
X132837382Y-74394562D01*
X132837376Y-74394560D01*
X132791358Y-74387272D01*
X132785636Y-74386087D01*
X132740505Y-74374500D01*
X132740503Y-74374500D01*
X132720468Y-74374500D01*
X132701070Y-74372973D01*
X132693646Y-74371797D01*
X132681289Y-74369840D01*
X132681288Y-74369840D01*
X132634900Y-74374225D01*
X132629062Y-74374500D01*
X128815227Y-74374500D01*
X128748188Y-74354815D01*
X128713652Y-74321623D01*
X128578494Y-74128597D01*
X128411402Y-73961506D01*
X128411395Y-73961501D01*
X128217834Y-73825967D01*
X128217830Y-73825965D01*
X128146727Y-73792809D01*
X128003663Y-73726097D01*
X128003659Y-73726096D01*
X128003655Y-73726094D01*
X127775413Y-73664938D01*
X127775403Y-73664936D01*
X127540001Y-73644341D01*
X127539999Y-73644341D01*
X127304596Y-73664936D01*
X127304586Y-73664938D01*
X127076344Y-73726094D01*
X127076335Y-73726098D01*
X126862171Y-73825964D01*
X126862169Y-73825965D01*
X126668600Y-73961503D01*
X126546284Y-74083819D01*
X126484961Y-74117303D01*
X126415269Y-74112319D01*
X126359336Y-74070447D01*
X126342421Y-74039470D01*
X126293354Y-73907913D01*
X126293350Y-73907906D01*
X126207190Y-73792812D01*
X126207187Y-73792809D01*
X126092093Y-73706649D01*
X126092086Y-73706645D01*
X125957379Y-73656403D01*
X125957372Y-73656401D01*
X125897844Y-73650000D01*
X125250000Y-73650000D01*
X125250000Y-74564498D01*
X125142315Y-74515320D01*
X125035763Y-74500000D01*
X124964237Y-74500000D01*
X124857685Y-74515320D01*
X124750000Y-74564498D01*
X124750000Y-73650000D01*
X124102155Y-73650000D01*
X124042627Y-73656401D01*
X124042620Y-73656403D01*
X123907913Y-73706645D01*
X123907906Y-73706649D01*
X123792812Y-73792809D01*
X123792809Y-73792812D01*
X123706649Y-73907906D01*
X123706645Y-73907913D01*
X123656403Y-74042620D01*
X123656401Y-74042627D01*
X123650000Y-74102155D01*
X123650000Y-74750000D01*
X124566314Y-74750000D01*
X124540507Y-74790156D01*
X124500000Y-74928111D01*
X124500000Y-75071889D01*
X124540507Y-75209844D01*
X124566314Y-75250000D01*
X123650000Y-75250000D01*
X123650000Y-75897844D01*
X123656401Y-75957372D01*
X123656403Y-75957379D01*
X123706645Y-76092086D01*
X123706649Y-76092093D01*
X123792809Y-76207187D01*
X123792812Y-76207190D01*
X123907906Y-76293350D01*
X123907913Y-76293354D01*
X124042620Y-76343596D01*
X124042627Y-76343598D01*
X124102155Y-76349999D01*
X124102172Y-76350000D01*
X124750000Y-76350000D01*
X124750000Y-75435501D01*
X124857685Y-75484680D01*
X124964237Y-75500000D01*
X125035763Y-75500000D01*
X125142315Y-75484680D01*
X125250000Y-75435501D01*
X125250000Y-76350000D01*
X125897828Y-76350000D01*
X125897844Y-76349999D01*
X125957372Y-76343598D01*
X125957379Y-76343596D01*
X126092086Y-76293354D01*
X126092093Y-76293350D01*
X126207187Y-76207190D01*
X126207190Y-76207187D01*
X126293350Y-76092093D01*
X126293354Y-76092086D01*
X126342422Y-75960529D01*
X126384293Y-75904595D01*
X126449757Y-75880178D01*
X126518030Y-75895030D01*
X126546285Y-75916181D01*
X126668599Y-76038495D01*
X126745135Y-76092086D01*
X126862165Y-76174032D01*
X126862167Y-76174033D01*
X126862170Y-76174035D01*
X127076337Y-76273903D01*
X127304592Y-76335063D01*
X127475319Y-76350000D01*
X127539999Y-76355659D01*
X127540000Y-76355659D01*
X127540001Y-76355659D01*
X127604681Y-76350000D01*
X127775408Y-76335063D01*
X128003663Y-76273903D01*
X128217830Y-76174035D01*
X128411401Y-76038495D01*
X128578495Y-75871401D01*
X128713652Y-75678377D01*
X128768229Y-75634752D01*
X128815227Y-75625500D01*
X132351032Y-75625500D01*
X132418071Y-75645185D01*
X132438713Y-75661819D01*
X133913830Y-77136936D01*
X133947315Y-77198259D01*
X133950149Y-77224617D01*
X133950149Y-77520778D01*
X133956562Y-77591357D01*
X133956562Y-77591359D01*
X133956563Y-77591361D01*
X134007171Y-77753771D01*
X134091035Y-77892499D01*
X134095179Y-77899353D01*
X134197310Y-78001484D01*
X134230795Y-78062807D01*
X134225811Y-78132499D01*
X134197310Y-78176846D01*
X134095180Y-78278975D01*
X134095179Y-78278976D01*
X134007171Y-78424558D01*
X133956562Y-78586972D01*
X133951431Y-78643440D01*
X133950881Y-78649500D01*
X133950149Y-78657551D01*
X133950149Y-79170778D01*
X133956562Y-79241357D01*
X133956562Y-79241359D01*
X133956563Y-79241361D01*
X134007171Y-79403771D01*
X134088013Y-79537500D01*
X134095179Y-79549353D01*
X134138180Y-79592353D01*
X134171666Y-79653676D01*
X134174500Y-79680035D01*
X134174500Y-79901312D01*
X134154815Y-79968351D01*
X134142645Y-79984289D01*
X134133531Y-79994410D01*
X134074043Y-80031055D01*
X134004186Y-80029721D01*
X133953705Y-79999114D01*
X133570803Y-79616212D01*
X133560980Y-79603950D01*
X133560759Y-79604134D01*
X133555786Y-79598123D01*
X133541480Y-79584689D01*
X133505364Y-79550773D01*
X133492091Y-79537500D01*
X133484475Y-79529883D01*
X133478986Y-79525625D01*
X133474561Y-79521847D01*
X133440582Y-79489938D01*
X133440580Y-79489936D01*
X133440577Y-79489935D01*
X133423029Y-79480288D01*
X133406763Y-79469604D01*
X133390936Y-79457327D01*
X133390935Y-79457326D01*
X133390933Y-79457325D01*
X133348168Y-79438818D01*
X133342922Y-79436248D01*
X133302093Y-79413803D01*
X133302092Y-79413802D01*
X133282693Y-79408822D01*
X133264281Y-79402518D01*
X133245898Y-79394562D01*
X133245892Y-79394560D01*
X133199874Y-79387272D01*
X133194152Y-79386087D01*
X133149021Y-79374500D01*
X133149019Y-79374500D01*
X133128984Y-79374500D01*
X133109586Y-79372973D01*
X133102162Y-79371797D01*
X133089805Y-79369840D01*
X133089804Y-79369840D01*
X133043416Y-79374225D01*
X133037578Y-79374500D01*
X126474499Y-79374500D01*
X126407460Y-79354815D01*
X126361705Y-79302011D01*
X126350499Y-79250500D01*
X126350499Y-79102129D01*
X126350498Y-79102123D01*
X126350497Y-79102116D01*
X126344091Y-79042517D01*
X126295662Y-78912673D01*
X126293797Y-78907671D01*
X126293793Y-78907664D01*
X126207547Y-78792455D01*
X126207544Y-78792452D01*
X126092335Y-78706206D01*
X126092328Y-78706202D01*
X125957482Y-78655908D01*
X125957483Y-78655908D01*
X125897883Y-78649501D01*
X125897881Y-78649500D01*
X125897873Y-78649500D01*
X125897864Y-78649500D01*
X124102129Y-78649500D01*
X124102123Y-78649501D01*
X124042516Y-78655908D01*
X123907671Y-78706202D01*
X123907664Y-78706206D01*
X123792455Y-78792452D01*
X123792452Y-78792455D01*
X123706206Y-78907664D01*
X123706202Y-78907671D01*
X123655908Y-79042517D01*
X123651067Y-79087549D01*
X123649501Y-79102123D01*
X123649500Y-79102135D01*
X123649500Y-80897870D01*
X123649501Y-80897876D01*
X123655908Y-80957483D01*
X123706202Y-81092328D01*
X123706206Y-81092335D01*
X123792452Y-81207544D01*
X123792455Y-81207547D01*
X123907664Y-81293793D01*
X123907671Y-81293797D01*
X124042517Y-81344091D01*
X124042516Y-81344091D01*
X124049444Y-81344835D01*
X124102127Y-81350500D01*
X125897872Y-81350499D01*
X125957483Y-81344091D01*
X126092331Y-81293796D01*
X126207546Y-81207546D01*
X126293796Y-81092331D01*
X126344091Y-80957483D01*
X126350500Y-80897873D01*
X126350500Y-80749500D01*
X126370185Y-80682461D01*
X126422989Y-80636706D01*
X126474500Y-80625500D01*
X132759548Y-80625500D01*
X132826587Y-80645185D01*
X132847229Y-80661819D01*
X136873229Y-84687819D01*
X136906714Y-84749142D01*
X136901730Y-84818834D01*
X136859858Y-84874767D01*
X136794394Y-84899184D01*
X136785548Y-84899500D01*
X126474499Y-84899500D01*
X126407460Y-84879815D01*
X126361705Y-84827011D01*
X126350499Y-84775500D01*
X126350499Y-84627129D01*
X126350498Y-84627123D01*
X126350497Y-84627116D01*
X126344091Y-84567517D01*
X126302605Y-84456288D01*
X126293797Y-84432671D01*
X126293793Y-84432664D01*
X126207547Y-84317455D01*
X126207544Y-84317452D01*
X126092335Y-84231206D01*
X126092328Y-84231202D01*
X125957482Y-84180908D01*
X125957483Y-84180908D01*
X125897883Y-84174501D01*
X125897881Y-84174500D01*
X125897873Y-84174500D01*
X125897864Y-84174500D01*
X124102129Y-84174500D01*
X124102123Y-84174501D01*
X124042516Y-84180908D01*
X123907671Y-84231202D01*
X123907664Y-84231206D01*
X123792455Y-84317452D01*
X123792452Y-84317455D01*
X123706206Y-84432664D01*
X123706202Y-84432671D01*
X123655908Y-84567517D01*
X123649501Y-84627116D01*
X123649501Y-84627123D01*
X123649500Y-84627135D01*
X123649500Y-86422870D01*
X123649501Y-86422876D01*
X123655908Y-86482483D01*
X123706202Y-86617328D01*
X123706206Y-86617335D01*
X123792452Y-86732544D01*
X123792455Y-86732547D01*
X123907664Y-86818793D01*
X123907671Y-86818797D01*
X124039081Y-86867810D01*
X124095015Y-86909681D01*
X124119432Y-86975145D01*
X124104580Y-87043418D01*
X124083430Y-87071673D01*
X123961503Y-87193600D01*
X123825965Y-87387169D01*
X123825964Y-87387171D01*
X123749264Y-87551656D01*
X123726721Y-87600000D01*
X123726098Y-87601335D01*
X123726094Y-87601344D01*
X123664938Y-87829586D01*
X123664936Y-87829596D01*
X123644341Y-88064999D01*
X123644341Y-88065000D01*
X123664936Y-88300403D01*
X123664938Y-88300413D01*
X123726094Y-88528655D01*
X123726096Y-88528659D01*
X123726097Y-88528663D01*
X123788655Y-88662819D01*
X123825965Y-88742830D01*
X123825967Y-88742834D01*
X123918161Y-88874500D01*
X123961505Y-88936401D01*
X124128599Y-89103495D01*
X124205789Y-89157544D01*
X124322165Y-89239032D01*
X124322167Y-89239033D01*
X124322170Y-89239035D01*
X124536337Y-89338903D01*
X124764592Y-89400063D01*
X124952918Y-89416539D01*
X124999999Y-89420659D01*
X125000000Y-89420659D01*
X125000001Y-89420659D01*
X125039234Y-89417226D01*
X125235408Y-89400063D01*
X125463663Y-89338903D01*
X125677830Y-89239035D01*
X125871401Y-89103495D01*
X126038495Y-88936401D01*
X126173652Y-88743377D01*
X126228229Y-88699752D01*
X126275227Y-88690500D01*
X138944548Y-88690500D01*
X139011587Y-88710185D01*
X139032229Y-88726819D01*
X140818181Y-90512771D01*
X140851666Y-90574094D01*
X140854500Y-90600452D01*
X140854500Y-92275500D01*
X140834815Y-92342539D01*
X140782011Y-92388294D01*
X140730500Y-92399500D01*
X140357130Y-92399500D01*
X140357123Y-92399501D01*
X140297516Y-92405908D01*
X140162671Y-92456202D01*
X140162664Y-92456206D01*
X140047455Y-92542452D01*
X140047452Y-92542455D01*
X139961206Y-92657664D01*
X139961202Y-92657671D01*
X139910908Y-92792517D01*
X139904501Y-92852116D01*
X139904501Y-92852123D01*
X139904500Y-92852135D01*
X139904500Y-94250500D01*
X139884815Y-94317539D01*
X139832011Y-94363294D01*
X139780500Y-94374500D01*
X138382129Y-94374500D01*
X138382123Y-94374501D01*
X138322516Y-94380908D01*
X138187671Y-94431202D01*
X138187668Y-94431204D01*
X138096080Y-94499767D01*
X138030615Y-94524184D01*
X138021769Y-94524500D01*
X126030758Y-94524500D01*
X125963719Y-94504815D01*
X125943077Y-94488181D01*
X125916569Y-94461673D01*
X125883084Y-94400350D01*
X125888068Y-94330658D01*
X125929940Y-94274725D01*
X125960915Y-94257810D01*
X126092331Y-94208796D01*
X126207546Y-94122546D01*
X126293796Y-94007331D01*
X126344091Y-93872483D01*
X126350500Y-93812873D01*
X126350499Y-92017128D01*
X126345299Y-91968757D01*
X126344091Y-91957516D01*
X126293797Y-91822671D01*
X126293793Y-91822664D01*
X126207547Y-91707455D01*
X126207544Y-91707452D01*
X126092335Y-91621206D01*
X126092328Y-91621202D01*
X125957482Y-91570908D01*
X125957483Y-91570908D01*
X125897883Y-91564501D01*
X125897881Y-91564500D01*
X125897873Y-91564500D01*
X125897864Y-91564500D01*
X124102129Y-91564500D01*
X124102123Y-91564501D01*
X124042516Y-91570908D01*
X123907671Y-91621202D01*
X123907664Y-91621206D01*
X123792455Y-91707452D01*
X123792452Y-91707455D01*
X123706206Y-91822664D01*
X123706202Y-91822671D01*
X123655908Y-91957517D01*
X123649501Y-92017116D01*
X123649501Y-92017123D01*
X123649500Y-92017135D01*
X123649500Y-93812870D01*
X123649501Y-93812876D01*
X123655908Y-93872483D01*
X123706202Y-94007328D01*
X123706206Y-94007335D01*
X123792452Y-94122544D01*
X123792455Y-94122547D01*
X123907664Y-94208793D01*
X123907671Y-94208797D01*
X124039081Y-94257810D01*
X124095015Y-94299681D01*
X124119432Y-94365145D01*
X124104580Y-94433418D01*
X124083430Y-94461673D01*
X123961503Y-94583600D01*
X123825965Y-94777169D01*
X123825964Y-94777171D01*
X123726098Y-94991335D01*
X123726094Y-94991344D01*
X123664938Y-95219586D01*
X123664936Y-95219596D01*
X123644341Y-95454999D01*
X123644341Y-95455000D01*
X123664936Y-95690403D01*
X123664938Y-95690413D01*
X123726094Y-95918655D01*
X123726096Y-95918659D01*
X123726097Y-95918663D01*
X123730503Y-95928111D01*
X123825965Y-96132830D01*
X123825967Y-96132834D01*
X123961501Y-96326395D01*
X123961506Y-96326402D01*
X124128597Y-96493493D01*
X124128603Y-96493498D01*
X124314158Y-96623425D01*
X124357783Y-96678002D01*
X124364977Y-96747500D01*
X124333454Y-96809855D01*
X124314158Y-96826575D01*
X124128597Y-96956505D01*
X123961505Y-97123597D01*
X123825965Y-97317169D01*
X123825964Y-97317171D01*
X123726098Y-97531335D01*
X123726094Y-97531344D01*
X123664938Y-97759586D01*
X123664936Y-97759596D01*
X123644341Y-97994999D01*
X123644341Y-97995000D01*
X122000500Y-97995000D01*
X122000500Y-71124500D01*
X122020185Y-71057461D01*
X122072989Y-71011706D01*
X122124500Y-71000500D01*
X165875500Y-71000500D01*
X165942539Y-71020185D01*
G37*
G04 #@! TD.AperFunction*
M02*
