%TF.GenerationSoftware,KiCad,Pcbnew,7.0.8-7.0.8~ubuntu22.04.1*%
%TF.CreationDate,2023-11-09T22:33:03+02:00*%
%TF.ProjectId,elepajaradio,656c6570-616a-4617-9261-64696f2e6b69,rev?*%
%TF.SameCoordinates,Original*%
%TF.FileFunction,Copper,L2,Bot*%
%TF.FilePolarity,Positive*%
%FSLAX46Y46*%
G04 Gerber Fmt 4.6, Leading zero omitted, Abs format (unit mm)*
G04 Created by KiCad (PCBNEW 7.0.8-7.0.8~ubuntu22.04.1) date 2023-11-09 22:33:03*
%MOMM*%
%LPD*%
G01*
G04 APERTURE LIST*
%TA.AperFunction,NonConductor*%
%ADD10C,0.200000*%
%TD*%
%TA.AperFunction,ComponentPad*%
%ADD11C,3.556000*%
%TD*%
%TA.AperFunction,ComponentPad*%
%ADD12C,3.810000*%
%TD*%
%TA.AperFunction,ComponentPad*%
%ADD13R,1.700000X1.700000*%
%TD*%
%TA.AperFunction,ComponentPad*%
%ADD14O,1.700000X1.700000*%
%TD*%
%TA.AperFunction,ComponentPad*%
%ADD15C,1.500000*%
%TD*%
%TA.AperFunction,ViaPad*%
%ADD16C,0.800000*%
%TD*%
%TA.AperFunction,Conductor*%
%ADD17C,0.250000*%
%TD*%
G04 APERTURE END LIST*
D10*
X122000000Y-71000000D02*
X167000000Y-71000000D01*
X167000000Y-118000000D01*
X122000000Y-118000000D01*
X122000000Y-71000000D01*
D11*
%TO.P,AE1,1,A*%
%TO.N,Net-(AE1-A)*%
X158870000Y-79810000D03*
D12*
%TO.P,AE1,2*%
%TO.N,N/C*%
X162045000Y-82985000D03*
X162045000Y-76635000D03*
X155695000Y-82985000D03*
X155695000Y-76635000D03*
%TD*%
D13*
%TO.P,SW2,1,1*%
%TO.N,Net-(U3-PB0)*%
X140970000Y-114230000D03*
D14*
%TO.P,SW2,2,2*%
%TO.N,VDD*%
X143510000Y-114230000D03*
%TD*%
D13*
%TO.P,J4,1,Pin_1*%
%TO.N,Net-(J4-Pin_1)*%
X125000000Y-80000000D03*
%TD*%
%TO.P,SW3,1,1*%
%TO.N,Net-(U3-PB1)*%
X148590000Y-114230000D03*
D14*
%TO.P,SW3,2,2*%
%TO.N,VDD*%
X151130000Y-114230000D03*
%TD*%
D15*
%TO.P,Y1,1,1*%
%TO.N,Net-(U3-XTAL2{slash}PB7)*%
X133050000Y-104450000D03*
%TO.P,Y1,2,2*%
%TO.N,Net-(U3-XTAL1{slash}PB6)*%
X128150000Y-104450000D03*
%TD*%
D13*
%TO.P,J1,1,Pin_1*%
%TO.N,Net-(J1-Pin_1)*%
X162500000Y-101190000D03*
D14*
%TO.P,J1,2,Pin_2*%
%TO.N,Net-(J1-Pin_2)*%
X162500000Y-103730000D03*
%TO.P,J1,3,Pin_3*%
%TO.N,Net-(J1-Pin_3)*%
X162500000Y-106270000D03*
%TO.P,J1,4,Pin_4*%
%TO.N,Net-(J1-Pin_4)*%
X162500000Y-108810000D03*
%TD*%
D13*
%TO.P,MK1,1,-*%
%TO.N,GND*%
X125000000Y-75000000D03*
D14*
%TO.P,MK1,2,+*%
%TO.N,Net-(MK1-+)*%
X127540000Y-75000000D03*
%TD*%
D13*
%TO.P,SW1,1*%
%TO.N,VDD*%
X125000000Y-92915000D03*
D14*
%TO.P,SW1,2*%
%TO.N,Net-(U3-PD3)*%
X125000000Y-95455000D03*
%TO.P,SW1,3*%
%TO.N,Net-(U3-PD4)*%
X125000000Y-97995000D03*
%TD*%
D13*
%TO.P,J3,1,Pin_1*%
%TO.N,VDD*%
X125000000Y-114230000D03*
D14*
%TO.P,J3,2,Pin_2*%
%TO.N,GND*%
X125000000Y-111690000D03*
%TD*%
D13*
%TO.P,J2,1,Pin_1*%
%TO.N,Net-(J2-Pin_1)*%
X125000000Y-85525000D03*
D14*
%TO.P,J2,2,Pin_2*%
%TO.N,Net-(J2-Pin_2)*%
X125000000Y-88065000D03*
%TD*%
D13*
%TO.P,U2,1,VCC*%
%TO.N,+3.3V*%
X162500000Y-88490000D03*
D14*
%TO.P,U2,2,Data*%
%TO.N,SDA0*%
X162500000Y-91030000D03*
%TO.P,U2,3,Clock*%
%TO.N,SCL0*%
X162500000Y-93570000D03*
%TO.P,U2,4,GND*%
%TO.N,GND*%
X162500000Y-96110000D03*
%TD*%
D16*
%TO.N,GND*%
X143250000Y-88500000D03*
X137587299Y-98412701D03*
%TO.N,VDD*%
X136200000Y-97450000D03*
X150000000Y-100000000D03*
%TO.N,+3.3V*%
X142290000Y-87440000D03*
X157410000Y-88350000D03*
X140137119Y-108740000D03*
%TO.N,3V3*%
X146284156Y-82470000D03*
X134800000Y-80600000D03*
%TO.N,SCL0*%
X144750000Y-90500000D03*
X157300000Y-93610000D03*
%TD*%
D17*
%TO.N,VDD*%
X125000000Y-92915000D02*
X123865000Y-92915000D01*
X123865000Y-92915000D02*
X123200000Y-93580000D01*
X123200000Y-93580000D02*
X123200000Y-103200000D01*
%TO.N,3V3*%
X146284156Y-82470000D02*
X146264156Y-82450000D01*
X146264156Y-82450000D02*
X136650000Y-82450000D01*
X136650000Y-82450000D02*
X134800000Y-80600000D01*
%TO.N,GND*%
X142500000Y-93250000D02*
X145360000Y-96110000D01*
X137587299Y-98412701D02*
X137000000Y-99000000D01*
X145360000Y-96110000D02*
X162500000Y-96110000D01*
X143250000Y-88500000D02*
X142500000Y-89250000D01*
X142500000Y-89250000D02*
X142500000Y-93250000D01*
%TO.N,VDD*%
X151130000Y-112600000D02*
X149930000Y-111400000D01*
X151130000Y-101130000D02*
X151130000Y-112600000D01*
X123200000Y-112430000D02*
X125000000Y-114230000D01*
X149930000Y-111400000D02*
X145000000Y-111400000D01*
X151130000Y-112600000D02*
X151130000Y-114230000D01*
X127770000Y-114230000D02*
X125000000Y-114230000D01*
X136200000Y-97450000D02*
X128950000Y-97450000D01*
X142020000Y-111400000D02*
X130600000Y-111400000D01*
X130600000Y-111400000D02*
X127770000Y-114230000D01*
X145000000Y-111400000D02*
X143510000Y-112890000D01*
X143510000Y-112890000D02*
X143510000Y-114230000D01*
X143510000Y-112890000D02*
X142020000Y-111400000D01*
X123200000Y-103200000D02*
X123200000Y-112430000D01*
X150000000Y-100000000D02*
X151130000Y-101130000D01*
X128950000Y-97450000D02*
X123200000Y-103200000D01*
%TO.N,+3.3V*%
X157410000Y-88350000D02*
X156500000Y-87440000D01*
X141478000Y-88252000D02*
X141478000Y-107399119D01*
X156500000Y-87440000D02*
X142290000Y-87440000D01*
X142290000Y-87440000D02*
X141478000Y-88252000D01*
X141478000Y-107399119D02*
X140137119Y-108740000D01*
X142715305Y-87440000D02*
X142290000Y-87440000D01*
%TO.N,SCL0*%
X147860000Y-93610000D02*
X157300000Y-93610000D01*
X144750000Y-90500000D02*
X147860000Y-93610000D01*
%TD*%
%TA.AperFunction,Conductor*%
%TO.N,GND*%
G36*
X166342539Y-71620185D02*
G01*
X166388294Y-71672989D01*
X166399500Y-71724500D01*
X166399500Y-117275500D01*
X166379815Y-117342539D01*
X166327011Y-117388294D01*
X166275500Y-117399500D01*
X122724500Y-117399500D01*
X122657461Y-117379815D01*
X122611706Y-117327011D01*
X122600500Y-117275500D01*
X122600500Y-113014452D01*
X122620185Y-112947413D01*
X122672989Y-112901658D01*
X122742147Y-112891714D01*
X122805703Y-112920739D01*
X122812181Y-112926771D01*
X123613181Y-113727771D01*
X123646666Y-113789094D01*
X123649500Y-113815452D01*
X123649500Y-115127870D01*
X123649501Y-115127876D01*
X123655908Y-115187483D01*
X123706202Y-115322328D01*
X123706206Y-115322335D01*
X123792452Y-115437544D01*
X123792455Y-115437547D01*
X123907664Y-115523793D01*
X123907671Y-115523797D01*
X124042517Y-115574091D01*
X124042516Y-115574091D01*
X124049444Y-115574835D01*
X124102127Y-115580500D01*
X125897872Y-115580499D01*
X125957483Y-115574091D01*
X126092331Y-115523796D01*
X126207546Y-115437546D01*
X126293796Y-115322331D01*
X126344091Y-115187483D01*
X126350500Y-115127873D01*
X126350500Y-114979500D01*
X126370185Y-114912461D01*
X126422989Y-114866706D01*
X126474500Y-114855500D01*
X127687257Y-114855500D01*
X127702877Y-114857224D01*
X127702904Y-114856939D01*
X127710660Y-114857671D01*
X127710667Y-114857673D01*
X127779814Y-114855500D01*
X127809350Y-114855500D01*
X127816228Y-114854630D01*
X127822041Y-114854172D01*
X127868627Y-114852709D01*
X127887869Y-114847117D01*
X127906912Y-114843174D01*
X127926792Y-114840664D01*
X127970122Y-114823507D01*
X127975646Y-114821617D01*
X127979396Y-114820527D01*
X128020390Y-114808618D01*
X128037629Y-114798422D01*
X128055103Y-114789862D01*
X128073727Y-114782488D01*
X128073727Y-114782487D01*
X128073732Y-114782486D01*
X128111449Y-114755082D01*
X128116305Y-114751892D01*
X128156420Y-114728170D01*
X128170589Y-114713999D01*
X128185379Y-114701368D01*
X128201587Y-114689594D01*
X128231299Y-114653676D01*
X128235212Y-114649376D01*
X130822772Y-112061819D01*
X130884095Y-112028334D01*
X130910453Y-112025500D01*
X141709548Y-112025500D01*
X141776587Y-112045185D01*
X141797229Y-112061819D01*
X142703680Y-112968271D01*
X142737165Y-113029594D01*
X142732181Y-113099286D01*
X142690309Y-113155219D01*
X142687125Y-113157525D01*
X142638603Y-113191501D01*
X142516673Y-113313431D01*
X142455350Y-113346915D01*
X142385658Y-113341931D01*
X142329725Y-113300059D01*
X142312810Y-113269082D01*
X142263797Y-113137671D01*
X142263793Y-113137664D01*
X142177547Y-113022455D01*
X142177544Y-113022452D01*
X142062335Y-112936206D01*
X142062328Y-112936202D01*
X141927482Y-112885908D01*
X141927483Y-112885908D01*
X141867883Y-112879501D01*
X141867881Y-112879500D01*
X141867873Y-112879500D01*
X141867864Y-112879500D01*
X140072129Y-112879500D01*
X140072123Y-112879501D01*
X140012516Y-112885908D01*
X139877671Y-112936202D01*
X139877664Y-112936206D01*
X139762455Y-113022452D01*
X139762452Y-113022455D01*
X139676206Y-113137664D01*
X139676202Y-113137671D01*
X139625908Y-113272517D01*
X139621510Y-113313430D01*
X139619501Y-113332123D01*
X139619500Y-113332135D01*
X139619500Y-115127870D01*
X139619501Y-115127876D01*
X139625908Y-115187483D01*
X139676202Y-115322328D01*
X139676206Y-115322335D01*
X139762452Y-115437544D01*
X139762455Y-115437547D01*
X139877664Y-115523793D01*
X139877671Y-115523797D01*
X140012517Y-115574091D01*
X140012516Y-115574091D01*
X140019444Y-115574835D01*
X140072127Y-115580500D01*
X141867872Y-115580499D01*
X141927483Y-115574091D01*
X142062331Y-115523796D01*
X142177546Y-115437546D01*
X142263796Y-115322331D01*
X142312810Y-115190916D01*
X142354681Y-115134984D01*
X142420145Y-115110566D01*
X142488418Y-115125417D01*
X142516673Y-115146569D01*
X142638599Y-115268495D01*
X142735384Y-115336265D01*
X142832165Y-115404032D01*
X142832167Y-115404033D01*
X142832170Y-115404035D01*
X143046337Y-115503903D01*
X143274592Y-115565063D01*
X143451034Y-115580500D01*
X143509999Y-115585659D01*
X143510000Y-115585659D01*
X143510001Y-115585659D01*
X143568966Y-115580500D01*
X143745408Y-115565063D01*
X143973663Y-115503903D01*
X144187830Y-115404035D01*
X144381401Y-115268495D01*
X144548495Y-115101401D01*
X144684035Y-114907830D01*
X144783903Y-114693663D01*
X144845063Y-114465408D01*
X144865659Y-114230000D01*
X144845063Y-113994592D01*
X144783903Y-113766337D01*
X144684035Y-113552171D01*
X144548495Y-113358599D01*
X144548494Y-113358597D01*
X144381404Y-113191508D01*
X144381402Y-113191506D01*
X144381401Y-113191505D01*
X144375785Y-113187572D01*
X144332874Y-113157525D01*
X144289250Y-113102947D01*
X144282058Y-113033449D01*
X144313581Y-112971094D01*
X144316280Y-112968308D01*
X145222772Y-112061819D01*
X145284095Y-112028334D01*
X145310453Y-112025500D01*
X149619548Y-112025500D01*
X149686587Y-112045185D01*
X149707229Y-112061819D01*
X150468181Y-112822771D01*
X150501666Y-112884094D01*
X150504500Y-112910452D01*
X150504500Y-112954773D01*
X150484815Y-113021812D01*
X150451623Y-113056348D01*
X150258600Y-113191503D01*
X150136673Y-113313430D01*
X150075350Y-113346914D01*
X150005658Y-113341930D01*
X149949725Y-113300058D01*
X149932810Y-113269081D01*
X149883797Y-113137671D01*
X149883793Y-113137664D01*
X149797547Y-113022455D01*
X149797544Y-113022452D01*
X149682335Y-112936206D01*
X149682328Y-112936202D01*
X149547482Y-112885908D01*
X149547483Y-112885908D01*
X149487883Y-112879501D01*
X149487881Y-112879500D01*
X149487873Y-112879500D01*
X149487864Y-112879500D01*
X147692129Y-112879500D01*
X147692123Y-112879501D01*
X147632516Y-112885908D01*
X147497671Y-112936202D01*
X147497664Y-112936206D01*
X147382455Y-113022452D01*
X147382452Y-113022455D01*
X147296206Y-113137664D01*
X147296202Y-113137671D01*
X147245908Y-113272517D01*
X147241510Y-113313430D01*
X147239501Y-113332123D01*
X147239500Y-113332135D01*
X147239500Y-115127870D01*
X147239501Y-115127876D01*
X147245908Y-115187483D01*
X147296202Y-115322328D01*
X147296206Y-115322335D01*
X147382452Y-115437544D01*
X147382455Y-115437547D01*
X147497664Y-115523793D01*
X147497671Y-115523797D01*
X147632517Y-115574091D01*
X147632516Y-115574091D01*
X147639444Y-115574835D01*
X147692127Y-115580500D01*
X149487872Y-115580499D01*
X149547483Y-115574091D01*
X149682331Y-115523796D01*
X149797546Y-115437546D01*
X149883796Y-115322331D01*
X149932810Y-115190916D01*
X149974681Y-115134984D01*
X150040145Y-115110566D01*
X150108418Y-115125417D01*
X150136673Y-115146569D01*
X150258599Y-115268495D01*
X150355384Y-115336265D01*
X150452165Y-115404032D01*
X150452167Y-115404033D01*
X150452170Y-115404035D01*
X150666337Y-115503903D01*
X150894592Y-115565063D01*
X151071034Y-115580500D01*
X151129999Y-115585659D01*
X151130000Y-115585659D01*
X151130001Y-115585659D01*
X151188966Y-115580500D01*
X151365408Y-115565063D01*
X151593663Y-115503903D01*
X151807830Y-115404035D01*
X152001401Y-115268495D01*
X152168495Y-115101401D01*
X152304035Y-114907830D01*
X152403903Y-114693663D01*
X152465063Y-114465408D01*
X152485659Y-114230000D01*
X152465063Y-113994592D01*
X152403903Y-113766337D01*
X152304035Y-113552171D01*
X152168495Y-113358599D01*
X152168494Y-113358597D01*
X152001402Y-113191506D01*
X152001401Y-113191505D01*
X151868093Y-113098161D01*
X151808376Y-113056347D01*
X151764751Y-113001770D01*
X151755500Y-112954772D01*
X151755500Y-112682737D01*
X151757224Y-112667123D01*
X151756938Y-112667096D01*
X151757672Y-112659333D01*
X151755500Y-112590203D01*
X151755500Y-108810000D01*
X161144341Y-108810000D01*
X161164936Y-109045403D01*
X161164938Y-109045413D01*
X161226094Y-109273655D01*
X161226096Y-109273659D01*
X161226097Y-109273663D01*
X161291019Y-109412888D01*
X161325965Y-109487830D01*
X161325967Y-109487834D01*
X161351395Y-109524148D01*
X161461505Y-109681401D01*
X161628599Y-109848495D01*
X161725384Y-109916265D01*
X161822165Y-109984032D01*
X161822167Y-109984033D01*
X161822170Y-109984035D01*
X162036337Y-110083903D01*
X162264592Y-110145063D01*
X162452918Y-110161539D01*
X162499999Y-110165659D01*
X162500000Y-110165659D01*
X162500001Y-110165659D01*
X162539234Y-110162226D01*
X162735408Y-110145063D01*
X162963663Y-110083903D01*
X163177830Y-109984035D01*
X163371401Y-109848495D01*
X163538495Y-109681401D01*
X163674035Y-109487830D01*
X163773903Y-109273663D01*
X163835063Y-109045408D01*
X163855659Y-108810000D01*
X163835063Y-108574592D01*
X163773903Y-108346337D01*
X163674035Y-108132171D01*
X163628481Y-108067112D01*
X163538494Y-107938597D01*
X163371402Y-107771506D01*
X163371396Y-107771501D01*
X163185842Y-107641575D01*
X163142217Y-107586998D01*
X163135023Y-107517500D01*
X163166546Y-107455145D01*
X163185842Y-107438425D01*
X163288281Y-107366696D01*
X163371401Y-107308495D01*
X163538495Y-107141401D01*
X163674035Y-106947830D01*
X163773903Y-106733663D01*
X163835063Y-106505408D01*
X163855659Y-106270000D01*
X163835063Y-106034592D01*
X163773903Y-105806337D01*
X163674035Y-105592171D01*
X163635476Y-105537102D01*
X163538494Y-105398597D01*
X163371402Y-105231506D01*
X163371396Y-105231501D01*
X163185842Y-105101575D01*
X163142217Y-105046998D01*
X163135023Y-104977500D01*
X163166546Y-104915145D01*
X163185842Y-104898425D01*
X163213124Y-104879322D01*
X163371401Y-104768495D01*
X163538495Y-104601401D01*
X163674035Y-104407830D01*
X163773903Y-104193663D01*
X163835063Y-103965408D01*
X163855659Y-103730000D01*
X163835063Y-103494592D01*
X163773903Y-103266337D01*
X163674035Y-103052171D01*
X163538495Y-102858599D01*
X163416567Y-102736671D01*
X163383084Y-102675351D01*
X163388068Y-102605659D01*
X163429939Y-102549725D01*
X163460915Y-102532810D01*
X163592331Y-102483796D01*
X163707546Y-102397546D01*
X163793796Y-102282331D01*
X163844091Y-102147483D01*
X163850500Y-102087873D01*
X163850499Y-100292128D01*
X163844091Y-100232517D01*
X163793796Y-100097669D01*
X163793795Y-100097668D01*
X163793793Y-100097664D01*
X163707547Y-99982455D01*
X163707544Y-99982452D01*
X163592335Y-99896206D01*
X163592328Y-99896202D01*
X163457482Y-99845908D01*
X163457483Y-99845908D01*
X163397883Y-99839501D01*
X163397881Y-99839500D01*
X163397873Y-99839500D01*
X163397864Y-99839500D01*
X161602129Y-99839500D01*
X161602123Y-99839501D01*
X161542516Y-99845908D01*
X161407671Y-99896202D01*
X161407664Y-99896206D01*
X161292455Y-99982452D01*
X161292452Y-99982455D01*
X161206206Y-100097664D01*
X161206202Y-100097671D01*
X161155908Y-100232517D01*
X161149501Y-100292116D01*
X161149501Y-100292123D01*
X161149500Y-100292135D01*
X161149500Y-102087870D01*
X161149501Y-102087876D01*
X161155908Y-102147483D01*
X161206202Y-102282328D01*
X161206206Y-102282335D01*
X161292452Y-102397544D01*
X161292455Y-102397547D01*
X161407664Y-102483793D01*
X161407671Y-102483797D01*
X161539081Y-102532810D01*
X161595015Y-102574681D01*
X161619432Y-102640145D01*
X161604580Y-102708418D01*
X161583430Y-102736673D01*
X161461503Y-102858600D01*
X161325965Y-103052169D01*
X161325964Y-103052171D01*
X161226098Y-103266335D01*
X161226094Y-103266344D01*
X161164938Y-103494586D01*
X161164936Y-103494596D01*
X161144341Y-103729999D01*
X161144341Y-103730000D01*
X161164936Y-103965403D01*
X161164938Y-103965413D01*
X161226094Y-104193655D01*
X161226096Y-104193659D01*
X161226097Y-104193663D01*
X161325965Y-104407830D01*
X161325967Y-104407834D01*
X161461501Y-104601395D01*
X161461506Y-104601402D01*
X161628597Y-104768493D01*
X161628603Y-104768498D01*
X161814158Y-104898425D01*
X161857783Y-104953002D01*
X161864977Y-105022500D01*
X161833454Y-105084855D01*
X161814158Y-105101575D01*
X161628597Y-105231505D01*
X161461505Y-105398597D01*
X161325965Y-105592169D01*
X161325964Y-105592171D01*
X161226098Y-105806335D01*
X161226094Y-105806344D01*
X161164938Y-106034586D01*
X161164936Y-106034596D01*
X161144341Y-106269999D01*
X161144341Y-106270000D01*
X161164936Y-106505403D01*
X161164938Y-106505413D01*
X161226094Y-106733655D01*
X161226096Y-106733659D01*
X161226097Y-106733663D01*
X161325965Y-106947830D01*
X161325967Y-106947834D01*
X161461501Y-107141395D01*
X161461506Y-107141402D01*
X161628597Y-107308493D01*
X161628603Y-107308498D01*
X161814158Y-107438425D01*
X161857783Y-107493002D01*
X161864977Y-107562500D01*
X161833454Y-107624855D01*
X161814158Y-107641575D01*
X161628597Y-107771505D01*
X161461505Y-107938597D01*
X161325965Y-108132169D01*
X161325964Y-108132171D01*
X161226098Y-108346335D01*
X161226094Y-108346344D01*
X161164938Y-108574586D01*
X161164936Y-108574596D01*
X161144341Y-108809999D01*
X161144341Y-108810000D01*
X151755500Y-108810000D01*
X151755500Y-101212737D01*
X151757224Y-101197123D01*
X151756938Y-101197096D01*
X151757672Y-101189333D01*
X151755500Y-101120203D01*
X151755500Y-101090651D01*
X151755500Y-101090650D01*
X151754629Y-101083759D01*
X151754172Y-101077945D01*
X151752709Y-101031373D01*
X151747121Y-101012139D01*
X151743174Y-100993081D01*
X151740664Y-100973208D01*
X151723507Y-100929875D01*
X151721614Y-100924346D01*
X151708618Y-100879614D01*
X151708617Y-100879610D01*
X151698420Y-100862368D01*
X151689863Y-100844902D01*
X151682486Y-100826268D01*
X151655083Y-100788550D01*
X151651900Y-100783705D01*
X151628170Y-100743579D01*
X151628165Y-100743573D01*
X151614005Y-100729413D01*
X151601370Y-100714620D01*
X151589593Y-100698412D01*
X151553693Y-100668713D01*
X151549381Y-100664790D01*
X150938960Y-100054369D01*
X150905475Y-99993046D01*
X150903323Y-99979668D01*
X150885674Y-99811744D01*
X150827179Y-99631716D01*
X150732533Y-99467784D01*
X150605871Y-99327112D01*
X150525756Y-99268905D01*
X150452734Y-99215851D01*
X150452729Y-99215848D01*
X150279807Y-99138857D01*
X150279802Y-99138855D01*
X150134001Y-99107865D01*
X150094646Y-99099500D01*
X149905354Y-99099500D01*
X149872897Y-99106398D01*
X149720197Y-99138855D01*
X149720192Y-99138857D01*
X149547270Y-99215848D01*
X149547265Y-99215851D01*
X149394129Y-99327111D01*
X149267466Y-99467785D01*
X149172821Y-99631715D01*
X149172818Y-99631722D01*
X149114327Y-99811740D01*
X149114326Y-99811744D01*
X149094540Y-100000000D01*
X149114326Y-100188256D01*
X149114327Y-100188259D01*
X149172818Y-100368277D01*
X149172821Y-100368284D01*
X149267467Y-100532216D01*
X149386829Y-100664780D01*
X149394129Y-100672888D01*
X149547265Y-100784148D01*
X149547270Y-100784151D01*
X149720192Y-100861142D01*
X149720197Y-100861144D01*
X149905354Y-100900500D01*
X149964548Y-100900500D01*
X150031587Y-100920185D01*
X150052229Y-100936819D01*
X150468181Y-101352771D01*
X150501666Y-101414094D01*
X150504500Y-101440452D01*
X150504500Y-110794882D01*
X150484815Y-110861921D01*
X150432011Y-110907676D01*
X150362853Y-110917620D01*
X150308235Y-110892677D01*
X150306894Y-110894524D01*
X150300584Y-110889940D01*
X150300582Y-110889938D01*
X150283029Y-110880288D01*
X150266763Y-110869604D01*
X150250936Y-110857327D01*
X150250935Y-110857326D01*
X150250933Y-110857325D01*
X150208168Y-110838818D01*
X150202922Y-110836248D01*
X150162093Y-110813803D01*
X150162092Y-110813802D01*
X150142693Y-110808822D01*
X150124281Y-110802518D01*
X150105898Y-110794562D01*
X150105892Y-110794560D01*
X150059874Y-110787272D01*
X150054152Y-110786087D01*
X150009021Y-110774500D01*
X150009019Y-110774500D01*
X149988984Y-110774500D01*
X149969586Y-110772973D01*
X149962162Y-110771797D01*
X149949805Y-110769840D01*
X149949804Y-110769840D01*
X149903416Y-110774225D01*
X149897578Y-110774500D01*
X145082737Y-110774500D01*
X145067120Y-110772776D01*
X145067093Y-110773062D01*
X145059331Y-110772327D01*
X144990203Y-110774500D01*
X144960650Y-110774500D01*
X144959929Y-110774590D01*
X144953757Y-110775369D01*
X144947945Y-110775826D01*
X144901373Y-110777290D01*
X144901372Y-110777290D01*
X144882129Y-110782881D01*
X144863079Y-110786825D01*
X144843211Y-110789334D01*
X144843209Y-110789335D01*
X144799884Y-110806488D01*
X144794357Y-110808380D01*
X144749610Y-110821381D01*
X144749609Y-110821382D01*
X144732367Y-110831579D01*
X144714899Y-110840137D01*
X144696269Y-110847513D01*
X144696267Y-110847514D01*
X144658576Y-110874898D01*
X144653694Y-110878105D01*
X144613579Y-110901830D01*
X144599408Y-110916000D01*
X144584623Y-110928628D01*
X144568412Y-110940407D01*
X144538709Y-110976310D01*
X144534777Y-110980631D01*
X143597680Y-111917727D01*
X143536357Y-111951212D01*
X143466665Y-111946228D01*
X143422318Y-111917727D01*
X142520803Y-111016212D01*
X142510980Y-111003950D01*
X142510759Y-111004134D01*
X142505786Y-110998123D01*
X142487159Y-110980631D01*
X142455364Y-110950773D01*
X142444919Y-110940328D01*
X142434475Y-110929883D01*
X142428986Y-110925625D01*
X142424561Y-110921847D01*
X142390582Y-110889938D01*
X142390580Y-110889936D01*
X142390577Y-110889935D01*
X142373029Y-110880288D01*
X142356763Y-110869604D01*
X142340936Y-110857327D01*
X142340935Y-110857326D01*
X142340933Y-110857325D01*
X142298168Y-110838818D01*
X142292922Y-110836248D01*
X142252093Y-110813803D01*
X142252092Y-110813802D01*
X142232693Y-110808822D01*
X142214281Y-110802518D01*
X142195898Y-110794562D01*
X142195892Y-110794560D01*
X142149874Y-110787272D01*
X142144152Y-110786087D01*
X142099021Y-110774500D01*
X142099019Y-110774500D01*
X142078984Y-110774500D01*
X142059586Y-110772973D01*
X142052162Y-110771797D01*
X142039805Y-110769840D01*
X142039804Y-110769840D01*
X141993416Y-110774225D01*
X141987578Y-110774500D01*
X130682737Y-110774500D01*
X130667120Y-110772776D01*
X130667093Y-110773062D01*
X130659331Y-110772327D01*
X130590203Y-110774500D01*
X130560650Y-110774500D01*
X130559929Y-110774590D01*
X130553757Y-110775369D01*
X130547945Y-110775826D01*
X130501372Y-110777290D01*
X130501369Y-110777291D01*
X130482126Y-110782881D01*
X130463083Y-110786825D01*
X130443204Y-110789336D01*
X130443203Y-110789337D01*
X130399878Y-110806490D01*
X130394352Y-110808382D01*
X130349608Y-110821383D01*
X130349604Y-110821385D01*
X130332365Y-110831580D01*
X130314898Y-110840137D01*
X130296269Y-110847512D01*
X130296267Y-110847513D01*
X130258564Y-110874906D01*
X130253682Y-110878112D01*
X130213580Y-110901828D01*
X130199408Y-110916000D01*
X130184623Y-110928628D01*
X130168412Y-110940407D01*
X130138709Y-110976310D01*
X130134777Y-110980631D01*
X127547228Y-113568181D01*
X127485905Y-113601666D01*
X127459547Y-113604500D01*
X126474499Y-113604500D01*
X126407460Y-113584815D01*
X126361705Y-113532011D01*
X126350499Y-113480500D01*
X126350499Y-113332129D01*
X126350498Y-113332123D01*
X126350497Y-113332116D01*
X126344091Y-113272517D01*
X126342809Y-113269081D01*
X126293797Y-113137671D01*
X126293793Y-113137664D01*
X126207547Y-113022455D01*
X126207544Y-113022452D01*
X126092335Y-112936206D01*
X126092328Y-112936202D01*
X125960401Y-112886997D01*
X125904467Y-112845126D01*
X125880050Y-112779662D01*
X125894902Y-112711389D01*
X125916053Y-112683133D01*
X126038108Y-112561078D01*
X126173600Y-112367578D01*
X126273429Y-112153492D01*
X126273432Y-112153486D01*
X126330636Y-111940000D01*
X125433686Y-111940000D01*
X125459493Y-111899844D01*
X125500000Y-111761889D01*
X125500000Y-111618111D01*
X125459493Y-111480156D01*
X125433686Y-111440000D01*
X126330636Y-111440000D01*
X126330635Y-111439999D01*
X126273432Y-111226513D01*
X126273429Y-111226507D01*
X126173600Y-111012422D01*
X126173599Y-111012420D01*
X126038113Y-110818926D01*
X126038108Y-110818920D01*
X125871082Y-110651894D01*
X125677578Y-110516399D01*
X125463492Y-110416570D01*
X125463486Y-110416567D01*
X125250000Y-110359364D01*
X125250000Y-111254498D01*
X125142315Y-111205320D01*
X125035763Y-111190000D01*
X124964237Y-111190000D01*
X124857685Y-111205320D01*
X124750000Y-111254498D01*
X124750000Y-110359364D01*
X124749999Y-110359364D01*
X124536513Y-110416567D01*
X124536507Y-110416570D01*
X124322422Y-110516399D01*
X124322420Y-110516400D01*
X124128926Y-110651886D01*
X124128920Y-110651891D01*
X124037181Y-110743631D01*
X123975858Y-110777116D01*
X123906166Y-110772132D01*
X123850233Y-110730260D01*
X123825816Y-110664796D01*
X123825500Y-110655950D01*
X123825500Y-108740000D01*
X139231659Y-108740000D01*
X139251445Y-108928256D01*
X139251446Y-108928259D01*
X139309937Y-109108277D01*
X139309940Y-109108284D01*
X139404586Y-109272216D01*
X139531248Y-109412888D01*
X139684384Y-109524148D01*
X139684389Y-109524151D01*
X139857311Y-109601142D01*
X139857316Y-109601144D01*
X140042473Y-109640500D01*
X140042474Y-109640500D01*
X140231763Y-109640500D01*
X140231765Y-109640500D01*
X140416922Y-109601144D01*
X140589849Y-109524151D01*
X140742990Y-109412888D01*
X140869652Y-109272216D01*
X140964298Y-109108284D01*
X141022793Y-108928256D01*
X141040440Y-108760344D01*
X141067023Y-108695734D01*
X141076070Y-108685638D01*
X141861788Y-107899920D01*
X141874042Y-107890105D01*
X141873859Y-107889883D01*
X141879866Y-107884911D01*
X141879877Y-107884905D01*
X141922515Y-107839500D01*
X141927227Y-107834483D01*
X141937671Y-107824037D01*
X141948120Y-107813590D01*
X141952379Y-107808097D01*
X141956152Y-107803680D01*
X141988062Y-107769701D01*
X141997713Y-107752143D01*
X142008396Y-107735880D01*
X142020673Y-107720055D01*
X142039185Y-107677272D01*
X142041738Y-107672060D01*
X142064197Y-107631211D01*
X142069180Y-107611799D01*
X142075481Y-107593399D01*
X142083437Y-107575015D01*
X142090729Y-107528971D01*
X142091906Y-107523290D01*
X142103500Y-107478138D01*
X142103500Y-107458102D01*
X142105027Y-107438701D01*
X142105071Y-107438425D01*
X142108160Y-107418923D01*
X142103775Y-107372534D01*
X142103500Y-107366696D01*
X142103500Y-90500000D01*
X143844540Y-90500000D01*
X143864326Y-90688256D01*
X143864327Y-90688259D01*
X143922818Y-90868277D01*
X143922821Y-90868284D01*
X144017467Y-91032216D01*
X144144129Y-91172888D01*
X144297265Y-91284148D01*
X144297270Y-91284151D01*
X144470192Y-91361142D01*
X144470197Y-91361144D01*
X144655354Y-91400500D01*
X144714548Y-91400500D01*
X144781587Y-91420185D01*
X144802228Y-91436818D01*
X146114264Y-92748855D01*
X147359197Y-93993788D01*
X147369022Y-94006051D01*
X147369243Y-94005869D01*
X147374214Y-94011878D01*
X147400217Y-94036295D01*
X147424635Y-94059226D01*
X147445529Y-94080120D01*
X147451011Y-94084373D01*
X147455443Y-94088157D01*
X147489418Y-94120062D01*
X147506976Y-94129714D01*
X147523235Y-94140395D01*
X147539064Y-94152673D01*
X147581838Y-94171182D01*
X147587056Y-94173738D01*
X147627908Y-94196197D01*
X147647316Y-94201180D01*
X147665717Y-94207480D01*
X147684104Y-94215437D01*
X147727488Y-94222308D01*
X147730119Y-94222725D01*
X147735839Y-94223909D01*
X147780981Y-94235500D01*
X147801016Y-94235500D01*
X147820414Y-94237026D01*
X147840194Y-94240159D01*
X147840195Y-94240160D01*
X147840195Y-94240159D01*
X147840196Y-94240160D01*
X147886584Y-94235775D01*
X147892422Y-94235500D01*
X156596252Y-94235500D01*
X156663291Y-94255185D01*
X156688400Y-94276526D01*
X156694126Y-94282885D01*
X156694130Y-94282889D01*
X156847265Y-94394148D01*
X156847270Y-94394151D01*
X157020192Y-94471142D01*
X157020197Y-94471144D01*
X157205354Y-94510500D01*
X157205355Y-94510500D01*
X157394644Y-94510500D01*
X157394646Y-94510500D01*
X157579803Y-94471144D01*
X157752730Y-94394151D01*
X157905871Y-94282888D01*
X158032533Y-94142216D01*
X158127179Y-93978284D01*
X158185674Y-93798256D01*
X158205460Y-93610000D01*
X158201256Y-93570000D01*
X161144341Y-93570000D01*
X161164936Y-93805403D01*
X161164938Y-93805413D01*
X161226094Y-94033655D01*
X161226096Y-94033659D01*
X161226097Y-94033663D01*
X161290220Y-94171174D01*
X161325965Y-94247830D01*
X161325967Y-94247834D01*
X161461501Y-94441395D01*
X161461506Y-94441402D01*
X161628597Y-94608493D01*
X161628603Y-94608498D01*
X161814594Y-94738730D01*
X161858219Y-94793307D01*
X161865413Y-94862805D01*
X161833890Y-94925160D01*
X161814595Y-94941880D01*
X161628922Y-95071890D01*
X161628920Y-95071891D01*
X161461891Y-95238920D01*
X161461886Y-95238926D01*
X161326400Y-95432420D01*
X161326399Y-95432422D01*
X161226570Y-95646507D01*
X161226567Y-95646513D01*
X161169364Y-95859999D01*
X161169364Y-95860000D01*
X162066314Y-95860000D01*
X162040507Y-95900156D01*
X162000000Y-96038111D01*
X162000000Y-96181889D01*
X162040507Y-96319844D01*
X162066314Y-96360000D01*
X161169364Y-96360000D01*
X161226567Y-96573486D01*
X161226570Y-96573492D01*
X161326399Y-96787578D01*
X161461894Y-96981082D01*
X161628917Y-97148105D01*
X161822421Y-97283600D01*
X162036507Y-97383429D01*
X162036516Y-97383433D01*
X162250000Y-97440634D01*
X162250000Y-96545501D01*
X162357685Y-96594680D01*
X162464237Y-96610000D01*
X162535763Y-96610000D01*
X162642315Y-96594680D01*
X162750000Y-96545501D01*
X162750000Y-97440633D01*
X162963483Y-97383433D01*
X162963492Y-97383429D01*
X163177578Y-97283600D01*
X163371082Y-97148105D01*
X163538105Y-96981082D01*
X163673600Y-96787578D01*
X163773429Y-96573492D01*
X163773432Y-96573486D01*
X163830636Y-96360000D01*
X162933686Y-96360000D01*
X162959493Y-96319844D01*
X163000000Y-96181889D01*
X163000000Y-96038111D01*
X162959493Y-95900156D01*
X162933686Y-95860000D01*
X163830636Y-95860000D01*
X163830635Y-95859999D01*
X163773432Y-95646513D01*
X163773429Y-95646507D01*
X163673600Y-95432422D01*
X163673599Y-95432420D01*
X163538113Y-95238926D01*
X163538108Y-95238920D01*
X163371078Y-95071890D01*
X163185405Y-94941879D01*
X163141780Y-94887302D01*
X163134588Y-94817804D01*
X163166110Y-94755449D01*
X163185406Y-94738730D01*
X163371401Y-94608495D01*
X163538495Y-94441401D01*
X163674035Y-94247830D01*
X163773903Y-94033663D01*
X163835063Y-93805408D01*
X163855659Y-93570000D01*
X163835063Y-93334592D01*
X163773903Y-93106337D01*
X163674035Y-92892171D01*
X163627598Y-92825851D01*
X163538494Y-92698597D01*
X163371402Y-92531506D01*
X163371396Y-92531501D01*
X163185842Y-92401575D01*
X163142217Y-92346998D01*
X163135023Y-92277500D01*
X163166546Y-92215145D01*
X163185842Y-92198425D01*
X163208026Y-92182891D01*
X163371401Y-92068495D01*
X163538495Y-91901401D01*
X163674035Y-91707830D01*
X163773903Y-91493663D01*
X163835063Y-91265408D01*
X163855659Y-91030000D01*
X163835063Y-90794592D01*
X163773903Y-90566337D01*
X163674035Y-90352171D01*
X163538495Y-90158599D01*
X163416567Y-90036671D01*
X163383084Y-89975351D01*
X163388068Y-89905659D01*
X163429939Y-89849725D01*
X163460915Y-89832810D01*
X163592331Y-89783796D01*
X163707546Y-89697546D01*
X163793796Y-89582331D01*
X163844091Y-89447483D01*
X163850500Y-89387873D01*
X163850499Y-87592128D01*
X163844091Y-87532517D01*
X163829862Y-87494368D01*
X163793797Y-87397671D01*
X163793793Y-87397664D01*
X163707547Y-87282455D01*
X163707544Y-87282452D01*
X163592335Y-87196206D01*
X163592328Y-87196202D01*
X163457482Y-87145908D01*
X163457483Y-87145908D01*
X163397883Y-87139501D01*
X163397881Y-87139500D01*
X163397873Y-87139500D01*
X163397864Y-87139500D01*
X161602129Y-87139500D01*
X161602123Y-87139501D01*
X161542516Y-87145908D01*
X161407671Y-87196202D01*
X161407664Y-87196206D01*
X161292455Y-87282452D01*
X161292452Y-87282455D01*
X161206206Y-87397664D01*
X161206202Y-87397671D01*
X161155908Y-87532517D01*
X161152325Y-87565848D01*
X161149501Y-87592123D01*
X161149500Y-87592135D01*
X161149500Y-89387870D01*
X161149501Y-89387876D01*
X161155908Y-89447483D01*
X161206202Y-89582328D01*
X161206206Y-89582335D01*
X161292452Y-89697544D01*
X161292455Y-89697547D01*
X161407664Y-89783793D01*
X161407671Y-89783797D01*
X161539081Y-89832810D01*
X161595015Y-89874681D01*
X161619432Y-89940145D01*
X161604580Y-90008418D01*
X161583430Y-90036673D01*
X161461503Y-90158600D01*
X161325965Y-90352169D01*
X161325964Y-90352171D01*
X161226098Y-90566335D01*
X161226094Y-90566344D01*
X161164938Y-90794586D01*
X161164936Y-90794596D01*
X161144341Y-91029999D01*
X161144341Y-91030000D01*
X161164936Y-91265403D01*
X161164938Y-91265413D01*
X161226094Y-91493655D01*
X161226096Y-91493659D01*
X161226097Y-91493663D01*
X161325789Y-91707452D01*
X161325965Y-91707830D01*
X161325967Y-91707834D01*
X161461501Y-91901395D01*
X161461506Y-91901402D01*
X161628597Y-92068493D01*
X161628603Y-92068498D01*
X161814158Y-92198425D01*
X161857783Y-92253002D01*
X161864977Y-92322500D01*
X161833454Y-92384855D01*
X161814158Y-92401575D01*
X161628597Y-92531505D01*
X161461505Y-92698597D01*
X161325965Y-92892169D01*
X161325964Y-92892171D01*
X161226098Y-93106335D01*
X161226094Y-93106344D01*
X161164938Y-93334586D01*
X161164936Y-93334596D01*
X161144341Y-93569999D01*
X161144341Y-93570000D01*
X158201256Y-93570000D01*
X158185674Y-93421744D01*
X158127179Y-93241716D01*
X158032533Y-93077784D01*
X157905871Y-92937112D01*
X157905870Y-92937111D01*
X157752734Y-92825851D01*
X157752729Y-92825848D01*
X157579807Y-92748857D01*
X157579802Y-92748855D01*
X157434001Y-92717865D01*
X157394646Y-92709500D01*
X157205354Y-92709500D01*
X157172897Y-92716398D01*
X157020197Y-92748855D01*
X157020192Y-92748857D01*
X156847270Y-92825848D01*
X156847265Y-92825851D01*
X156694130Y-92937110D01*
X156694126Y-92937114D01*
X156688400Y-92943474D01*
X156628913Y-92980121D01*
X156596252Y-92984500D01*
X148170453Y-92984500D01*
X148103414Y-92964815D01*
X148082772Y-92948181D01*
X145688960Y-90554369D01*
X145655475Y-90493046D01*
X145653323Y-90479668D01*
X145635674Y-90311744D01*
X145577179Y-90131716D01*
X145482533Y-89967784D01*
X145355871Y-89827112D01*
X145296253Y-89783797D01*
X145202734Y-89715851D01*
X145202729Y-89715848D01*
X145029807Y-89638857D01*
X145029802Y-89638855D01*
X144884001Y-89607865D01*
X144844646Y-89599500D01*
X144655354Y-89599500D01*
X144622897Y-89606398D01*
X144470197Y-89638855D01*
X144470192Y-89638857D01*
X144297270Y-89715848D01*
X144297265Y-89715851D01*
X144144129Y-89827111D01*
X144017466Y-89967785D01*
X143922821Y-90131715D01*
X143922818Y-90131722D01*
X143864327Y-90311740D01*
X143864326Y-90311744D01*
X143844540Y-90500000D01*
X142103500Y-90500000D01*
X142103500Y-88562452D01*
X142123185Y-88495413D01*
X142139819Y-88474771D01*
X142237771Y-88376819D01*
X142299094Y-88343334D01*
X142325452Y-88340500D01*
X142384644Y-88340500D01*
X142384646Y-88340500D01*
X142569803Y-88301144D01*
X142742730Y-88224151D01*
X142895871Y-88112888D01*
X142898788Y-88109647D01*
X142901600Y-88106526D01*
X142961087Y-88069879D01*
X142993748Y-88065500D01*
X156189548Y-88065500D01*
X156256587Y-88085185D01*
X156277229Y-88101819D01*
X156471038Y-88295629D01*
X156504523Y-88356952D01*
X156506678Y-88370348D01*
X156514968Y-88449227D01*
X156524326Y-88538256D01*
X156524327Y-88538259D01*
X156582818Y-88718277D01*
X156582821Y-88718284D01*
X156677467Y-88882216D01*
X156804129Y-89022888D01*
X156957265Y-89134148D01*
X156957270Y-89134151D01*
X157130192Y-89211142D01*
X157130197Y-89211144D01*
X157315354Y-89250500D01*
X157315355Y-89250500D01*
X157504644Y-89250500D01*
X157504646Y-89250500D01*
X157689803Y-89211144D01*
X157862730Y-89134151D01*
X158015871Y-89022888D01*
X158142533Y-88882216D01*
X158237179Y-88718284D01*
X158295674Y-88538256D01*
X158315460Y-88350000D01*
X158295674Y-88161744D01*
X158237179Y-87981716D01*
X158142533Y-87817784D01*
X158015871Y-87677112D01*
X158015870Y-87677111D01*
X157862734Y-87565851D01*
X157862729Y-87565848D01*
X157689807Y-87488857D01*
X157689802Y-87488855D01*
X157544001Y-87457865D01*
X157504646Y-87449500D01*
X157504645Y-87449500D01*
X157445453Y-87449500D01*
X157378414Y-87429815D01*
X157357772Y-87413181D01*
X157000803Y-87056212D01*
X156990980Y-87043950D01*
X156990759Y-87044134D01*
X156985786Y-87038123D01*
X156956212Y-87010351D01*
X156935364Y-86990773D01*
X156919736Y-86975145D01*
X156914475Y-86969883D01*
X156908986Y-86965625D01*
X156904561Y-86961847D01*
X156870582Y-86929938D01*
X156870580Y-86929936D01*
X156870577Y-86929935D01*
X156853029Y-86920288D01*
X156836763Y-86909604D01*
X156820933Y-86897325D01*
X156778168Y-86878818D01*
X156772922Y-86876248D01*
X156732093Y-86853803D01*
X156732092Y-86853802D01*
X156712693Y-86848822D01*
X156694281Y-86842518D01*
X156675898Y-86834562D01*
X156675892Y-86834560D01*
X156629874Y-86827272D01*
X156624152Y-86826087D01*
X156579021Y-86814500D01*
X156579019Y-86814500D01*
X156558984Y-86814500D01*
X156539586Y-86812973D01*
X156532162Y-86811797D01*
X156519805Y-86809840D01*
X156519804Y-86809840D01*
X156473416Y-86814225D01*
X156467578Y-86814500D01*
X142993748Y-86814500D01*
X142926709Y-86794815D01*
X142901600Y-86773474D01*
X142895873Y-86767114D01*
X142895869Y-86767110D01*
X142742734Y-86655851D01*
X142742729Y-86655848D01*
X142569807Y-86578857D01*
X142569802Y-86578855D01*
X142424001Y-86547865D01*
X142384646Y-86539500D01*
X142195354Y-86539500D01*
X142162897Y-86546398D01*
X142010197Y-86578855D01*
X142010192Y-86578857D01*
X141837270Y-86655848D01*
X141837265Y-86655851D01*
X141684129Y-86767111D01*
X141557466Y-86907785D01*
X141462821Y-87071715D01*
X141462818Y-87071722D01*
X141404327Y-87251740D01*
X141404326Y-87251744D01*
X141388990Y-87397664D01*
X141386679Y-87419649D01*
X141360094Y-87484263D01*
X141351039Y-87494368D01*
X141094208Y-87751199D01*
X141081951Y-87761020D01*
X141082134Y-87761241D01*
X141076123Y-87766213D01*
X141028772Y-87816636D01*
X141007889Y-87837519D01*
X141007877Y-87837532D01*
X141003621Y-87843017D01*
X140999837Y-87847447D01*
X140967937Y-87881418D01*
X140967936Y-87881420D01*
X140958284Y-87898976D01*
X140947610Y-87915226D01*
X140935329Y-87931061D01*
X140935324Y-87931068D01*
X140916815Y-87973838D01*
X140914245Y-87979084D01*
X140891803Y-88019906D01*
X140886822Y-88039307D01*
X140880521Y-88057710D01*
X140872562Y-88076102D01*
X140872561Y-88076105D01*
X140865271Y-88122127D01*
X140864087Y-88127846D01*
X140852501Y-88172972D01*
X140852500Y-88172982D01*
X140852500Y-88193016D01*
X140850973Y-88212415D01*
X140847840Y-88232194D01*
X140847840Y-88232195D01*
X140852225Y-88278583D01*
X140852500Y-88284421D01*
X140852500Y-107088666D01*
X140832815Y-107155705D01*
X140816181Y-107176347D01*
X140189347Y-107803181D01*
X140128024Y-107836666D01*
X140101666Y-107839500D01*
X140042473Y-107839500D01*
X140010016Y-107846398D01*
X139857316Y-107878855D01*
X139857311Y-107878857D01*
X139684389Y-107955848D01*
X139684384Y-107955851D01*
X139531248Y-108067111D01*
X139404585Y-108207785D01*
X139309940Y-108371715D01*
X139309937Y-108371722D01*
X139251446Y-108551740D01*
X139251445Y-108551744D01*
X139231659Y-108740000D01*
X123825500Y-108740000D01*
X123825500Y-104450002D01*
X126894723Y-104450002D01*
X126913793Y-104667975D01*
X126913793Y-104667979D01*
X126970422Y-104879322D01*
X126970424Y-104879326D01*
X126970425Y-104879330D01*
X126987126Y-104915145D01*
X127062897Y-105077638D01*
X127075730Y-105095965D01*
X127188402Y-105256877D01*
X127343123Y-105411598D01*
X127522361Y-105537102D01*
X127720670Y-105629575D01*
X127932023Y-105686207D01*
X128114926Y-105702208D01*
X128149998Y-105705277D01*
X128150000Y-105705277D01*
X128150002Y-105705277D01*
X128178254Y-105702805D01*
X128367977Y-105686207D01*
X128579330Y-105629575D01*
X128777639Y-105537102D01*
X128956877Y-105411598D01*
X129111598Y-105256877D01*
X129237102Y-105077639D01*
X129329575Y-104879330D01*
X129386207Y-104667977D01*
X129405277Y-104450002D01*
X131794723Y-104450002D01*
X131813793Y-104667975D01*
X131813793Y-104667979D01*
X131870422Y-104879322D01*
X131870424Y-104879326D01*
X131870425Y-104879330D01*
X131887126Y-104915145D01*
X131962897Y-105077638D01*
X131975730Y-105095965D01*
X132088402Y-105256877D01*
X132243123Y-105411598D01*
X132422361Y-105537102D01*
X132620670Y-105629575D01*
X132832023Y-105686207D01*
X133014926Y-105702208D01*
X133049998Y-105705277D01*
X133050000Y-105705277D01*
X133050002Y-105705277D01*
X133078254Y-105702805D01*
X133267977Y-105686207D01*
X133479330Y-105629575D01*
X133677639Y-105537102D01*
X133856877Y-105411598D01*
X134011598Y-105256877D01*
X134137102Y-105077639D01*
X134229575Y-104879330D01*
X134286207Y-104667977D01*
X134305277Y-104450000D01*
X134286207Y-104232023D01*
X134229575Y-104020670D01*
X134137102Y-103822362D01*
X134137100Y-103822359D01*
X134137099Y-103822357D01*
X134011599Y-103643124D01*
X134011596Y-103643121D01*
X133856877Y-103488402D01*
X133677639Y-103362898D01*
X133677640Y-103362898D01*
X133677638Y-103362897D01*
X133578484Y-103316661D01*
X133479330Y-103270425D01*
X133479326Y-103270424D01*
X133479322Y-103270422D01*
X133267977Y-103213793D01*
X133050002Y-103194723D01*
X133049998Y-103194723D01*
X132904682Y-103207436D01*
X132832023Y-103213793D01*
X132832020Y-103213793D01*
X132620677Y-103270422D01*
X132620668Y-103270426D01*
X132422361Y-103362898D01*
X132422357Y-103362900D01*
X132243121Y-103488402D01*
X132088402Y-103643121D01*
X131962900Y-103822357D01*
X131962898Y-103822361D01*
X131870426Y-104020668D01*
X131870422Y-104020677D01*
X131813793Y-104232020D01*
X131813793Y-104232024D01*
X131794723Y-104449997D01*
X131794723Y-104450002D01*
X129405277Y-104450002D01*
X129405277Y-104450000D01*
X129386207Y-104232023D01*
X129329575Y-104020670D01*
X129237102Y-103822362D01*
X129237100Y-103822359D01*
X129237099Y-103822357D01*
X129111599Y-103643124D01*
X129111596Y-103643121D01*
X128956877Y-103488402D01*
X128777639Y-103362898D01*
X128777640Y-103362898D01*
X128777638Y-103362897D01*
X128678484Y-103316661D01*
X128579330Y-103270425D01*
X128579326Y-103270424D01*
X128579322Y-103270422D01*
X128367977Y-103213793D01*
X128150002Y-103194723D01*
X128149998Y-103194723D01*
X128004682Y-103207436D01*
X127932023Y-103213793D01*
X127932020Y-103213793D01*
X127720677Y-103270422D01*
X127720668Y-103270426D01*
X127522361Y-103362898D01*
X127522357Y-103362900D01*
X127343121Y-103488402D01*
X127188402Y-103643121D01*
X127062900Y-103822357D01*
X127062898Y-103822361D01*
X126970426Y-104020668D01*
X126970422Y-104020677D01*
X126913793Y-104232020D01*
X126913793Y-104232024D01*
X126894723Y-104449997D01*
X126894723Y-104450002D01*
X123825500Y-104450002D01*
X123825500Y-103510452D01*
X123845185Y-103443413D01*
X123861819Y-103422771D01*
X129172772Y-98111819D01*
X129234095Y-98078334D01*
X129260453Y-98075500D01*
X135496252Y-98075500D01*
X135563291Y-98095185D01*
X135588400Y-98116526D01*
X135594126Y-98122885D01*
X135594130Y-98122889D01*
X135747265Y-98234148D01*
X135747270Y-98234151D01*
X135920192Y-98311142D01*
X135920197Y-98311144D01*
X136105354Y-98350500D01*
X136105355Y-98350500D01*
X136294644Y-98350500D01*
X136294646Y-98350500D01*
X136479803Y-98311144D01*
X136652730Y-98234151D01*
X136805871Y-98122888D01*
X136932533Y-97982216D01*
X137027179Y-97818284D01*
X137085674Y-97638256D01*
X137105460Y-97450000D01*
X137085674Y-97261744D01*
X137027179Y-97081716D01*
X136932533Y-96917784D01*
X136805871Y-96777112D01*
X136805870Y-96777111D01*
X136652734Y-96665851D01*
X136652729Y-96665848D01*
X136479807Y-96588857D01*
X136479802Y-96588855D01*
X136334001Y-96557865D01*
X136294646Y-96549500D01*
X136105354Y-96549500D01*
X136072897Y-96556398D01*
X135920197Y-96588855D01*
X135920192Y-96588857D01*
X135747270Y-96665848D01*
X135747265Y-96665851D01*
X135594130Y-96777110D01*
X135594126Y-96777114D01*
X135588400Y-96783474D01*
X135528913Y-96820121D01*
X135496252Y-96824500D01*
X129032743Y-96824500D01*
X129017122Y-96822775D01*
X129017096Y-96823061D01*
X129009334Y-96822327D01*
X129009333Y-96822327D01*
X128940186Y-96824500D01*
X128910649Y-96824500D01*
X128903766Y-96825369D01*
X128897949Y-96825826D01*
X128851373Y-96827290D01*
X128832129Y-96832881D01*
X128813079Y-96836825D01*
X128793211Y-96839334D01*
X128749884Y-96856488D01*
X128744358Y-96858379D01*
X128699614Y-96871379D01*
X128699610Y-96871381D01*
X128682366Y-96881579D01*
X128664905Y-96890133D01*
X128646274Y-96897510D01*
X128646262Y-96897517D01*
X128608570Y-96924902D01*
X128603687Y-96928109D01*
X128563580Y-96951829D01*
X128549414Y-96965995D01*
X128534624Y-96978627D01*
X128518414Y-96990404D01*
X128518411Y-96990407D01*
X128488710Y-97026309D01*
X128484777Y-97030631D01*
X124037181Y-101478228D01*
X123975858Y-101511713D01*
X123906166Y-101506729D01*
X123850233Y-101464857D01*
X123825816Y-101399393D01*
X123825500Y-101390547D01*
X123825500Y-99029758D01*
X123845185Y-98962719D01*
X123897989Y-98916964D01*
X123967147Y-98907020D01*
X124030703Y-98936045D01*
X124037181Y-98942077D01*
X124128599Y-99033495D01*
X124222864Y-99099500D01*
X124322165Y-99169032D01*
X124322167Y-99169033D01*
X124322170Y-99169035D01*
X124536337Y-99268903D01*
X124764592Y-99330063D01*
X124952918Y-99346539D01*
X124999999Y-99350659D01*
X125000000Y-99350659D01*
X125000001Y-99350659D01*
X125039234Y-99347226D01*
X125235408Y-99330063D01*
X125463663Y-99268903D01*
X125677830Y-99169035D01*
X125871401Y-99033495D01*
X126038495Y-98866401D01*
X126174035Y-98672830D01*
X126273903Y-98458663D01*
X126335063Y-98230408D01*
X126355659Y-97995000D01*
X126335063Y-97759592D01*
X126273903Y-97531337D01*
X126174035Y-97317171D01*
X126150529Y-97283600D01*
X126038494Y-97123597D01*
X125871402Y-96956506D01*
X125871396Y-96956501D01*
X125685842Y-96826575D01*
X125642217Y-96771998D01*
X125635023Y-96702500D01*
X125666546Y-96640145D01*
X125685842Y-96623425D01*
X125735210Y-96588857D01*
X125871401Y-96493495D01*
X126038495Y-96326401D01*
X126174035Y-96132830D01*
X126273903Y-95918663D01*
X126335063Y-95690408D01*
X126355659Y-95455000D01*
X126353683Y-95432420D01*
X126351539Y-95407918D01*
X126335063Y-95219592D01*
X126273903Y-94991337D01*
X126174035Y-94777171D01*
X126158825Y-94755449D01*
X126038496Y-94583600D01*
X126038495Y-94583599D01*
X125916567Y-94461671D01*
X125883084Y-94400351D01*
X125888068Y-94330659D01*
X125929939Y-94274725D01*
X125960915Y-94257810D01*
X126092331Y-94208796D01*
X126207546Y-94122546D01*
X126293796Y-94007331D01*
X126344091Y-93872483D01*
X126350500Y-93812873D01*
X126350499Y-92017128D01*
X126344091Y-91957517D01*
X126323161Y-91901402D01*
X126293797Y-91822671D01*
X126293793Y-91822664D01*
X126207547Y-91707455D01*
X126207544Y-91707452D01*
X126092335Y-91621206D01*
X126092328Y-91621202D01*
X125957482Y-91570908D01*
X125957483Y-91570908D01*
X125897883Y-91564501D01*
X125897881Y-91564500D01*
X125897873Y-91564500D01*
X125897864Y-91564500D01*
X124102129Y-91564500D01*
X124102123Y-91564501D01*
X124042516Y-91570908D01*
X123907671Y-91621202D01*
X123907664Y-91621206D01*
X123792455Y-91707452D01*
X123792452Y-91707455D01*
X123706206Y-91822664D01*
X123706202Y-91822671D01*
X123655908Y-91957517D01*
X123649501Y-92017116D01*
X123649501Y-92017123D01*
X123649500Y-92017135D01*
X123649500Y-92243309D01*
X123629815Y-92310348D01*
X123577011Y-92356103D01*
X123571155Y-92358598D01*
X123561274Y-92362510D01*
X123561262Y-92362517D01*
X123523570Y-92389902D01*
X123518687Y-92393109D01*
X123478580Y-92416829D01*
X123464414Y-92430995D01*
X123449624Y-92443627D01*
X123433414Y-92455404D01*
X123433411Y-92455407D01*
X123403710Y-92491309D01*
X123399777Y-92495631D01*
X122816208Y-93079199D01*
X122803921Y-93089044D01*
X122804104Y-93089266D01*
X122803515Y-93089753D01*
X122802487Y-93090193D01*
X122794995Y-93096198D01*
X122791557Y-93098381D01*
X122789811Y-93095632D01*
X122739306Y-93117301D01*
X122670395Y-93105762D01*
X122618663Y-93058799D01*
X122600500Y-92994188D01*
X122600500Y-88065000D01*
X123644341Y-88065000D01*
X123664936Y-88300403D01*
X123664938Y-88300413D01*
X123726094Y-88528655D01*
X123726096Y-88528659D01*
X123726097Y-88528663D01*
X123814516Y-88718277D01*
X123825965Y-88742830D01*
X123825967Y-88742834D01*
X123923563Y-88882214D01*
X123961505Y-88936401D01*
X124128599Y-89103495D01*
X124225384Y-89171265D01*
X124322165Y-89239032D01*
X124322167Y-89239033D01*
X124322170Y-89239035D01*
X124536337Y-89338903D01*
X124764592Y-89400063D01*
X124952918Y-89416539D01*
X124999999Y-89420659D01*
X125000000Y-89420659D01*
X125000001Y-89420659D01*
X125039234Y-89417226D01*
X125235408Y-89400063D01*
X125463663Y-89338903D01*
X125677830Y-89239035D01*
X125871401Y-89103495D01*
X126038495Y-88936401D01*
X126174035Y-88742830D01*
X126273903Y-88528663D01*
X126335063Y-88300408D01*
X126355659Y-88065000D01*
X126335063Y-87829592D01*
X126273903Y-87601337D01*
X126174035Y-87387171D01*
X126100712Y-87282455D01*
X126038496Y-87193600D01*
X125984396Y-87139500D01*
X125916567Y-87071671D01*
X125883084Y-87010351D01*
X125888068Y-86940659D01*
X125929939Y-86884725D01*
X125960915Y-86867810D01*
X126092331Y-86818796D01*
X126207546Y-86732546D01*
X126293796Y-86617331D01*
X126344091Y-86482483D01*
X126350500Y-86422873D01*
X126350499Y-84627128D01*
X126344091Y-84567517D01*
X126293796Y-84432669D01*
X126293795Y-84432668D01*
X126293793Y-84432664D01*
X126207547Y-84317455D01*
X126207544Y-84317452D01*
X126092335Y-84231206D01*
X126092328Y-84231202D01*
X125957482Y-84180908D01*
X125957483Y-84180908D01*
X125897883Y-84174501D01*
X125897881Y-84174500D01*
X125897873Y-84174500D01*
X125897864Y-84174500D01*
X124102129Y-84174500D01*
X124102123Y-84174501D01*
X124042516Y-84180908D01*
X123907671Y-84231202D01*
X123907664Y-84231206D01*
X123792455Y-84317452D01*
X123792452Y-84317455D01*
X123706206Y-84432664D01*
X123706202Y-84432671D01*
X123655908Y-84567517D01*
X123649501Y-84627116D01*
X123649501Y-84627123D01*
X123649500Y-84627135D01*
X123649500Y-86422870D01*
X123649501Y-86422876D01*
X123655908Y-86482483D01*
X123706202Y-86617328D01*
X123706206Y-86617335D01*
X123792452Y-86732544D01*
X123792455Y-86732547D01*
X123907664Y-86818793D01*
X123907671Y-86818797D01*
X124039081Y-86867810D01*
X124095015Y-86909681D01*
X124119432Y-86975145D01*
X124104580Y-87043418D01*
X124083430Y-87071673D01*
X123961503Y-87193600D01*
X123825965Y-87387169D01*
X123825964Y-87387171D01*
X123726098Y-87601335D01*
X123726094Y-87601344D01*
X123664938Y-87829586D01*
X123664936Y-87829596D01*
X123644341Y-88064999D01*
X123644341Y-88065000D01*
X122600500Y-88065000D01*
X122600500Y-80897870D01*
X123649500Y-80897870D01*
X123649501Y-80897876D01*
X123655908Y-80957483D01*
X123706202Y-81092328D01*
X123706206Y-81092335D01*
X123792452Y-81207544D01*
X123792455Y-81207547D01*
X123907664Y-81293793D01*
X123907671Y-81293797D01*
X124042517Y-81344091D01*
X124042516Y-81344091D01*
X124049444Y-81344835D01*
X124102127Y-81350500D01*
X125897872Y-81350499D01*
X125957483Y-81344091D01*
X126092331Y-81293796D01*
X126207546Y-81207546D01*
X126293796Y-81092331D01*
X126344091Y-80957483D01*
X126350500Y-80897873D01*
X126350500Y-80600000D01*
X133894540Y-80600000D01*
X133914326Y-80788256D01*
X133914327Y-80788259D01*
X133972818Y-80968277D01*
X133972821Y-80968284D01*
X134067467Y-81132216D01*
X134135293Y-81207544D01*
X134194129Y-81272888D01*
X134347265Y-81384148D01*
X134347270Y-81384151D01*
X134520192Y-81461142D01*
X134520197Y-81461144D01*
X134705354Y-81500500D01*
X134764548Y-81500500D01*
X134831587Y-81520185D01*
X134852229Y-81536819D01*
X136149197Y-82833788D01*
X136159022Y-82846051D01*
X136159243Y-82845869D01*
X136164214Y-82851878D01*
X136190217Y-82876295D01*
X136214635Y-82899226D01*
X136235529Y-82920120D01*
X136241011Y-82924373D01*
X136245443Y-82928157D01*
X136279418Y-82960062D01*
X136296976Y-82969714D01*
X136313235Y-82980395D01*
X136329064Y-82992673D01*
X136371838Y-83011182D01*
X136377056Y-83013738D01*
X136417908Y-83036197D01*
X136437316Y-83041180D01*
X136455717Y-83047480D01*
X136474104Y-83055437D01*
X136517488Y-83062308D01*
X136520119Y-83062725D01*
X136525839Y-83063909D01*
X136570981Y-83075500D01*
X136591016Y-83075500D01*
X136610414Y-83077026D01*
X136630194Y-83080159D01*
X136630195Y-83080160D01*
X136630195Y-83080159D01*
X136630196Y-83080160D01*
X136676584Y-83075775D01*
X136682422Y-83075500D01*
X145562400Y-83075500D01*
X145629439Y-83095185D01*
X145654549Y-83116527D01*
X145678284Y-83142887D01*
X145678291Y-83142893D01*
X145831421Y-83254148D01*
X145831426Y-83254151D01*
X146004348Y-83331142D01*
X146004353Y-83331144D01*
X146189510Y-83370500D01*
X146189511Y-83370500D01*
X146378800Y-83370500D01*
X146378802Y-83370500D01*
X146563959Y-83331144D01*
X146736886Y-83254151D01*
X146890027Y-83142888D01*
X147016689Y-83002216D01*
X147026626Y-82985005D01*
X153284744Y-82985005D01*
X153303748Y-83287074D01*
X153303749Y-83287081D01*
X153303750Y-83287085D01*
X153360467Y-83584406D01*
X153454001Y-83872274D01*
X153582877Y-84146150D01*
X153582879Y-84146153D01*
X153582880Y-84146155D01*
X153745058Y-84401708D01*
X153745061Y-84401712D01*
X153745062Y-84401713D01*
X153937999Y-84634934D01*
X154158643Y-84842132D01*
X154158653Y-84842140D01*
X154403508Y-85020038D01*
X154403513Y-85020040D01*
X154403520Y-85020046D01*
X154668763Y-85165865D01*
X154668768Y-85165867D01*
X154668770Y-85165868D01*
X154668771Y-85165869D01*
X154950186Y-85277289D01*
X154950189Y-85277290D01*
X155243359Y-85352563D01*
X155243363Y-85352564D01*
X155306360Y-85360522D01*
X155543647Y-85390499D01*
X155543656Y-85390499D01*
X155543659Y-85390500D01*
X155543661Y-85390500D01*
X155846339Y-85390500D01*
X155846341Y-85390500D01*
X155846344Y-85390499D01*
X155846352Y-85390499D01*
X156025539Y-85367862D01*
X156146637Y-85352564D01*
X156439810Y-85277290D01*
X156439813Y-85277289D01*
X156721228Y-85165869D01*
X156721229Y-85165868D01*
X156721227Y-85165868D01*
X156721237Y-85165865D01*
X156986480Y-85020046D01*
X157231355Y-84842134D01*
X157452001Y-84634934D01*
X157644938Y-84401713D01*
X157807123Y-84146150D01*
X157935999Y-83872274D01*
X158029533Y-83584406D01*
X158086250Y-83287085D01*
X158088322Y-83254151D01*
X158105256Y-82985005D01*
X158105256Y-82984994D01*
X158086251Y-82682925D01*
X158086250Y-82682918D01*
X158086250Y-82682915D01*
X158029533Y-82385594D01*
X157939912Y-82109771D01*
X157937918Y-82039933D01*
X157973998Y-81980100D01*
X158036699Y-81949272D01*
X158097702Y-81954037D01*
X158279002Y-82015580D01*
X158279006Y-82015581D01*
X158279015Y-82015584D01*
X158571958Y-82073854D01*
X158600577Y-82075729D01*
X158869993Y-82093389D01*
X158870000Y-82093389D01*
X158870007Y-82093389D01*
X159108607Y-82077749D01*
X159168042Y-82073854D01*
X159460985Y-82015584D01*
X159642299Y-81954035D01*
X159712105Y-81951126D01*
X159772405Y-81986420D01*
X159804051Y-82048712D01*
X159800086Y-82109773D01*
X159710468Y-82385589D01*
X159653749Y-82682918D01*
X159653748Y-82682925D01*
X159634744Y-82984994D01*
X159634744Y-82985005D01*
X159653748Y-83287074D01*
X159653749Y-83287081D01*
X159653750Y-83287085D01*
X159710467Y-83584406D01*
X159804001Y-83872274D01*
X159932877Y-84146150D01*
X159932879Y-84146153D01*
X159932880Y-84146155D01*
X160095058Y-84401708D01*
X160095061Y-84401712D01*
X160095062Y-84401713D01*
X160287999Y-84634934D01*
X160508643Y-84842132D01*
X160508653Y-84842140D01*
X160753508Y-85020038D01*
X160753513Y-85020040D01*
X160753520Y-85020046D01*
X161018763Y-85165865D01*
X161018768Y-85165867D01*
X161018770Y-85165868D01*
X161018771Y-85165869D01*
X161300186Y-85277289D01*
X161300189Y-85277290D01*
X161593359Y-85352563D01*
X161593363Y-85352564D01*
X161656360Y-85360522D01*
X161893647Y-85390499D01*
X161893656Y-85390499D01*
X161893659Y-85390500D01*
X161893661Y-85390500D01*
X162196339Y-85390500D01*
X162196341Y-85390500D01*
X162196344Y-85390499D01*
X162196352Y-85390499D01*
X162375539Y-85367862D01*
X162496637Y-85352564D01*
X162789810Y-85277290D01*
X162789813Y-85277289D01*
X163071228Y-85165869D01*
X163071229Y-85165868D01*
X163071227Y-85165868D01*
X163071237Y-85165865D01*
X163336480Y-85020046D01*
X163581355Y-84842134D01*
X163802001Y-84634934D01*
X163994938Y-84401713D01*
X164157123Y-84146150D01*
X164285999Y-83872274D01*
X164379533Y-83584406D01*
X164436250Y-83287085D01*
X164438322Y-83254151D01*
X164455256Y-82985005D01*
X164455256Y-82984994D01*
X164436251Y-82682925D01*
X164436250Y-82682918D01*
X164436250Y-82682915D01*
X164379533Y-82385594D01*
X164285999Y-82097726D01*
X164157123Y-81823850D01*
X164069545Y-81685849D01*
X163994941Y-81568291D01*
X163968905Y-81536819D01*
X163802001Y-81335066D01*
X163581355Y-81127866D01*
X163581352Y-81127864D01*
X163581346Y-81127859D01*
X163336491Y-80949961D01*
X163336484Y-80949956D01*
X163336480Y-80949954D01*
X163071237Y-80804135D01*
X163071234Y-80804133D01*
X163071229Y-80804131D01*
X163071228Y-80804130D01*
X162789813Y-80692710D01*
X162789810Y-80692709D01*
X162496640Y-80617436D01*
X162496627Y-80617434D01*
X162196352Y-80579500D01*
X162196341Y-80579500D01*
X161893659Y-80579500D01*
X161893647Y-80579500D01*
X161593372Y-80617434D01*
X161593359Y-80617436D01*
X161300194Y-80692708D01*
X161175535Y-80742064D01*
X161105957Y-80748440D01*
X161043977Y-80716187D01*
X161009273Y-80655545D01*
X161012468Y-80586916D01*
X161075584Y-80400985D01*
X161133854Y-80108042D01*
X161145713Y-79927111D01*
X161153389Y-79810007D01*
X161153389Y-79809992D01*
X161133855Y-79511974D01*
X161133854Y-79511958D01*
X161075584Y-79219015D01*
X161012468Y-79033084D01*
X161009559Y-78963278D01*
X161044853Y-78902978D01*
X161107145Y-78871331D01*
X161175536Y-78877936D01*
X161300190Y-78927290D01*
X161300189Y-78927290D01*
X161444926Y-78964452D01*
X161593363Y-79002564D01*
X161656360Y-79010522D01*
X161893647Y-79040499D01*
X161893656Y-79040499D01*
X161893659Y-79040500D01*
X161893661Y-79040500D01*
X162196339Y-79040500D01*
X162196341Y-79040500D01*
X162196344Y-79040499D01*
X162196352Y-79040499D01*
X162375539Y-79017862D01*
X162496637Y-79002564D01*
X162789810Y-78927290D01*
X162839380Y-78907664D01*
X163071228Y-78815869D01*
X163071229Y-78815868D01*
X163071227Y-78815868D01*
X163071237Y-78815865D01*
X163336480Y-78670046D01*
X163581355Y-78492134D01*
X163802001Y-78284934D01*
X163994938Y-78051713D01*
X164157123Y-77796150D01*
X164285999Y-77522274D01*
X164379533Y-77234406D01*
X164436250Y-76937085D01*
X164455256Y-76635000D01*
X164436922Y-76343598D01*
X164436251Y-76332925D01*
X164436250Y-76332918D01*
X164436250Y-76332915D01*
X164379533Y-76035594D01*
X164285999Y-75747726D01*
X164157123Y-75473850D01*
X164015064Y-75250000D01*
X163994941Y-75218291D01*
X163987953Y-75209844D01*
X163802001Y-74985066D01*
X163581355Y-74777866D01*
X163581352Y-74777864D01*
X163581346Y-74777859D01*
X163336491Y-74599961D01*
X163336484Y-74599956D01*
X163336480Y-74599954D01*
X163071237Y-74454135D01*
X163071234Y-74454133D01*
X163071229Y-74454131D01*
X163071228Y-74454130D01*
X162789813Y-74342710D01*
X162789810Y-74342709D01*
X162496640Y-74267436D01*
X162496627Y-74267434D01*
X162196352Y-74229500D01*
X162196341Y-74229500D01*
X161893659Y-74229500D01*
X161893647Y-74229500D01*
X161593372Y-74267434D01*
X161593359Y-74267436D01*
X161300189Y-74342709D01*
X161300186Y-74342710D01*
X161018771Y-74454130D01*
X161018770Y-74454131D01*
X160753520Y-74599954D01*
X160753508Y-74599961D01*
X160508653Y-74777859D01*
X160508643Y-74777867D01*
X160495557Y-74790156D01*
X160287999Y-74985066D01*
X160275645Y-75000000D01*
X160095058Y-75218291D01*
X159932880Y-75473844D01*
X159804000Y-75747728D01*
X159710468Y-76035589D01*
X159653749Y-76332918D01*
X159653748Y-76332925D01*
X159634744Y-76634994D01*
X159634744Y-76635005D01*
X159653748Y-76937074D01*
X159653749Y-76937081D01*
X159710468Y-77234410D01*
X159800086Y-77510225D01*
X159802081Y-77580066D01*
X159766001Y-77639899D01*
X159703300Y-77670727D01*
X159642297Y-77665962D01*
X159460997Y-77604419D01*
X159460977Y-77604414D01*
X159168052Y-77546148D01*
X159168042Y-77546146D01*
X159168035Y-77546145D01*
X159168025Y-77546144D01*
X158870007Y-77526611D01*
X158869993Y-77526611D01*
X158571974Y-77546144D01*
X158571962Y-77546145D01*
X158571958Y-77546146D01*
X158571950Y-77546147D01*
X158571947Y-77546148D01*
X158279022Y-77604414D01*
X158279017Y-77604415D01*
X158279015Y-77604416D01*
X158211150Y-77627452D01*
X158097702Y-77665963D01*
X158027893Y-77668871D01*
X157967593Y-77633577D01*
X157935947Y-77571285D01*
X157939912Y-77510228D01*
X158029533Y-77234406D01*
X158086250Y-76937085D01*
X158105256Y-76635000D01*
X158086922Y-76343598D01*
X158086251Y-76332925D01*
X158086250Y-76332918D01*
X158086250Y-76332915D01*
X158029533Y-76035594D01*
X157935999Y-75747726D01*
X157807123Y-75473850D01*
X157665064Y-75250000D01*
X157644941Y-75218291D01*
X157637953Y-75209844D01*
X157452001Y-74985066D01*
X157231355Y-74777866D01*
X157231352Y-74777864D01*
X157231346Y-74777859D01*
X156986491Y-74599961D01*
X156986484Y-74599956D01*
X156986480Y-74599954D01*
X156721237Y-74454135D01*
X156721234Y-74454133D01*
X156721229Y-74454131D01*
X156721228Y-74454130D01*
X156439813Y-74342710D01*
X156439810Y-74342709D01*
X156146640Y-74267436D01*
X156146627Y-74267434D01*
X155846352Y-74229500D01*
X155846341Y-74229500D01*
X155543659Y-74229500D01*
X155543647Y-74229500D01*
X155243372Y-74267434D01*
X155243359Y-74267436D01*
X154950189Y-74342709D01*
X154950186Y-74342710D01*
X154668771Y-74454130D01*
X154668770Y-74454131D01*
X154403520Y-74599954D01*
X154403508Y-74599961D01*
X154158653Y-74777859D01*
X154158643Y-74777867D01*
X154145557Y-74790156D01*
X153937999Y-74985066D01*
X153925645Y-75000000D01*
X153745058Y-75218291D01*
X153582880Y-75473844D01*
X153454000Y-75747728D01*
X153360468Y-76035589D01*
X153303749Y-76332918D01*
X153303748Y-76332925D01*
X153284744Y-76634994D01*
X153284744Y-76635005D01*
X153303748Y-76937074D01*
X153303749Y-76937081D01*
X153303750Y-76937085D01*
X153360467Y-77234406D01*
X153454001Y-77522274D01*
X153582877Y-77796150D01*
X153582879Y-77796153D01*
X153582880Y-77796155D01*
X153745058Y-78051708D01*
X153745061Y-78051712D01*
X153745062Y-78051713D01*
X153937999Y-78284934D01*
X154158643Y-78492132D01*
X154158653Y-78492140D01*
X154403508Y-78670038D01*
X154403513Y-78670040D01*
X154403520Y-78670046D01*
X154668763Y-78815865D01*
X154668768Y-78815867D01*
X154668770Y-78815868D01*
X154668771Y-78815869D01*
X154950186Y-78927289D01*
X154950189Y-78927290D01*
X155094926Y-78964452D01*
X155243363Y-79002564D01*
X155306360Y-79010522D01*
X155543647Y-79040499D01*
X155543656Y-79040499D01*
X155543659Y-79040500D01*
X155543661Y-79040500D01*
X155846339Y-79040500D01*
X155846341Y-79040500D01*
X155846344Y-79040499D01*
X155846352Y-79040499D01*
X156025539Y-79017862D01*
X156146637Y-79002564D01*
X156439810Y-78927290D01*
X156564464Y-78877935D01*
X156634040Y-78871559D01*
X156696020Y-78903811D01*
X156730725Y-78964452D01*
X156727530Y-79033086D01*
X156664416Y-79219016D01*
X156664414Y-79219022D01*
X156606148Y-79511947D01*
X156606144Y-79511974D01*
X156586611Y-79809992D01*
X156586611Y-79810007D01*
X156606144Y-80108025D01*
X156606145Y-80108035D01*
X156606146Y-80108042D01*
X156606148Y-80108052D01*
X156664414Y-80400977D01*
X156664419Y-80400997D01*
X156727529Y-80586913D01*
X156730438Y-80656722D01*
X156695144Y-80717022D01*
X156632852Y-80748668D01*
X156564463Y-80742063D01*
X156439813Y-80692710D01*
X156439810Y-80692709D01*
X156146640Y-80617436D01*
X156146627Y-80617434D01*
X155846352Y-80579500D01*
X155846341Y-80579500D01*
X155543659Y-80579500D01*
X155543647Y-80579500D01*
X155243372Y-80617434D01*
X155243359Y-80617436D01*
X154950189Y-80692709D01*
X154950186Y-80692710D01*
X154668771Y-80804130D01*
X154668770Y-80804131D01*
X154403520Y-80949954D01*
X154403508Y-80949961D01*
X154158653Y-81127859D01*
X154158643Y-81127867D01*
X154073796Y-81207544D01*
X153937999Y-81335066D01*
X153873686Y-81412806D01*
X153745058Y-81568291D01*
X153582880Y-81823844D01*
X153582877Y-81823848D01*
X153582877Y-81823850D01*
X153506378Y-81986420D01*
X153454000Y-82097728D01*
X153360468Y-82385589D01*
X153303749Y-82682918D01*
X153303748Y-82682925D01*
X153284744Y-82984994D01*
X153284744Y-82985005D01*
X147026626Y-82985005D01*
X147111335Y-82838284D01*
X147169830Y-82658256D01*
X147189616Y-82470000D01*
X147169830Y-82281744D01*
X147111335Y-82101716D01*
X147016689Y-81937784D01*
X146890027Y-81797112D01*
X146890026Y-81797111D01*
X146736890Y-81685851D01*
X146736885Y-81685848D01*
X146563963Y-81608857D01*
X146563958Y-81608855D01*
X146418157Y-81577865D01*
X146378802Y-81569500D01*
X146189510Y-81569500D01*
X146157053Y-81576398D01*
X146004353Y-81608855D01*
X146004348Y-81608857D01*
X145831426Y-81685848D01*
X145831421Y-81685851D01*
X145673184Y-81800818D01*
X145607378Y-81824298D01*
X145600299Y-81824500D01*
X136960452Y-81824500D01*
X136893413Y-81804815D01*
X136872771Y-81788181D01*
X135738960Y-80654369D01*
X135705475Y-80593046D01*
X135703323Y-80579668D01*
X135685674Y-80411744D01*
X135627179Y-80231716D01*
X135532533Y-80067784D01*
X135405871Y-79927112D01*
X135405870Y-79927111D01*
X135252734Y-79815851D01*
X135252729Y-79815848D01*
X135079807Y-79738857D01*
X135079802Y-79738855D01*
X134934001Y-79707865D01*
X134894646Y-79699500D01*
X134705354Y-79699500D01*
X134672897Y-79706398D01*
X134520197Y-79738855D01*
X134520192Y-79738857D01*
X134347270Y-79815848D01*
X134347265Y-79815851D01*
X134194129Y-79927111D01*
X134067466Y-80067785D01*
X133972821Y-80231715D01*
X133972818Y-80231722D01*
X133917818Y-80400997D01*
X133914326Y-80411744D01*
X133894540Y-80600000D01*
X126350500Y-80600000D01*
X126350499Y-79102128D01*
X126344091Y-79042517D01*
X126343338Y-79040499D01*
X126293797Y-78907671D01*
X126293793Y-78907664D01*
X126207547Y-78792455D01*
X126207544Y-78792452D01*
X126092335Y-78706206D01*
X126092328Y-78706202D01*
X125957482Y-78655908D01*
X125957483Y-78655908D01*
X125897883Y-78649501D01*
X125897881Y-78649500D01*
X125897873Y-78649500D01*
X125897864Y-78649500D01*
X124102129Y-78649500D01*
X124102123Y-78649501D01*
X124042516Y-78655908D01*
X123907671Y-78706202D01*
X123907664Y-78706206D01*
X123792455Y-78792452D01*
X123792452Y-78792455D01*
X123706206Y-78907664D01*
X123706202Y-78907671D01*
X123655908Y-79042517D01*
X123649501Y-79102116D01*
X123649501Y-79102123D01*
X123649500Y-79102135D01*
X123649500Y-80897870D01*
X122600500Y-80897870D01*
X122600500Y-75897844D01*
X123650000Y-75897844D01*
X123656401Y-75957372D01*
X123656403Y-75957379D01*
X123706645Y-76092086D01*
X123706649Y-76092093D01*
X123792809Y-76207187D01*
X123792812Y-76207190D01*
X123907906Y-76293350D01*
X123907913Y-76293354D01*
X124042620Y-76343596D01*
X124042627Y-76343598D01*
X124102155Y-76349999D01*
X124102172Y-76350000D01*
X124750000Y-76350000D01*
X124750000Y-75435501D01*
X124857685Y-75484680D01*
X124964237Y-75500000D01*
X125035763Y-75500000D01*
X125142315Y-75484680D01*
X125250000Y-75435501D01*
X125250000Y-76350000D01*
X125897828Y-76350000D01*
X125897844Y-76349999D01*
X125957372Y-76343598D01*
X125957379Y-76343596D01*
X126092086Y-76293354D01*
X126092093Y-76293350D01*
X126207187Y-76207190D01*
X126207190Y-76207187D01*
X126293350Y-76092093D01*
X126293354Y-76092086D01*
X126342422Y-75960529D01*
X126384293Y-75904595D01*
X126449757Y-75880178D01*
X126518030Y-75895030D01*
X126546285Y-75916181D01*
X126668599Y-76038495D01*
X126745135Y-76092086D01*
X126862165Y-76174032D01*
X126862167Y-76174033D01*
X126862170Y-76174035D01*
X127076337Y-76273903D01*
X127304592Y-76335063D01*
X127475319Y-76350000D01*
X127539999Y-76355659D01*
X127540000Y-76355659D01*
X127540001Y-76355659D01*
X127604681Y-76350000D01*
X127775408Y-76335063D01*
X128003663Y-76273903D01*
X128217830Y-76174035D01*
X128411401Y-76038495D01*
X128578495Y-75871401D01*
X128714035Y-75677830D01*
X128813903Y-75463663D01*
X128875063Y-75235408D01*
X128895659Y-75000000D01*
X128875063Y-74764592D01*
X128813903Y-74536337D01*
X128714035Y-74322171D01*
X128675710Y-74267436D01*
X128578494Y-74128597D01*
X128411402Y-73961506D01*
X128411395Y-73961501D01*
X128217834Y-73825967D01*
X128217830Y-73825965D01*
X128146727Y-73792809D01*
X128003663Y-73726097D01*
X128003659Y-73726096D01*
X128003655Y-73726094D01*
X127775413Y-73664938D01*
X127775403Y-73664936D01*
X127540001Y-73644341D01*
X127539999Y-73644341D01*
X127304596Y-73664936D01*
X127304586Y-73664938D01*
X127076344Y-73726094D01*
X127076335Y-73726098D01*
X126862171Y-73825964D01*
X126862169Y-73825965D01*
X126668600Y-73961503D01*
X126546284Y-74083819D01*
X126484961Y-74117303D01*
X126415269Y-74112319D01*
X126359336Y-74070447D01*
X126342421Y-74039470D01*
X126293354Y-73907913D01*
X126293350Y-73907906D01*
X126207190Y-73792812D01*
X126207187Y-73792809D01*
X126092093Y-73706649D01*
X126092086Y-73706645D01*
X125957379Y-73656403D01*
X125957372Y-73656401D01*
X125897844Y-73650000D01*
X125250000Y-73650000D01*
X125250000Y-74564498D01*
X125142315Y-74515320D01*
X125035763Y-74500000D01*
X124964237Y-74500000D01*
X124857685Y-74515320D01*
X124750000Y-74564498D01*
X124750000Y-73650000D01*
X124102155Y-73650000D01*
X124042627Y-73656401D01*
X124042620Y-73656403D01*
X123907913Y-73706645D01*
X123907906Y-73706649D01*
X123792812Y-73792809D01*
X123792809Y-73792812D01*
X123706649Y-73907906D01*
X123706645Y-73907913D01*
X123656403Y-74042620D01*
X123656401Y-74042627D01*
X123650000Y-74102155D01*
X123650000Y-74750000D01*
X124566314Y-74750000D01*
X124540507Y-74790156D01*
X124500000Y-74928111D01*
X124500000Y-75071889D01*
X124540507Y-75209844D01*
X124566314Y-75250000D01*
X123650000Y-75250000D01*
X123650000Y-75897844D01*
X122600500Y-75897844D01*
X122600500Y-71724500D01*
X122620185Y-71657461D01*
X122672989Y-71611706D01*
X122724500Y-71600500D01*
X166275500Y-71600500D01*
X166342539Y-71620185D01*
G37*
%TD.AperFunction*%
%TD*%
M02*
