%TF.GenerationSoftware,KiCad,Pcbnew,7.0.8-7.0.8~ubuntu22.04.1*%
%TF.CreationDate,2023-11-09T22:33:03+02:00*%
%TF.ProjectId,elepajaradio,656c6570-616a-4617-9261-64696f2e6b69,rev?*%
%TF.SameCoordinates,Original*%
%TF.FileFunction,Legend,Top*%
%TF.FilePolarity,Positive*%
%FSLAX46Y46*%
G04 Gerber Fmt 4.6, Leading zero omitted, Abs format (unit mm)*
G04 Created by KiCad (PCBNEW 7.0.8-7.0.8~ubuntu22.04.1) date 2023-11-09 22:33:03*
%MOMM*%
%LPD*%
G01*
G04 APERTURE LIST*
%ADD10C,0.150000*%
%ADD11C,0.120000*%
G04 APERTURE END LIST*
D10*
X149583333Y-86709580D02*
X149535714Y-86757200D01*
X149535714Y-86757200D02*
X149392857Y-86804819D01*
X149392857Y-86804819D02*
X149297619Y-86804819D01*
X149297619Y-86804819D02*
X149154762Y-86757200D01*
X149154762Y-86757200D02*
X149059524Y-86661961D01*
X149059524Y-86661961D02*
X149011905Y-86566723D01*
X149011905Y-86566723D02*
X148964286Y-86376247D01*
X148964286Y-86376247D02*
X148964286Y-86233390D01*
X148964286Y-86233390D02*
X149011905Y-86042914D01*
X149011905Y-86042914D02*
X149059524Y-85947676D01*
X149059524Y-85947676D02*
X149154762Y-85852438D01*
X149154762Y-85852438D02*
X149297619Y-85804819D01*
X149297619Y-85804819D02*
X149392857Y-85804819D01*
X149392857Y-85804819D02*
X149535714Y-85852438D01*
X149535714Y-85852438D02*
X149583333Y-85900057D01*
X150154762Y-86233390D02*
X150059524Y-86185771D01*
X150059524Y-86185771D02*
X150011905Y-86138152D01*
X150011905Y-86138152D02*
X149964286Y-86042914D01*
X149964286Y-86042914D02*
X149964286Y-85995295D01*
X149964286Y-85995295D02*
X150011905Y-85900057D01*
X150011905Y-85900057D02*
X150059524Y-85852438D01*
X150059524Y-85852438D02*
X150154762Y-85804819D01*
X150154762Y-85804819D02*
X150345238Y-85804819D01*
X150345238Y-85804819D02*
X150440476Y-85852438D01*
X150440476Y-85852438D02*
X150488095Y-85900057D01*
X150488095Y-85900057D02*
X150535714Y-85995295D01*
X150535714Y-85995295D02*
X150535714Y-86042914D01*
X150535714Y-86042914D02*
X150488095Y-86138152D01*
X150488095Y-86138152D02*
X150440476Y-86185771D01*
X150440476Y-86185771D02*
X150345238Y-86233390D01*
X150345238Y-86233390D02*
X150154762Y-86233390D01*
X150154762Y-86233390D02*
X150059524Y-86281009D01*
X150059524Y-86281009D02*
X150011905Y-86328628D01*
X150011905Y-86328628D02*
X149964286Y-86423866D01*
X149964286Y-86423866D02*
X149964286Y-86614342D01*
X149964286Y-86614342D02*
X150011905Y-86709580D01*
X150011905Y-86709580D02*
X150059524Y-86757200D01*
X150059524Y-86757200D02*
X150154762Y-86804819D01*
X150154762Y-86804819D02*
X150345238Y-86804819D01*
X150345238Y-86804819D02*
X150440476Y-86757200D01*
X150440476Y-86757200D02*
X150488095Y-86709580D01*
X150488095Y-86709580D02*
X150535714Y-86614342D01*
X150535714Y-86614342D02*
X150535714Y-86423866D01*
X150535714Y-86423866D02*
X150488095Y-86328628D01*
X150488095Y-86328628D02*
X150440476Y-86281009D01*
X150440476Y-86281009D02*
X150345238Y-86233390D01*
X128709580Y-98586666D02*
X128757200Y-98634285D01*
X128757200Y-98634285D02*
X128804819Y-98777142D01*
X128804819Y-98777142D02*
X128804819Y-98872380D01*
X128804819Y-98872380D02*
X128757200Y-99015237D01*
X128757200Y-99015237D02*
X128661961Y-99110475D01*
X128661961Y-99110475D02*
X128566723Y-99158094D01*
X128566723Y-99158094D02*
X128376247Y-99205713D01*
X128376247Y-99205713D02*
X128233390Y-99205713D01*
X128233390Y-99205713D02*
X128042914Y-99158094D01*
X128042914Y-99158094D02*
X127947676Y-99110475D01*
X127947676Y-99110475D02*
X127852438Y-99015237D01*
X127852438Y-99015237D02*
X127804819Y-98872380D01*
X127804819Y-98872380D02*
X127804819Y-98777142D01*
X127804819Y-98777142D02*
X127852438Y-98634285D01*
X127852438Y-98634285D02*
X127900057Y-98586666D01*
X127900057Y-98205713D02*
X127852438Y-98158094D01*
X127852438Y-98158094D02*
X127804819Y-98062856D01*
X127804819Y-98062856D02*
X127804819Y-97824761D01*
X127804819Y-97824761D02*
X127852438Y-97729523D01*
X127852438Y-97729523D02*
X127900057Y-97681904D01*
X127900057Y-97681904D02*
X127995295Y-97634285D01*
X127995295Y-97634285D02*
X128090533Y-97634285D01*
X128090533Y-97634285D02*
X128233390Y-97681904D01*
X128233390Y-97681904D02*
X128804819Y-98253332D01*
X128804819Y-98253332D02*
X128804819Y-97634285D01*
X142633333Y-108034819D02*
X142300000Y-107558628D01*
X142061905Y-108034819D02*
X142061905Y-107034819D01*
X142061905Y-107034819D02*
X142442857Y-107034819D01*
X142442857Y-107034819D02*
X142538095Y-107082438D01*
X142538095Y-107082438D02*
X142585714Y-107130057D01*
X142585714Y-107130057D02*
X142633333Y-107225295D01*
X142633333Y-107225295D02*
X142633333Y-107368152D01*
X142633333Y-107368152D02*
X142585714Y-107463390D01*
X142585714Y-107463390D02*
X142538095Y-107511009D01*
X142538095Y-107511009D02*
X142442857Y-107558628D01*
X142442857Y-107558628D02*
X142061905Y-107558628D01*
X142966667Y-107034819D02*
X143585714Y-107034819D01*
X143585714Y-107034819D02*
X143252381Y-107415771D01*
X143252381Y-107415771D02*
X143395238Y-107415771D01*
X143395238Y-107415771D02*
X143490476Y-107463390D01*
X143490476Y-107463390D02*
X143538095Y-107511009D01*
X143538095Y-107511009D02*
X143585714Y-107606247D01*
X143585714Y-107606247D02*
X143585714Y-107844342D01*
X143585714Y-107844342D02*
X143538095Y-107939580D01*
X143538095Y-107939580D02*
X143490476Y-107987200D01*
X143490476Y-107987200D02*
X143395238Y-108034819D01*
X143395238Y-108034819D02*
X143109524Y-108034819D01*
X143109524Y-108034819D02*
X143014286Y-107987200D01*
X143014286Y-107987200D02*
X142966667Y-107939580D01*
X157953333Y-86229104D02*
X158429523Y-86229104D01*
X157858095Y-86514819D02*
X158191428Y-85514819D01*
X158191428Y-85514819D02*
X158524761Y-86514819D01*
X158858095Y-85991009D02*
X159191428Y-85991009D01*
X159334285Y-86514819D02*
X158858095Y-86514819D01*
X158858095Y-86514819D02*
X158858095Y-85514819D01*
X158858095Y-85514819D02*
X159334285Y-85514819D01*
X160286666Y-86514819D02*
X159715238Y-86514819D01*
X160000952Y-86514819D02*
X160000952Y-85514819D01*
X160000952Y-85514819D02*
X159905714Y-85657676D01*
X159905714Y-85657676D02*
X159810476Y-85752914D01*
X159810476Y-85752914D02*
X159715238Y-85800533D01*
X134102150Y-78284796D02*
X133625959Y-78618129D01*
X134102150Y-78856224D02*
X133102150Y-78856224D01*
X133102150Y-78856224D02*
X133102150Y-78475272D01*
X133102150Y-78475272D02*
X133149769Y-78380034D01*
X133149769Y-78380034D02*
X133197388Y-78332415D01*
X133197388Y-78332415D02*
X133292626Y-78284796D01*
X133292626Y-78284796D02*
X133435483Y-78284796D01*
X133435483Y-78284796D02*
X133530721Y-78332415D01*
X133530721Y-78332415D02*
X133578340Y-78380034D01*
X133578340Y-78380034D02*
X133625959Y-78475272D01*
X133625959Y-78475272D02*
X133625959Y-78856224D01*
X133102150Y-77380034D02*
X133102150Y-77856224D01*
X133102150Y-77856224D02*
X133578340Y-77903843D01*
X133578340Y-77903843D02*
X133530721Y-77856224D01*
X133530721Y-77856224D02*
X133483102Y-77760986D01*
X133483102Y-77760986D02*
X133483102Y-77522891D01*
X133483102Y-77522891D02*
X133530721Y-77427653D01*
X133530721Y-77427653D02*
X133578340Y-77380034D01*
X133578340Y-77380034D02*
X133673578Y-77332415D01*
X133673578Y-77332415D02*
X133911673Y-77332415D01*
X133911673Y-77332415D02*
X134006911Y-77380034D01*
X134006911Y-77380034D02*
X134054531Y-77427653D01*
X134054531Y-77427653D02*
X134102150Y-77522891D01*
X134102150Y-77522891D02*
X134102150Y-77760986D01*
X134102150Y-77760986D02*
X134054531Y-77856224D01*
X134054531Y-77856224D02*
X134006911Y-77903843D01*
X135059580Y-114266666D02*
X135107200Y-114314285D01*
X135107200Y-114314285D02*
X135154819Y-114457142D01*
X135154819Y-114457142D02*
X135154819Y-114552380D01*
X135154819Y-114552380D02*
X135107200Y-114695237D01*
X135107200Y-114695237D02*
X135011961Y-114790475D01*
X135011961Y-114790475D02*
X134916723Y-114838094D01*
X134916723Y-114838094D02*
X134726247Y-114885713D01*
X134726247Y-114885713D02*
X134583390Y-114885713D01*
X134583390Y-114885713D02*
X134392914Y-114838094D01*
X134392914Y-114838094D02*
X134297676Y-114790475D01*
X134297676Y-114790475D02*
X134202438Y-114695237D01*
X134202438Y-114695237D02*
X134154819Y-114552380D01*
X134154819Y-114552380D02*
X134154819Y-114457142D01*
X134154819Y-114457142D02*
X134202438Y-114314285D01*
X134202438Y-114314285D02*
X134250057Y-114266666D01*
X134154819Y-113361904D02*
X134154819Y-113838094D01*
X134154819Y-113838094D02*
X134631009Y-113885713D01*
X134631009Y-113885713D02*
X134583390Y-113838094D01*
X134583390Y-113838094D02*
X134535771Y-113742856D01*
X134535771Y-113742856D02*
X134535771Y-113504761D01*
X134535771Y-113504761D02*
X134583390Y-113409523D01*
X134583390Y-113409523D02*
X134631009Y-113361904D01*
X134631009Y-113361904D02*
X134726247Y-113314285D01*
X134726247Y-113314285D02*
X134964342Y-113314285D01*
X134964342Y-113314285D02*
X135059580Y-113361904D01*
X135059580Y-113361904D02*
X135107200Y-113409523D01*
X135107200Y-113409523D02*
X135154819Y-113504761D01*
X135154819Y-113504761D02*
X135154819Y-113742856D01*
X135154819Y-113742856D02*
X135107200Y-113838094D01*
X135107200Y-113838094D02*
X135059580Y-113885713D01*
X139939319Y-115563332D02*
X139986938Y-115420475D01*
X139986938Y-115420475D02*
X139986938Y-115182380D01*
X139986938Y-115182380D02*
X139939319Y-115087142D01*
X139939319Y-115087142D02*
X139891699Y-115039523D01*
X139891699Y-115039523D02*
X139796461Y-114991904D01*
X139796461Y-114991904D02*
X139701223Y-114991904D01*
X139701223Y-114991904D02*
X139605985Y-115039523D01*
X139605985Y-115039523D02*
X139558366Y-115087142D01*
X139558366Y-115087142D02*
X139510747Y-115182380D01*
X139510747Y-115182380D02*
X139463128Y-115372856D01*
X139463128Y-115372856D02*
X139415509Y-115468094D01*
X139415509Y-115468094D02*
X139367890Y-115515713D01*
X139367890Y-115515713D02*
X139272652Y-115563332D01*
X139272652Y-115563332D02*
X139177414Y-115563332D01*
X139177414Y-115563332D02*
X139082176Y-115515713D01*
X139082176Y-115515713D02*
X139034557Y-115468094D01*
X139034557Y-115468094D02*
X138986938Y-115372856D01*
X138986938Y-115372856D02*
X138986938Y-115134761D01*
X138986938Y-115134761D02*
X139034557Y-114991904D01*
X138986938Y-114658570D02*
X139986938Y-114420475D01*
X139986938Y-114420475D02*
X139272652Y-114229999D01*
X139272652Y-114229999D02*
X139986938Y-114039523D01*
X139986938Y-114039523D02*
X138986938Y-113801428D01*
X139082176Y-113468094D02*
X139034557Y-113420475D01*
X139034557Y-113420475D02*
X138986938Y-113325237D01*
X138986938Y-113325237D02*
X138986938Y-113087142D01*
X138986938Y-113087142D02*
X139034557Y-112991904D01*
X139034557Y-112991904D02*
X139082176Y-112944285D01*
X139082176Y-112944285D02*
X139177414Y-112896666D01*
X139177414Y-112896666D02*
X139272652Y-112896666D01*
X139272652Y-112896666D02*
X139415509Y-112944285D01*
X139415509Y-112944285D02*
X139986938Y-113515713D01*
X139986938Y-113515713D02*
X139986938Y-112896666D01*
X124666666Y-77124819D02*
X124666666Y-77839104D01*
X124666666Y-77839104D02*
X124619047Y-77981961D01*
X124619047Y-77981961D02*
X124523809Y-78077200D01*
X124523809Y-78077200D02*
X124380952Y-78124819D01*
X124380952Y-78124819D02*
X124285714Y-78124819D01*
X125571428Y-77458152D02*
X125571428Y-78124819D01*
X125333333Y-77077200D02*
X125095238Y-77791485D01*
X125095238Y-77791485D02*
X125714285Y-77791485D01*
X146667200Y-115563332D02*
X146714819Y-115420475D01*
X146714819Y-115420475D02*
X146714819Y-115182380D01*
X146714819Y-115182380D02*
X146667200Y-115087142D01*
X146667200Y-115087142D02*
X146619580Y-115039523D01*
X146619580Y-115039523D02*
X146524342Y-114991904D01*
X146524342Y-114991904D02*
X146429104Y-114991904D01*
X146429104Y-114991904D02*
X146333866Y-115039523D01*
X146333866Y-115039523D02*
X146286247Y-115087142D01*
X146286247Y-115087142D02*
X146238628Y-115182380D01*
X146238628Y-115182380D02*
X146191009Y-115372856D01*
X146191009Y-115372856D02*
X146143390Y-115468094D01*
X146143390Y-115468094D02*
X146095771Y-115515713D01*
X146095771Y-115515713D02*
X146000533Y-115563332D01*
X146000533Y-115563332D02*
X145905295Y-115563332D01*
X145905295Y-115563332D02*
X145810057Y-115515713D01*
X145810057Y-115515713D02*
X145762438Y-115468094D01*
X145762438Y-115468094D02*
X145714819Y-115372856D01*
X145714819Y-115372856D02*
X145714819Y-115134761D01*
X145714819Y-115134761D02*
X145762438Y-114991904D01*
X145714819Y-114658570D02*
X146714819Y-114420475D01*
X146714819Y-114420475D02*
X146000533Y-114229999D01*
X146000533Y-114229999D02*
X146714819Y-114039523D01*
X146714819Y-114039523D02*
X145714819Y-113801428D01*
X145714819Y-113515713D02*
X145714819Y-112896666D01*
X145714819Y-112896666D02*
X146095771Y-113229999D01*
X146095771Y-113229999D02*
X146095771Y-113087142D01*
X146095771Y-113087142D02*
X146143390Y-112991904D01*
X146143390Y-112991904D02*
X146191009Y-112944285D01*
X146191009Y-112944285D02*
X146286247Y-112896666D01*
X146286247Y-112896666D02*
X146524342Y-112896666D01*
X146524342Y-112896666D02*
X146619580Y-112944285D01*
X146619580Y-112944285D02*
X146667200Y-112991904D01*
X146667200Y-112991904D02*
X146714819Y-113087142D01*
X146714819Y-113087142D02*
X146714819Y-113372856D01*
X146714819Y-113372856D02*
X146667200Y-113468094D01*
X146667200Y-113468094D02*
X146619580Y-113515713D01*
X127680498Y-113066666D02*
X127728118Y-113114285D01*
X127728118Y-113114285D02*
X127775737Y-113257142D01*
X127775737Y-113257142D02*
X127775737Y-113352380D01*
X127775737Y-113352380D02*
X127728118Y-113495237D01*
X127728118Y-113495237D02*
X127632879Y-113590475D01*
X127632879Y-113590475D02*
X127537641Y-113638094D01*
X127537641Y-113638094D02*
X127347165Y-113685713D01*
X127347165Y-113685713D02*
X127204308Y-113685713D01*
X127204308Y-113685713D02*
X127013832Y-113638094D01*
X127013832Y-113638094D02*
X126918594Y-113590475D01*
X126918594Y-113590475D02*
X126823356Y-113495237D01*
X126823356Y-113495237D02*
X126775737Y-113352380D01*
X126775737Y-113352380D02*
X126775737Y-113257142D01*
X126775737Y-113257142D02*
X126823356Y-113114285D01*
X126823356Y-113114285D02*
X126870975Y-113066666D01*
X126775737Y-112733332D02*
X126775737Y-112114285D01*
X126775737Y-112114285D02*
X127156689Y-112447618D01*
X127156689Y-112447618D02*
X127156689Y-112304761D01*
X127156689Y-112304761D02*
X127204308Y-112209523D01*
X127204308Y-112209523D02*
X127251927Y-112161904D01*
X127251927Y-112161904D02*
X127347165Y-112114285D01*
X127347165Y-112114285D02*
X127585260Y-112114285D01*
X127585260Y-112114285D02*
X127680498Y-112161904D01*
X127680498Y-112161904D02*
X127728118Y-112209523D01*
X127728118Y-112209523D02*
X127775737Y-112304761D01*
X127775737Y-112304761D02*
X127775737Y-112590475D01*
X127775737Y-112590475D02*
X127728118Y-112685713D01*
X127728118Y-112685713D02*
X127680498Y-112733332D01*
X130123809Y-107953628D02*
X130123809Y-108429819D01*
X129790476Y-107429819D02*
X130123809Y-107953628D01*
X130123809Y-107953628D02*
X130457142Y-107429819D01*
X131314285Y-108429819D02*
X130742857Y-108429819D01*
X131028571Y-108429819D02*
X131028571Y-107429819D01*
X131028571Y-107429819D02*
X130933333Y-107572676D01*
X130933333Y-107572676D02*
X130838095Y-107667914D01*
X130838095Y-107667914D02*
X130742857Y-107715533D01*
X162166666Y-98314819D02*
X162166666Y-99029104D01*
X162166666Y-99029104D02*
X162119047Y-99171961D01*
X162119047Y-99171961D02*
X162023809Y-99267200D01*
X162023809Y-99267200D02*
X161880952Y-99314819D01*
X161880952Y-99314819D02*
X161785714Y-99314819D01*
X163166666Y-99314819D02*
X162595238Y-99314819D01*
X162880952Y-99314819D02*
X162880952Y-98314819D01*
X162880952Y-98314819D02*
X162785714Y-98457676D01*
X162785714Y-98457676D02*
X162690476Y-98552914D01*
X162690476Y-98552914D02*
X162595238Y-98600533D01*
X131858095Y-108744819D02*
X131858095Y-109554342D01*
X131858095Y-109554342D02*
X131905714Y-109649580D01*
X131905714Y-109649580D02*
X131953333Y-109697200D01*
X131953333Y-109697200D02*
X132048571Y-109744819D01*
X132048571Y-109744819D02*
X132239047Y-109744819D01*
X132239047Y-109744819D02*
X132334285Y-109697200D01*
X132334285Y-109697200D02*
X132381904Y-109649580D01*
X132381904Y-109649580D02*
X132429523Y-109554342D01*
X132429523Y-109554342D02*
X132429523Y-108744819D01*
X133334285Y-109078152D02*
X133334285Y-109744819D01*
X133096190Y-108697200D02*
X132858095Y-109411485D01*
X132858095Y-109411485D02*
X133477142Y-109411485D01*
X135087587Y-109266666D02*
X135135207Y-109314285D01*
X135135207Y-109314285D02*
X135182826Y-109457142D01*
X135182826Y-109457142D02*
X135182826Y-109552380D01*
X135182826Y-109552380D02*
X135135207Y-109695237D01*
X135135207Y-109695237D02*
X135039968Y-109790475D01*
X135039968Y-109790475D02*
X134944730Y-109838094D01*
X134944730Y-109838094D02*
X134754254Y-109885713D01*
X134754254Y-109885713D02*
X134611397Y-109885713D01*
X134611397Y-109885713D02*
X134420921Y-109838094D01*
X134420921Y-109838094D02*
X134325683Y-109790475D01*
X134325683Y-109790475D02*
X134230445Y-109695237D01*
X134230445Y-109695237D02*
X134182826Y-109552380D01*
X134182826Y-109552380D02*
X134182826Y-109457142D01*
X134182826Y-109457142D02*
X134230445Y-109314285D01*
X134230445Y-109314285D02*
X134278064Y-109266666D01*
X134516159Y-108409523D02*
X135182826Y-108409523D01*
X134135207Y-108647618D02*
X134849492Y-108885713D01*
X134849492Y-108885713D02*
X134849492Y-108266666D01*
X142098095Y-85964819D02*
X142098095Y-86774342D01*
X142098095Y-86774342D02*
X142145714Y-86869580D01*
X142145714Y-86869580D02*
X142193333Y-86917200D01*
X142193333Y-86917200D02*
X142288571Y-86964819D01*
X142288571Y-86964819D02*
X142479047Y-86964819D01*
X142479047Y-86964819D02*
X142574285Y-86917200D01*
X142574285Y-86917200D02*
X142621904Y-86869580D01*
X142621904Y-86869580D02*
X142669523Y-86774342D01*
X142669523Y-86774342D02*
X142669523Y-85964819D01*
X143621904Y-85964819D02*
X143145714Y-85964819D01*
X143145714Y-85964819D02*
X143098095Y-86441009D01*
X143098095Y-86441009D02*
X143145714Y-86393390D01*
X143145714Y-86393390D02*
X143240952Y-86345771D01*
X143240952Y-86345771D02*
X143479047Y-86345771D01*
X143479047Y-86345771D02*
X143574285Y-86393390D01*
X143574285Y-86393390D02*
X143621904Y-86441009D01*
X143621904Y-86441009D02*
X143669523Y-86536247D01*
X143669523Y-86536247D02*
X143669523Y-86774342D01*
X143669523Y-86774342D02*
X143621904Y-86869580D01*
X143621904Y-86869580D02*
X143574285Y-86917200D01*
X143574285Y-86917200D02*
X143479047Y-86964819D01*
X143479047Y-86964819D02*
X143240952Y-86964819D01*
X143240952Y-86964819D02*
X143145714Y-86917200D01*
X143145714Y-86917200D02*
X143098095Y-86869580D01*
X126640476Y-77964819D02*
X126640476Y-76964819D01*
X126640476Y-76964819D02*
X126973809Y-77679104D01*
X126973809Y-77679104D02*
X127307142Y-76964819D01*
X127307142Y-76964819D02*
X127307142Y-77964819D01*
X127783333Y-77964819D02*
X127783333Y-76964819D01*
X128354761Y-77964819D02*
X127926190Y-77393390D01*
X128354761Y-76964819D02*
X127783333Y-77536247D01*
X129307142Y-77964819D02*
X128735714Y-77964819D01*
X129021428Y-77964819D02*
X129021428Y-76964819D01*
X129021428Y-76964819D02*
X128926190Y-77107676D01*
X128926190Y-77107676D02*
X128830952Y-77202914D01*
X128830952Y-77202914D02*
X128735714Y-77250533D01*
X146023333Y-77809215D02*
X145690000Y-77333024D01*
X145451905Y-77809215D02*
X145451905Y-76809215D01*
X145451905Y-76809215D02*
X145832857Y-76809215D01*
X145832857Y-76809215D02*
X145928095Y-76856834D01*
X145928095Y-76856834D02*
X145975714Y-76904453D01*
X145975714Y-76904453D02*
X146023333Y-76999691D01*
X146023333Y-76999691D02*
X146023333Y-77142548D01*
X146023333Y-77142548D02*
X145975714Y-77237786D01*
X145975714Y-77237786D02*
X145928095Y-77285405D01*
X145928095Y-77285405D02*
X145832857Y-77333024D01*
X145832857Y-77333024D02*
X145451905Y-77333024D01*
X146880476Y-77142548D02*
X146880476Y-77809215D01*
X146642381Y-76761596D02*
X146404286Y-77475881D01*
X146404286Y-77475881D02*
X147023333Y-77475881D01*
X124666666Y-116014819D02*
X124666666Y-116729104D01*
X124666666Y-116729104D02*
X124619047Y-116871961D01*
X124619047Y-116871961D02*
X124523809Y-116967200D01*
X124523809Y-116967200D02*
X124380952Y-117014819D01*
X124380952Y-117014819D02*
X124285714Y-117014819D01*
X125047619Y-116014819D02*
X125666666Y-116014819D01*
X125666666Y-116014819D02*
X125333333Y-116395771D01*
X125333333Y-116395771D02*
X125476190Y-116395771D01*
X125476190Y-116395771D02*
X125571428Y-116443390D01*
X125571428Y-116443390D02*
X125619047Y-116491009D01*
X125619047Y-116491009D02*
X125666666Y-116586247D01*
X125666666Y-116586247D02*
X125666666Y-116824342D01*
X125666666Y-116824342D02*
X125619047Y-116919580D01*
X125619047Y-116919580D02*
X125571428Y-116967200D01*
X125571428Y-116967200D02*
X125476190Y-117014819D01*
X125476190Y-117014819D02*
X125190476Y-117014819D01*
X125190476Y-117014819D02*
X125095238Y-116967200D01*
X125095238Y-116967200D02*
X125047619Y-116919580D01*
X141994819Y-77971904D02*
X142804342Y-77971904D01*
X142804342Y-77971904D02*
X142899580Y-77924285D01*
X142899580Y-77924285D02*
X142947200Y-77876666D01*
X142947200Y-77876666D02*
X142994819Y-77781428D01*
X142994819Y-77781428D02*
X142994819Y-77590952D01*
X142994819Y-77590952D02*
X142947200Y-77495714D01*
X142947200Y-77495714D02*
X142899580Y-77448095D01*
X142899580Y-77448095D02*
X142804342Y-77400476D01*
X142804342Y-77400476D02*
X141994819Y-77400476D01*
X142994819Y-76400476D02*
X142994819Y-76971904D01*
X142994819Y-76686190D02*
X141994819Y-76686190D01*
X141994819Y-76686190D02*
X142137676Y-76781428D01*
X142137676Y-76781428D02*
X142232914Y-76876666D01*
X142232914Y-76876666D02*
X142280533Y-76971904D01*
X147943333Y-82834819D02*
X147610000Y-82358628D01*
X147371905Y-82834819D02*
X147371905Y-81834819D01*
X147371905Y-81834819D02*
X147752857Y-81834819D01*
X147752857Y-81834819D02*
X147848095Y-81882438D01*
X147848095Y-81882438D02*
X147895714Y-81930057D01*
X147895714Y-81930057D02*
X147943333Y-82025295D01*
X147943333Y-82025295D02*
X147943333Y-82168152D01*
X147943333Y-82168152D02*
X147895714Y-82263390D01*
X147895714Y-82263390D02*
X147848095Y-82311009D01*
X147848095Y-82311009D02*
X147752857Y-82358628D01*
X147752857Y-82358628D02*
X147371905Y-82358628D01*
X148895714Y-82834819D02*
X148324286Y-82834819D01*
X148610000Y-82834819D02*
X148610000Y-81834819D01*
X148610000Y-81834819D02*
X148514762Y-81977676D01*
X148514762Y-81977676D02*
X148419524Y-82072914D01*
X148419524Y-82072914D02*
X148324286Y-82120533D01*
X124666666Y-82649819D02*
X124666666Y-83364104D01*
X124666666Y-83364104D02*
X124619047Y-83506961D01*
X124619047Y-83506961D02*
X124523809Y-83602200D01*
X124523809Y-83602200D02*
X124380952Y-83649819D01*
X124380952Y-83649819D02*
X124285714Y-83649819D01*
X125095238Y-82745057D02*
X125142857Y-82697438D01*
X125142857Y-82697438D02*
X125238095Y-82649819D01*
X125238095Y-82649819D02*
X125476190Y-82649819D01*
X125476190Y-82649819D02*
X125571428Y-82697438D01*
X125571428Y-82697438D02*
X125619047Y-82745057D01*
X125619047Y-82745057D02*
X125666666Y-82840295D01*
X125666666Y-82840295D02*
X125666666Y-82935533D01*
X125666666Y-82935533D02*
X125619047Y-83078390D01*
X125619047Y-83078390D02*
X125047619Y-83649819D01*
X125047619Y-83649819D02*
X125666666Y-83649819D01*
X133733333Y-99579580D02*
X133685714Y-99627200D01*
X133685714Y-99627200D02*
X133542857Y-99674819D01*
X133542857Y-99674819D02*
X133447619Y-99674819D01*
X133447619Y-99674819D02*
X133304762Y-99627200D01*
X133304762Y-99627200D02*
X133209524Y-99531961D01*
X133209524Y-99531961D02*
X133161905Y-99436723D01*
X133161905Y-99436723D02*
X133114286Y-99246247D01*
X133114286Y-99246247D02*
X133114286Y-99103390D01*
X133114286Y-99103390D02*
X133161905Y-98912914D01*
X133161905Y-98912914D02*
X133209524Y-98817676D01*
X133209524Y-98817676D02*
X133304762Y-98722438D01*
X133304762Y-98722438D02*
X133447619Y-98674819D01*
X133447619Y-98674819D02*
X133542857Y-98674819D01*
X133542857Y-98674819D02*
X133685714Y-98722438D01*
X133685714Y-98722438D02*
X133733333Y-98770057D01*
X134685714Y-99674819D02*
X134114286Y-99674819D01*
X134400000Y-99674819D02*
X134400000Y-98674819D01*
X134400000Y-98674819D02*
X134304762Y-98817676D01*
X134304762Y-98817676D02*
X134209524Y-98912914D01*
X134209524Y-98912914D02*
X134114286Y-98960533D01*
X161738095Y-85614819D02*
X161738095Y-86424342D01*
X161738095Y-86424342D02*
X161785714Y-86519580D01*
X161785714Y-86519580D02*
X161833333Y-86567200D01*
X161833333Y-86567200D02*
X161928571Y-86614819D01*
X161928571Y-86614819D02*
X162119047Y-86614819D01*
X162119047Y-86614819D02*
X162214285Y-86567200D01*
X162214285Y-86567200D02*
X162261904Y-86519580D01*
X162261904Y-86519580D02*
X162309523Y-86424342D01*
X162309523Y-86424342D02*
X162309523Y-85614819D01*
X162738095Y-85710057D02*
X162785714Y-85662438D01*
X162785714Y-85662438D02*
X162880952Y-85614819D01*
X162880952Y-85614819D02*
X163119047Y-85614819D01*
X163119047Y-85614819D02*
X163214285Y-85662438D01*
X163214285Y-85662438D02*
X163261904Y-85710057D01*
X163261904Y-85710057D02*
X163309523Y-85805295D01*
X163309523Y-85805295D02*
X163309523Y-85900533D01*
X163309523Y-85900533D02*
X163261904Y-86043390D01*
X163261904Y-86043390D02*
X162690476Y-86614819D01*
X162690476Y-86614819D02*
X163309523Y-86614819D01*
X149243333Y-78709580D02*
X149195714Y-78757200D01*
X149195714Y-78757200D02*
X149052857Y-78804819D01*
X149052857Y-78804819D02*
X148957619Y-78804819D01*
X148957619Y-78804819D02*
X148814762Y-78757200D01*
X148814762Y-78757200D02*
X148719524Y-78661961D01*
X148719524Y-78661961D02*
X148671905Y-78566723D01*
X148671905Y-78566723D02*
X148624286Y-78376247D01*
X148624286Y-78376247D02*
X148624286Y-78233390D01*
X148624286Y-78233390D02*
X148671905Y-78042914D01*
X148671905Y-78042914D02*
X148719524Y-77947676D01*
X148719524Y-77947676D02*
X148814762Y-77852438D01*
X148814762Y-77852438D02*
X148957619Y-77804819D01*
X148957619Y-77804819D02*
X149052857Y-77804819D01*
X149052857Y-77804819D02*
X149195714Y-77852438D01*
X149195714Y-77852438D02*
X149243333Y-77900057D01*
X149576667Y-77804819D02*
X150243333Y-77804819D01*
X150243333Y-77804819D02*
X149814762Y-78804819D01*
X144018095Y-95974819D02*
X144018095Y-96784342D01*
X144018095Y-96784342D02*
X144065714Y-96879580D01*
X144065714Y-96879580D02*
X144113333Y-96927200D01*
X144113333Y-96927200D02*
X144208571Y-96974819D01*
X144208571Y-96974819D02*
X144399047Y-96974819D01*
X144399047Y-96974819D02*
X144494285Y-96927200D01*
X144494285Y-96927200D02*
X144541904Y-96879580D01*
X144541904Y-96879580D02*
X144589523Y-96784342D01*
X144589523Y-96784342D02*
X144589523Y-95974819D01*
X144970476Y-95974819D02*
X145589523Y-95974819D01*
X145589523Y-95974819D02*
X145256190Y-96355771D01*
X145256190Y-96355771D02*
X145399047Y-96355771D01*
X145399047Y-96355771D02*
X145494285Y-96403390D01*
X145494285Y-96403390D02*
X145541904Y-96451009D01*
X145541904Y-96451009D02*
X145589523Y-96546247D01*
X145589523Y-96546247D02*
X145589523Y-96784342D01*
X145589523Y-96784342D02*
X145541904Y-96879580D01*
X145541904Y-96879580D02*
X145494285Y-96927200D01*
X145494285Y-96927200D02*
X145399047Y-96974819D01*
X145399047Y-96974819D02*
X145113333Y-96974819D01*
X145113333Y-96974819D02*
X145018095Y-96927200D01*
X145018095Y-96927200D02*
X144970476Y-96879580D01*
X137499580Y-81516666D02*
X137547200Y-81564285D01*
X137547200Y-81564285D02*
X137594819Y-81707142D01*
X137594819Y-81707142D02*
X137594819Y-81802380D01*
X137594819Y-81802380D02*
X137547200Y-81945237D01*
X137547200Y-81945237D02*
X137451961Y-82040475D01*
X137451961Y-82040475D02*
X137356723Y-82088094D01*
X137356723Y-82088094D02*
X137166247Y-82135713D01*
X137166247Y-82135713D02*
X137023390Y-82135713D01*
X137023390Y-82135713D02*
X136832914Y-82088094D01*
X136832914Y-82088094D02*
X136737676Y-82040475D01*
X136737676Y-82040475D02*
X136642438Y-81945237D01*
X136642438Y-81945237D02*
X136594819Y-81802380D01*
X136594819Y-81802380D02*
X136594819Y-81707142D01*
X136594819Y-81707142D02*
X136642438Y-81564285D01*
X136642438Y-81564285D02*
X136690057Y-81516666D01*
X136594819Y-80659523D02*
X136594819Y-80849999D01*
X136594819Y-80849999D02*
X136642438Y-80945237D01*
X136642438Y-80945237D02*
X136690057Y-80992856D01*
X136690057Y-80992856D02*
X136832914Y-81088094D01*
X136832914Y-81088094D02*
X137023390Y-81135713D01*
X137023390Y-81135713D02*
X137404342Y-81135713D01*
X137404342Y-81135713D02*
X137499580Y-81088094D01*
X137499580Y-81088094D02*
X137547200Y-81040475D01*
X137547200Y-81040475D02*
X137594819Y-80945237D01*
X137594819Y-80945237D02*
X137594819Y-80754761D01*
X137594819Y-80754761D02*
X137547200Y-80659523D01*
X137547200Y-80659523D02*
X137499580Y-80611904D01*
X137499580Y-80611904D02*
X137404342Y-80564285D01*
X137404342Y-80564285D02*
X137166247Y-80564285D01*
X137166247Y-80564285D02*
X137071009Y-80611904D01*
X137071009Y-80611904D02*
X137023390Y-80659523D01*
X137023390Y-80659523D02*
X136975771Y-80754761D01*
X136975771Y-80754761D02*
X136975771Y-80945237D01*
X136975771Y-80945237D02*
X137023390Y-81040475D01*
X137023390Y-81040475D02*
X137071009Y-81088094D01*
X137071009Y-81088094D02*
X137166247Y-81135713D01*
X148733333Y-108154819D02*
X148400000Y-107678628D01*
X148161905Y-108154819D02*
X148161905Y-107154819D01*
X148161905Y-107154819D02*
X148542857Y-107154819D01*
X148542857Y-107154819D02*
X148638095Y-107202438D01*
X148638095Y-107202438D02*
X148685714Y-107250057D01*
X148685714Y-107250057D02*
X148733333Y-107345295D01*
X148733333Y-107345295D02*
X148733333Y-107488152D01*
X148733333Y-107488152D02*
X148685714Y-107583390D01*
X148685714Y-107583390D02*
X148638095Y-107631009D01*
X148638095Y-107631009D02*
X148542857Y-107678628D01*
X148542857Y-107678628D02*
X148161905Y-107678628D01*
X149114286Y-107250057D02*
X149161905Y-107202438D01*
X149161905Y-107202438D02*
X149257143Y-107154819D01*
X149257143Y-107154819D02*
X149495238Y-107154819D01*
X149495238Y-107154819D02*
X149590476Y-107202438D01*
X149590476Y-107202438D02*
X149638095Y-107250057D01*
X149638095Y-107250057D02*
X149685714Y-107345295D01*
X149685714Y-107345295D02*
X149685714Y-107440533D01*
X149685714Y-107440533D02*
X149638095Y-107583390D01*
X149638095Y-107583390D02*
X149066667Y-108154819D01*
X149066667Y-108154819D02*
X149685714Y-108154819D01*
X139724819Y-76566666D02*
X139724819Y-77042856D01*
X139724819Y-77042856D02*
X138724819Y-77042856D01*
X139724819Y-75709523D02*
X139724819Y-76280951D01*
X139724819Y-75995237D02*
X138724819Y-75995237D01*
X138724819Y-75995237D02*
X138867676Y-76090475D01*
X138867676Y-76090475D02*
X138962914Y-76185713D01*
X138962914Y-76185713D02*
X139010533Y-76280951D01*
D11*
%TO.C,C8*%
X149309420Y-87340000D02*
X149590580Y-87340000D01*
X149309420Y-88360000D02*
X149590580Y-88360000D01*
%TO.C,C2*%
X129270000Y-98560580D02*
X129270000Y-98279420D01*
X130290000Y-98560580D02*
X130290000Y-98279420D01*
%TO.C,R3*%
X143897742Y-108487500D02*
X144372258Y-108487500D01*
X143897742Y-109532500D02*
X144372258Y-109532500D01*
%TO.C,AE1*%
X163633588Y-81522663D02*
G75*
G03*
X163619999Y-78060000I-4763587J1712664D01*
G01*
X157157337Y-84573588D02*
G75*
G03*
X160620000Y-84559999I1712664J4763587D01*
G01*
X160582663Y-75046411D02*
G75*
G03*
X157120000Y-75060000I-1712663J-4763589D01*
G01*
X154106411Y-78097337D02*
G75*
G03*
X154120000Y-81560000I4763589J-1712663D01*
G01*
%TO.C,R5*%
X135448149Y-77851907D02*
X135448149Y-78326423D01*
X134403149Y-77851907D02*
X134403149Y-78326423D01*
%TO.C,C5*%
X136647119Y-113422820D02*
X136647119Y-113703980D01*
X135627119Y-113422820D02*
X135627119Y-113703980D01*
%TO.C,SW2*%
X139640000Y-115560000D02*
X139640000Y-114230000D01*
X140970000Y-115560000D02*
X139640000Y-115560000D01*
X142240000Y-115560000D02*
X144840000Y-115560000D01*
X142240000Y-115560000D02*
X142240000Y-112900000D01*
X144840000Y-115560000D02*
X144840000Y-112900000D01*
X142240000Y-112900000D02*
X144840000Y-112900000D01*
%TO.C,J4*%
X123670000Y-78670000D02*
X125000000Y-78670000D01*
X123670000Y-80000000D02*
X123670000Y-78670000D01*
X123670000Y-81270000D02*
X123670000Y-81330000D01*
X123670000Y-81270000D02*
X126330000Y-81270000D01*
X123670000Y-81330000D02*
X126330000Y-81330000D01*
X126330000Y-81270000D02*
X126330000Y-81330000D01*
%TO.C,SW3*%
X147260000Y-115560000D02*
X147260000Y-114230000D01*
X148590000Y-115560000D02*
X147260000Y-115560000D01*
X149860000Y-115560000D02*
X152460000Y-115560000D01*
X149860000Y-115560000D02*
X149860000Y-112900000D01*
X152460000Y-115560000D02*
X152460000Y-112900000D01*
X149860000Y-112900000D02*
X152460000Y-112900000D01*
%TO.C,C3*%
X128240918Y-112598988D02*
X128240918Y-112317828D01*
X129260918Y-112598988D02*
X129260918Y-112317828D01*
%TO.C,Y1*%
X133725000Y-106975000D02*
X127475000Y-106975000D01*
X133725000Y-101925000D02*
X127475000Y-101925000D01*
X133725000Y-106975000D02*
G75*
G03*
X133725000Y-101925000I0J2525000D01*
G01*
X127475000Y-101925000D02*
G75*
G03*
X127475000Y-106975000I0J-2525000D01*
G01*
%TO.C,J1*%
X161170000Y-99860000D02*
X162500000Y-99860000D01*
X161170000Y-101190000D02*
X161170000Y-99860000D01*
X161170000Y-102460000D02*
X161170000Y-110140000D01*
X161170000Y-102460000D02*
X163830000Y-102460000D01*
X161170000Y-110140000D02*
X163830000Y-110140000D01*
X163830000Y-102460000D02*
X163830000Y-110140000D01*
%TO.C,U4*%
X132620000Y-110130000D02*
X130820000Y-110130000D01*
X132620000Y-110130000D02*
X133420000Y-110130000D01*
X132620000Y-113250000D02*
X131820000Y-113250000D01*
X132620000Y-113250000D02*
X133420000Y-113250000D01*
%TO.C,C4*%
X135648007Y-109796785D02*
X135648007Y-109515625D01*
X136668007Y-109796785D02*
X136668007Y-109515625D01*
%TO.C,U5*%
X146430000Y-86790000D02*
X144530000Y-86790000D01*
X145030000Y-89110000D02*
X146430000Y-89110000D01*
%TO.C,MK1*%
X123670000Y-76330000D02*
X123670000Y-75000000D01*
X125000000Y-76330000D02*
X123670000Y-76330000D01*
X126270000Y-76330000D02*
X128870000Y-76330000D01*
X126270000Y-76330000D02*
X126270000Y-73670000D01*
X128870000Y-76330000D02*
X128870000Y-73670000D01*
X126270000Y-73670000D02*
X128870000Y-73670000D01*
%TO.C,R4*%
X146427258Y-79272500D02*
X145952742Y-79272500D01*
X146427258Y-78227500D02*
X145952742Y-78227500D01*
%TO.C,SW1*%
X123670000Y-91585000D02*
X125000000Y-91585000D01*
X123670000Y-92915000D02*
X123670000Y-91585000D01*
X123670000Y-94185000D02*
X123670000Y-99325000D01*
X123670000Y-94185000D02*
X126330000Y-94185000D01*
X123670000Y-99325000D02*
X126330000Y-99325000D01*
X126330000Y-94185000D02*
X126330000Y-99325000D01*
%TO.C,J3*%
X126330000Y-115560000D02*
X125000000Y-115560000D01*
X126330000Y-114230000D02*
X126330000Y-115560000D01*
X126330000Y-112960000D02*
X126330000Y-110360000D01*
X126330000Y-112960000D02*
X123670000Y-112960000D01*
X126330000Y-110360000D02*
X123670000Y-110360000D01*
X123670000Y-112960000D02*
X123670000Y-110360000D01*
%TO.C,U1*%
X142532500Y-78260000D02*
X140732500Y-78260000D01*
X142532500Y-78260000D02*
X143332500Y-78260000D01*
X142532500Y-81380000D02*
X141732500Y-81380000D01*
X142532500Y-81380000D02*
X143332500Y-81380000D01*
%TO.C,R1*%
X146407258Y-81412500D02*
X145932742Y-81412500D01*
X146407258Y-80367500D02*
X145932742Y-80367500D01*
%TO.C,J2*%
X123670000Y-84195000D02*
X125000000Y-84195000D01*
X123670000Y-85525000D02*
X123670000Y-84195000D01*
X123670000Y-86795000D02*
X123670000Y-89395000D01*
X123670000Y-86795000D02*
X126330000Y-86795000D01*
X123670000Y-89395000D02*
X126330000Y-89395000D01*
X126330000Y-86795000D02*
X126330000Y-89395000D01*
%TO.C,C1*%
X133759420Y-100140000D02*
X134040580Y-100140000D01*
X133759420Y-101160000D02*
X134040580Y-101160000D01*
%TO.C,U2*%
X161170000Y-87160000D02*
X162500000Y-87160000D01*
X161170000Y-88490000D02*
X161170000Y-87160000D01*
X161170000Y-89760000D02*
X161170000Y-97440000D01*
X161170000Y-89760000D02*
X163830000Y-89760000D01*
X161170000Y-97440000D02*
X163830000Y-97440000D01*
X163830000Y-89760000D02*
X163830000Y-97440000D01*
%TO.C,C7*%
X149549736Y-80350000D02*
X149268576Y-80350000D01*
X149549736Y-79330000D02*
X149268576Y-79330000D01*
D10*
%TO.C,U3*%
X139855000Y-94325000D02*
X139855000Y-94550000D01*
X139855000Y-94325000D02*
X140180000Y-94325000D01*
X139855000Y-94550000D02*
X138430000Y-94550000D01*
X139855000Y-101575000D02*
X139855000Y-101250000D01*
X139855000Y-101575000D02*
X140180000Y-101575000D01*
X147105000Y-94325000D02*
X146780000Y-94325000D01*
X147105000Y-94325000D02*
X147105000Y-94650000D01*
X147105000Y-101575000D02*
X146780000Y-101575000D01*
X147105000Y-101575000D02*
X147105000Y-101250000D01*
D11*
%TO.C,C6*%
X137510000Y-77884420D02*
X137510000Y-78165580D01*
X136490000Y-77884420D02*
X136490000Y-78165580D01*
%TO.C,R2*%
X148827258Y-109672500D02*
X148352742Y-109672500D01*
X148827258Y-108627500D02*
X148352742Y-108627500D01*
%TO.C,L1*%
X138774156Y-79103855D02*
X138774156Y-78778297D01*
X139794156Y-79103855D02*
X139794156Y-78778297D01*
%TD*%
M02*
