%TF.GenerationSoftware,KiCad,Pcbnew,7.0.8-7.0.8~ubuntu22.04.1*%
%TF.CreationDate,2023-11-09T22:33:03+02:00*%
%TF.ProjectId,elepajaradio,656c6570-616a-4617-9261-64696f2e6b69,rev?*%
%TF.SameCoordinates,Original*%
%TF.FileFunction,Soldermask,Top*%
%TF.FilePolarity,Negative*%
%FSLAX46Y46*%
G04 Gerber Fmt 4.6, Leading zero omitted, Abs format (unit mm)*
G04 Created by KiCad (PCBNEW 7.0.8-7.0.8~ubuntu22.04.1) date 2023-11-09 22:33:03*
%MOMM*%
%LPD*%
G01*
G04 APERTURE LIST*
G04 Aperture macros list*
%AMRoundRect*
0 Rectangle with rounded corners*
0 $1 Rounding radius*
0 $2 $3 $4 $5 $6 $7 $8 $9 X,Y pos of 4 corners*
0 Add a 4 corners polygon primitive as box body*
4,1,4,$2,$3,$4,$5,$6,$7,$8,$9,$2,$3,0*
0 Add four circle primitives for the rounded corners*
1,1,$1+$1,$2,$3*
1,1,$1+$1,$4,$5*
1,1,$1+$1,$6,$7*
1,1,$1+$1,$8,$9*
0 Add four rect primitives between the rounded corners*
20,1,$1+$1,$2,$3,$4,$5,0*
20,1,$1+$1,$4,$5,$6,$7,0*
20,1,$1+$1,$6,$7,$8,$9,0*
20,1,$1+$1,$8,$9,$2,$3,0*%
G04 Aperture macros list end*
%ADD10RoundRect,0.225000X-0.225000X-0.250000X0.225000X-0.250000X0.225000X0.250000X-0.225000X0.250000X0*%
%ADD11RoundRect,0.225000X0.250000X-0.225000X0.250000X0.225000X-0.250000X0.225000X-0.250000X-0.225000X0*%
%ADD12RoundRect,0.200000X-0.200000X-0.275000X0.200000X-0.275000X0.200000X0.275000X-0.200000X0.275000X0*%
%ADD13C,3.556000*%
%ADD14C,3.810000*%
%ADD15RoundRect,0.200000X-0.275000X0.200000X-0.275000X-0.200000X0.275000X-0.200000X0.275000X0.200000X0*%
%ADD16RoundRect,0.225000X-0.250000X0.225000X-0.250000X-0.225000X0.250000X-0.225000X0.250000X0.225000X0*%
%ADD17R,1.700000X1.700000*%
%ADD18O,1.700000X1.700000*%
%ADD19C,1.500000*%
%ADD20RoundRect,0.150000X-0.512500X-0.150000X0.512500X-0.150000X0.512500X0.150000X-0.512500X0.150000X0*%
%ADD21R,0.650000X0.400000*%
%ADD22RoundRect,0.200000X0.200000X0.275000X-0.200000X0.275000X-0.200000X-0.275000X0.200000X-0.275000X0*%
%ADD23RoundRect,0.225000X0.225000X0.250000X-0.225000X0.250000X-0.225000X-0.250000X0.225000X-0.250000X0*%
%ADD24R,1.600000X0.550000*%
%ADD25R,0.550000X1.600000*%
%ADD26RoundRect,0.218750X0.256250X-0.218750X0.256250X0.218750X-0.256250X0.218750X-0.256250X-0.218750X0*%
G04 APERTURE END LIST*
D10*
%TO.C,C8*%
X148675000Y-87850000D03*
X150225000Y-87850000D03*
%TD*%
D11*
%TO.C,C2*%
X129780000Y-99195000D03*
X129780000Y-97645000D03*
%TD*%
D12*
%TO.C,R3*%
X143310000Y-109010000D03*
X144960000Y-109010000D03*
%TD*%
D13*
%TO.C,AE1*%
X158870000Y-79810000D03*
D14*
X162045000Y-82985000D03*
X162045000Y-76635000D03*
X155695000Y-82985000D03*
X155695000Y-76635000D03*
%TD*%
D15*
%TO.C,R5*%
X134925649Y-77264165D03*
X134925649Y-78914165D03*
%TD*%
D16*
%TO.C,C5*%
X136137119Y-112788400D03*
X136137119Y-114338400D03*
%TD*%
D17*
%TO.C,SW2*%
X140970000Y-114230000D03*
D18*
X143510000Y-114230000D03*
%TD*%
D17*
%TO.C,J4*%
X125000000Y-80000000D03*
%TD*%
%TO.C,SW3*%
X148590000Y-114230000D03*
D18*
X151130000Y-114230000D03*
%TD*%
D11*
%TO.C,C3*%
X128750918Y-113233408D03*
X128750918Y-111683408D03*
%TD*%
D19*
%TO.C,Y1*%
X133050000Y-104450000D03*
X128150000Y-104450000D03*
%TD*%
D17*
%TO.C,J1*%
X162500000Y-101190000D03*
D18*
X162500000Y-103730000D03*
X162500000Y-106270000D03*
X162500000Y-108810000D03*
%TD*%
D20*
%TO.C,U4*%
X131482500Y-110740000D03*
X131482500Y-111690000D03*
X131482500Y-112640000D03*
X133757500Y-112640000D03*
X133757500Y-110740000D03*
%TD*%
D11*
%TO.C,C4*%
X136158007Y-110431205D03*
X136158007Y-108881205D03*
%TD*%
D21*
%TO.C,U5*%
X146680000Y-87300000D03*
X146680000Y-87950000D03*
X146680000Y-88600000D03*
X144780000Y-88600000D03*
X144780000Y-87950000D03*
X144780000Y-87300000D03*
%TD*%
D17*
%TO.C,MK1*%
X125000000Y-75000000D03*
D18*
X127540000Y-75000000D03*
%TD*%
D22*
%TO.C,R4*%
X147015000Y-78750000D03*
X145365000Y-78750000D03*
%TD*%
D17*
%TO.C,SW1*%
X125000000Y-92915000D03*
D18*
X125000000Y-95455000D03*
X125000000Y-97995000D03*
%TD*%
D17*
%TO.C,J3*%
X125000000Y-114230000D03*
D18*
X125000000Y-111690000D03*
%TD*%
D20*
%TO.C,U1*%
X141395000Y-78870000D03*
X141395000Y-79820000D03*
X141395000Y-80770000D03*
X143670000Y-80770000D03*
X143670000Y-79820000D03*
X143670000Y-78870000D03*
%TD*%
D22*
%TO.C,R1*%
X146995000Y-80890000D03*
X145345000Y-80890000D03*
%TD*%
D17*
%TO.C,J2*%
X125000000Y-85525000D03*
D18*
X125000000Y-88065000D03*
%TD*%
D10*
%TO.C,C1*%
X133125000Y-100650000D03*
X134675000Y-100650000D03*
%TD*%
D17*
%TO.C,U2*%
X162500000Y-88490000D03*
D18*
X162500000Y-91030000D03*
X162500000Y-93570000D03*
X162500000Y-96110000D03*
%TD*%
D23*
%TO.C,C7*%
X150184156Y-79840000D03*
X148634156Y-79840000D03*
%TD*%
D24*
%TO.C,U3*%
X139230000Y-95150000D03*
X139230000Y-95950000D03*
X139230000Y-96750000D03*
X139230000Y-97550000D03*
X139230000Y-98350000D03*
X139230000Y-99150000D03*
X139230000Y-99950000D03*
X139230000Y-100750000D03*
D25*
X140680000Y-102200000D03*
X141480000Y-102200000D03*
X142280000Y-102200000D03*
X143080000Y-102200000D03*
X143880000Y-102200000D03*
X144680000Y-102200000D03*
X145480000Y-102200000D03*
X146280000Y-102200000D03*
D24*
X147730000Y-100750000D03*
X147730000Y-99950000D03*
X147730000Y-99150000D03*
X147730000Y-98350000D03*
X147730000Y-97550000D03*
X147730000Y-96750000D03*
X147730000Y-95950000D03*
X147730000Y-95150000D03*
D25*
X146280000Y-93700000D03*
X145480000Y-93700000D03*
X144680000Y-93700000D03*
X143880000Y-93700000D03*
X143080000Y-93700000D03*
X142280000Y-93700000D03*
X141480000Y-93700000D03*
X140680000Y-93700000D03*
%TD*%
D16*
%TO.C,C6*%
X137000000Y-77250000D03*
X137000000Y-78800000D03*
%TD*%
D22*
%TO.C,R2*%
X149415000Y-109150000D03*
X147765000Y-109150000D03*
%TD*%
D26*
%TO.C,L1*%
X139284156Y-79728576D03*
X139284156Y-78153576D03*
%TD*%
M02*
