M48
; DRILL file {KiCad 7.0.8-7.0.8~ubuntu22.04.1} date to  9. marraskuuta 2023 22.33.21
; FORMAT={-:-/ absolute / metric / decimal}
; #@! TF.CreationDate,2023-11-09T22:33:21+02:00
; #@! TF.GenerationSoftware,Kicad,Pcbnew,7.0.8-7.0.8~ubuntu22.04.1
; #@! TF.FileFunction,Plated,1,2,PTH
FMAT,2
METRIC
; #@! TA.AperFunction,Plated,PTH,ViaDrill
T1C0.400
; #@! TA.AperFunction,Plated,PTH,ComponentDrill
T2C0.800
; #@! TA.AperFunction,Plated,PTH,ComponentDrill
T3C1.000
; #@! TA.AperFunction,Plated,PTH,ComponentDrill
T4C1.270
; #@! TA.AperFunction,Plated,PTH,ComponentDrill
T5C1.524
%
G90
G05
T1
X134.8Y-80.6
X136.2Y-97.45
X137.587Y-98.413
X140.137Y-108.74
X142.29Y-87.44
X143.25Y-88.5
X144.75Y-90.5
X146.284Y-82.47
X150.0Y-100.0
X157.3Y-93.61
X157.41Y-88.35
T2
X128.15Y-104.45
X133.05Y-104.45
T3
X125.0Y-75.0
X125.0Y-80.0
X125.0Y-85.525
X125.0Y-88.065
X125.0Y-92.915
X125.0Y-95.455
X125.0Y-97.995
X125.0Y-111.69
X125.0Y-114.23
X127.54Y-75.0
X140.97Y-114.23
X143.51Y-114.23
X148.59Y-114.23
X151.13Y-114.23
X162.5Y-88.49
X162.5Y-91.03
X162.5Y-93.57
X162.5Y-96.11
X162.5Y-101.19
X162.5Y-103.73
X162.5Y-106.27
X162.5Y-108.81
T4
X158.87Y-79.81
T5
X155.695Y-76.635
X155.695Y-82.985
X162.045Y-76.635
X162.045Y-82.985
T0
M30
