G04 #@! TF.GenerationSoftware,KiCad,Pcbnew,7.0.9-7.0.9~ubuntu22.04.1*
G04 #@! TF.CreationDate,2023-11-28T09:56:05+02:00*
G04 #@! TF.ProjectId,elepajaradio,656c6570-616a-4617-9261-64696f2e6b69,rev?*
G04 #@! TF.SameCoordinates,Original*
G04 #@! TF.FileFunction,Paste,Top*
G04 #@! TF.FilePolarity,Positive*
%FSLAX46Y46*%
G04 Gerber Fmt 4.6, Leading zero omitted, Abs format (unit mm)*
G04 Created by KiCad (PCBNEW 7.0.9-7.0.9~ubuntu22.04.1) date 2023-11-28 09:56:05*
%MOMM*%
%LPD*%
G01*
G04 APERTURE LIST*
G04 Aperture macros list*
%AMRoundRect*
0 Rectangle with rounded corners*
0 $1 Rounding radius*
0 $2 $3 $4 $5 $6 $7 $8 $9 X,Y pos of 4 corners*
0 Add a 4 corners polygon primitive as box body*
4,1,4,$2,$3,$4,$5,$6,$7,$8,$9,$2,$3,0*
0 Add four circle primitives for the rounded corners*
1,1,$1+$1,$2,$3*
1,1,$1+$1,$4,$5*
1,1,$1+$1,$6,$7*
1,1,$1+$1,$8,$9*
0 Add four rect primitives between the rounded corners*
20,1,$1+$1,$2,$3,$4,$5,0*
20,1,$1+$1,$4,$5,$6,$7,0*
20,1,$1+$1,$6,$7,$8,$9,0*
20,1,$1+$1,$8,$9,$2,$3,0*%
G04 Aperture macros list end*
%ADD10RoundRect,0.225000X-0.225000X-0.250000X0.225000X-0.250000X0.225000X0.250000X-0.225000X0.250000X0*%
%ADD11RoundRect,0.225000X0.250000X-0.225000X0.250000X0.225000X-0.250000X0.225000X-0.250000X-0.225000X0*%
%ADD12RoundRect,0.200000X-0.200000X-0.275000X0.200000X-0.275000X0.200000X0.275000X-0.200000X0.275000X0*%
%ADD13RoundRect,0.200000X-0.275000X0.200000X-0.275000X-0.200000X0.275000X-0.200000X0.275000X0.200000X0*%
%ADD14RoundRect,0.225000X-0.250000X0.225000X-0.250000X-0.225000X0.250000X-0.225000X0.250000X0.225000X0*%
%ADD15RoundRect,0.150000X-0.512500X-0.150000X0.512500X-0.150000X0.512500X0.150000X-0.512500X0.150000X0*%
%ADD16R,0.650000X0.400000*%
%ADD17RoundRect,0.200000X0.275000X-0.200000X0.275000X0.200000X-0.275000X0.200000X-0.275000X-0.200000X0*%
%ADD18RoundRect,0.225000X0.225000X0.250000X-0.225000X0.250000X-0.225000X-0.250000X0.225000X-0.250000X0*%
%ADD19R,1.600000X0.550000*%
%ADD20R,0.550000X1.600000*%
%ADD21RoundRect,0.200000X0.200000X0.275000X-0.200000X0.275000X-0.200000X-0.275000X0.200000X-0.275000X0*%
%ADD22RoundRect,0.218750X0.256250X-0.218750X0.256250X0.218750X-0.256250X0.218750X-0.256250X-0.218750X0*%
G04 APERTURE END LIST*
D10*
X148225000Y-87850000D03*
X149775000Y-87850000D03*
D11*
X129780000Y-99195000D03*
X129780000Y-97645000D03*
D12*
X143310000Y-109010000D03*
X144960000Y-109010000D03*
D13*
X134925649Y-77264165D03*
X134925649Y-78914165D03*
D14*
X136137119Y-112788400D03*
X136137119Y-114338400D03*
D11*
X128750918Y-113233408D03*
X128750918Y-111683408D03*
D15*
X131482500Y-110740000D03*
X131482500Y-111690000D03*
X131482500Y-112640000D03*
X133757500Y-112640000D03*
X133757500Y-110740000D03*
D11*
X136158007Y-110431205D03*
X136158007Y-108881205D03*
D16*
X144780000Y-87300000D03*
X144780000Y-87950000D03*
X144780000Y-88600000D03*
X146680000Y-88600000D03*
X146680000Y-87950000D03*
X146680000Y-87300000D03*
D17*
X145500000Y-80575000D03*
X145500000Y-78925000D03*
D15*
X141395000Y-78870000D03*
X141395000Y-79820000D03*
X141395000Y-80770000D03*
X143670000Y-80770000D03*
X143670000Y-79820000D03*
X143670000Y-78870000D03*
D13*
X145500000Y-81925000D03*
X145500000Y-83575000D03*
D10*
X133125000Y-100650000D03*
X134675000Y-100650000D03*
D18*
X148775000Y-79000000D03*
X147225000Y-79000000D03*
D19*
X139230000Y-95150000D03*
X139230000Y-95950000D03*
X139230000Y-96750000D03*
X139230000Y-97550000D03*
X139230000Y-98350000D03*
X139230000Y-99150000D03*
X139230000Y-99950000D03*
X139230000Y-100750000D03*
D20*
X140680000Y-102200000D03*
X141480000Y-102200000D03*
X142280000Y-102200000D03*
X143080000Y-102200000D03*
X143880000Y-102200000D03*
X144680000Y-102200000D03*
X145480000Y-102200000D03*
X146280000Y-102200000D03*
D19*
X147730000Y-100750000D03*
X147730000Y-99950000D03*
X147730000Y-99150000D03*
X147730000Y-98350000D03*
X147730000Y-97550000D03*
X147730000Y-96750000D03*
X147730000Y-95950000D03*
X147730000Y-95150000D03*
D20*
X146280000Y-93700000D03*
X145480000Y-93700000D03*
X144680000Y-93700000D03*
X143880000Y-93700000D03*
X143080000Y-93700000D03*
X142280000Y-93700000D03*
X141480000Y-93700000D03*
X140680000Y-93700000D03*
D14*
X137000000Y-77250000D03*
X137000000Y-78800000D03*
D21*
X149415000Y-109150000D03*
X147765000Y-109150000D03*
D22*
X139600000Y-79787500D03*
X139600000Y-78212500D03*
M02*
