%TF.GenerationSoftware,KiCad,Pcbnew,7.0.8-7.0.8~ubuntu22.04.1*%
%TF.CreationDate,2023-11-09T22:33:04+02:00*%
%TF.ProjectId,elepajaradio,656c6570-616a-4617-9261-64696f2e6b69,rev?*%
%TF.SameCoordinates,Original*%
%TF.FileFunction,Other,User*%
%FSLAX46Y46*%
G04 Gerber Fmt 4.6, Leading zero omitted, Abs format (unit mm)*
G04 Created by KiCad (PCBNEW 7.0.8-7.0.8~ubuntu22.04.1) date 2023-11-09 22:33:04*
%MOMM*%
%LPD*%
G01*
G04 APERTURE LIST*
%ADD10C,0.050000*%
G04 APERTURE END LIST*
D10*
%TO.C,C8*%
X147970000Y-87120000D02*
X150930000Y-87120000D01*
X147970000Y-88580000D02*
X147970000Y-87120000D01*
X150930000Y-87120000D02*
X150930000Y-88580000D01*
X150930000Y-88580000D02*
X147970000Y-88580000D01*
%TO.C,C2*%
X129050000Y-99900000D02*
X129050000Y-96940000D01*
X130510000Y-99900000D02*
X129050000Y-99900000D01*
X129050000Y-96940000D02*
X130510000Y-96940000D01*
X130510000Y-96940000D02*
X130510000Y-99900000D01*
%TO.C,R3*%
X142655000Y-108280000D02*
X145615000Y-108280000D01*
X142655000Y-109740000D02*
X142655000Y-108280000D01*
X145615000Y-108280000D02*
X145615000Y-109740000D01*
X145615000Y-109740000D02*
X142655000Y-109740000D01*
%TO.C,AE1*%
X164370000Y-85310000D02*
X153370000Y-85310000D01*
X164370000Y-74310000D02*
X164370000Y-85310000D01*
X153370000Y-85310000D02*
X153370000Y-74310000D01*
X153370000Y-74310000D02*
X164370000Y-74310000D01*
%TO.C,R5*%
X135655649Y-76609165D02*
X135655649Y-79569165D01*
X134195649Y-76609165D02*
X135655649Y-76609165D01*
X135655649Y-79569165D02*
X134195649Y-79569165D01*
X134195649Y-79569165D02*
X134195649Y-76609165D01*
%TO.C,C5*%
X136867119Y-112083400D02*
X136867119Y-115043400D01*
X135407119Y-112083400D02*
X136867119Y-112083400D01*
X136867119Y-115043400D02*
X135407119Y-115043400D01*
X135407119Y-115043400D02*
X135407119Y-112083400D01*
%TO.C,SW2*%
X139170000Y-116030000D02*
X145320000Y-116030000D01*
X145320000Y-116030000D02*
X145320000Y-112430000D01*
X139170000Y-112430000D02*
X139170000Y-116030000D01*
X145320000Y-112430000D02*
X139170000Y-112430000D01*
%TO.C,J4*%
X123200000Y-78200000D02*
X123200000Y-81800000D01*
X123200000Y-81800000D02*
X126800000Y-81800000D01*
X126800000Y-78200000D02*
X123200000Y-78200000D01*
X126800000Y-81800000D02*
X126800000Y-78200000D01*
%TO.C,SW3*%
X146790000Y-116030000D02*
X152940000Y-116030000D01*
X152940000Y-116030000D02*
X152940000Y-112430000D01*
X146790000Y-112430000D02*
X146790000Y-116030000D01*
X152940000Y-112430000D02*
X146790000Y-112430000D01*
%TO.C,C3*%
X128020918Y-113938408D02*
X128020918Y-110978408D01*
X129480918Y-113938408D02*
X128020918Y-113938408D01*
X128020918Y-110978408D02*
X129480918Y-110978408D01*
X129480918Y-110978408D02*
X129480918Y-113938408D01*
%TO.C,Y1*%
X136550000Y-107250000D02*
X136550000Y-101650000D01*
X136550000Y-101650000D02*
X124650000Y-101650000D01*
X124650000Y-107250000D02*
X136550000Y-107250000D01*
X124650000Y-101650000D02*
X124650000Y-107250000D01*
%TO.C,J1*%
X160700000Y-99390000D02*
X160700000Y-110590000D01*
X160700000Y-110590000D02*
X164300000Y-110590000D01*
X164300000Y-99390000D02*
X160700000Y-99390000D01*
X164300000Y-110590000D02*
X164300000Y-99390000D01*
%TO.C,U4*%
X130570000Y-109990000D02*
X130570000Y-113390000D01*
X130570000Y-113390000D02*
X134670000Y-113390000D01*
X134670000Y-109990000D02*
X130570000Y-109990000D01*
X134670000Y-113390000D02*
X134670000Y-109990000D01*
%TO.C,C4*%
X135428007Y-111136205D02*
X135428007Y-108176205D01*
X136888007Y-111136205D02*
X135428007Y-111136205D01*
X135428007Y-108176205D02*
X136888007Y-108176205D01*
X136888007Y-108176205D02*
X136888007Y-111136205D01*
%TO.C,U5*%
X147330000Y-89350000D02*
X147330000Y-86550000D01*
X144130000Y-89350000D02*
X147330000Y-89350000D01*
X144130000Y-86550000D02*
X147330000Y-86550000D01*
X144130000Y-86550000D02*
X144130000Y-89350000D01*
%TO.C,MK1*%
X123200000Y-76800000D02*
X129350000Y-76800000D01*
X129350000Y-76800000D02*
X129350000Y-73200000D01*
X123200000Y-73200000D02*
X123200000Y-76800000D01*
X129350000Y-73200000D02*
X123200000Y-73200000D01*
%TO.C,R4*%
X147670000Y-79480000D02*
X144710000Y-79480000D01*
X147670000Y-78020000D02*
X147670000Y-79480000D01*
X144710000Y-79480000D02*
X144710000Y-78020000D01*
X144710000Y-78020000D02*
X147670000Y-78020000D01*
%TO.C,SW1*%
X123200000Y-91115000D02*
X123200000Y-99765000D01*
X123200000Y-99765000D02*
X126800000Y-99765000D01*
X126800000Y-91115000D02*
X123200000Y-91115000D01*
X126800000Y-99765000D02*
X126800000Y-91115000D01*
%TO.C,J3*%
X126800000Y-116030000D02*
X126800000Y-109880000D01*
X126800000Y-109880000D02*
X123200000Y-109880000D01*
X123200000Y-116030000D02*
X126800000Y-116030000D01*
X123200000Y-109880000D02*
X123200000Y-116030000D01*
%TO.C,U1*%
X140482500Y-78120000D02*
X140482500Y-81520000D01*
X140482500Y-81520000D02*
X144582500Y-81520000D01*
X144582500Y-78120000D02*
X140482500Y-78120000D01*
X144582500Y-81520000D02*
X144582500Y-78120000D01*
%TO.C,R1*%
X147650000Y-81620000D02*
X144690000Y-81620000D01*
X147650000Y-80160000D02*
X147650000Y-81620000D01*
X144690000Y-81620000D02*
X144690000Y-80160000D01*
X144690000Y-80160000D02*
X147650000Y-80160000D01*
%TO.C,J2*%
X123200000Y-83725000D02*
X123200000Y-89875000D01*
X123200000Y-89875000D02*
X126800000Y-89875000D01*
X126800000Y-83725000D02*
X123200000Y-83725000D01*
X126800000Y-89875000D02*
X126800000Y-83725000D01*
%TO.C,C1*%
X132420000Y-99920000D02*
X135380000Y-99920000D01*
X132420000Y-101380000D02*
X132420000Y-99920000D01*
X135380000Y-99920000D02*
X135380000Y-101380000D01*
X135380000Y-101380000D02*
X132420000Y-101380000D01*
%TO.C,U2*%
X160700000Y-86690000D02*
X160700000Y-97890000D01*
X160700000Y-97890000D02*
X164300000Y-97890000D01*
X164300000Y-86690000D02*
X160700000Y-86690000D01*
X164300000Y-97890000D02*
X164300000Y-86690000D01*
%TO.C,C7*%
X150889156Y-80570000D02*
X147929156Y-80570000D01*
X150889156Y-79110000D02*
X150889156Y-80570000D01*
X147929156Y-80570000D02*
X147929156Y-79110000D01*
X147929156Y-79110000D02*
X150889156Y-79110000D01*
%TO.C,U3*%
X138180000Y-92650000D02*
X138180000Y-103250000D01*
X138180000Y-92650000D02*
X148780000Y-92650000D01*
X138180000Y-103250000D02*
X148780000Y-103250000D01*
X148780000Y-92650000D02*
X148780000Y-103250000D01*
%TO.C,C6*%
X137730000Y-76545000D02*
X137730000Y-79505000D01*
X136270000Y-76545000D02*
X137730000Y-76545000D01*
X137730000Y-79505000D02*
X136270000Y-79505000D01*
X136270000Y-79505000D02*
X136270000Y-76545000D01*
%TO.C,R2*%
X150070000Y-109880000D02*
X147110000Y-109880000D01*
X150070000Y-108420000D02*
X150070000Y-109880000D01*
X147110000Y-109880000D02*
X147110000Y-108420000D01*
X147110000Y-108420000D02*
X150070000Y-108420000D01*
%TO.C,L1*%
X138554156Y-80421076D02*
X138554156Y-77461076D01*
X140014156Y-80421076D02*
X138554156Y-80421076D01*
X138554156Y-77461076D02*
X140014156Y-77461076D01*
X140014156Y-77461076D02*
X140014156Y-80421076D01*
%TD*%
M02*
